<?xml version="1.0" encoding="utf-8"?>
<!-- Generator: Adobe Illustrator 16.0.0, SVG Export Plug-In . SVG Version: 6.00 Build 0)  -->
<!DOCTYPE svg PUBLIC "-//W3C//DTD SVG 1.1//EN" "http://www.w3.org/Graphics/SVG/1.1/DTD/svg11.dtd">
<svg version="1.1" id="Layer_1" xmlns="http://www.w3.org/2000/svg" xmlns:xlink="http://www.w3.org/1999/xlink" x="0px" y="0px"
	 width="200px" height="200px" viewBox="0 0 200 200" style="enable-background:new 0 0 200 200;" xml:space="preserve">
<style type="text/css">
<![CDATA[
	.st0{fill:#FFFFFF;}
	.st1{opacity:0.7;fill:#FFDD15;}
]]>
</style>
<ellipse class="st1" cx="100" cy="100.3" rx="99.6" ry="100"/>
<g>
	<path class="st0" d="M41.3,77h3.2l6.4,16.7h-3.3l-1.3-3.4h-6.8l-1.4,3.4h-3.3L41.3,77z M43,81.4l-2.2,5.7h4.4L43,81.4z"/>
	<path class="st0" d="M68.6,79.9l-2.2,2.1c-1.5-1.6-3.2-2.4-5.1-2.4c-1.6,0-2.9,0.5-4,1.6s-1.6,2.4-1.6,4c0,1.1,0.2,2.1,0.7,3
		s1.2,1.5,2,2c0.9,0.5,1.9,0.7,2.9,0.7c0.9,0,1.8-0.2,2.5-0.5c0.8-0.3,1.6-1,2.5-1.9l2.1,2.2c-1.2,1.2-2.4,2-3.5,2.5
		c-1.1,0.5-2.3,0.7-3.7,0.7c-2.6,0-4.7-0.8-6.3-2.5s-2.5-3.8-2.5-6.3c0-1.7,0.4-3.1,1.1-4.4s1.8-2.3,3.2-3.1
		c1.4-0.8,2.9-1.2,4.5-1.2c1.4,0,2.7,0.3,4,0.9C66.6,78,67.7,78.9,68.6,79.9z"/>
	<path class="st0" d="M86.7,79.9l-2.2,2.1c-1.5-1.6-3.2-2.4-5.1-2.4c-1.6,0-2.9,0.5-4,1.6s-1.6,2.4-1.6,4c0,1.1,0.2,2.1,0.7,3
		s1.2,1.5,2,2c0.9,0.5,1.9,0.7,2.9,0.7c0.9,0,1.8-0.2,2.5-0.5c0.8-0.3,1.6-1,2.5-1.9l2.1,2.2c-1.2,1.2-2.4,2-3.5,2.5
		c-1.1,0.5-2.3,0.7-3.7,0.7c-2.6,0-4.7-0.8-6.3-2.5s-2.5-3.8-2.5-6.3c0-1.7,0.4-3.1,1.1-4.4s1.8-2.3,3.2-3.1
		c1.4-0.8,2.9-1.2,4.5-1.2c1.4,0,2.7,0.3,4,0.9C84.7,78,85.8,78.9,86.7,79.9z"/>
	<path class="st0" d="M89.5,77h9.1v3.1h-5.9v3h5.9v3.1h-5.9v4.4h5.9v3.1h-9.1V77z"/>
	<path class="st0" d="M110.2,79.3l-2.3,2.1c-0.8-1.1-1.7-1.7-2.5-1.7c-0.4,0-0.8,0.1-1,0.3c-0.3,0.2-0.4,0.5-0.4,0.8
		c0,0.3,0.1,0.5,0.3,0.8c0.3,0.3,1,1,2.3,2.1c1.2,1,1.9,1.7,2.2,1.9c0.6,0.7,1.1,1.3,1.4,1.9s0.4,1.2,0.4,1.9c0,1.4-0.5,2.5-1.4,3.4
		s-2.2,1.3-3.7,1.3c-1.2,0-2.2-0.3-3.1-0.9c-0.9-0.6-1.6-1.5-2.3-2.7l2.7-1.6c0.8,1.5,1.7,2.2,2.8,2.2c0.5,0,1-0.2,1.4-0.5
		c0.4-0.3,0.6-0.7,0.6-1.1c0-0.4-0.1-0.8-0.4-1.1c-0.3-0.4-0.9-1-1.8-1.7c-1.8-1.5-3-2.6-3.5-3.4c-0.5-0.8-0.8-1.6-0.8-2.4
		c0-1.2,0.4-2.1,1.3-3c0.9-0.8,2-1.2,3.2-1.2c0.8,0,1.6,0.2,2.4,0.6C108.5,77.6,109.3,78.3,110.2,79.3z"/>
	<path class="st0" d="M122.2,79.3l-2.3,2.1c-0.8-1.1-1.7-1.7-2.5-1.7c-0.4,0-0.8,0.1-1,0.3c-0.3,0.2-0.4,0.5-0.4,0.8
		c0,0.3,0.1,0.5,0.3,0.8c0.3,0.3,1,1,2.3,2.1c1.2,1,1.9,1.7,2.2,1.9c0.6,0.7,1.1,1.3,1.4,1.9s0.4,1.2,0.4,1.9c0,1.4-0.5,2.5-1.4,3.4
		s-2.2,1.3-3.7,1.3c-1.2,0-2.2-0.3-3.1-0.9c-0.9-0.6-1.6-1.5-2.3-2.7l2.7-1.6c0.8,1.5,1.7,2.2,2.8,2.2c0.5,0,1-0.2,1.4-0.5
		c0.4-0.3,0.6-0.7,0.6-1.1c0-0.4-0.1-0.8-0.4-1.1c-0.3-0.4-0.9-1-1.8-1.7c-1.8-1.5-3-2.6-3.5-3.4c-0.5-0.8-0.8-1.6-0.8-2.4
		c0-1.2,0.4-2.1,1.3-3c0.9-0.8,2-1.2,3.2-1.2c0.8,0,1.6,0.2,2.4,0.6C120.5,77.6,121.3,78.3,122.2,79.3z"/>
	<path class="st0" d="M125.3,77h3.1v16.7h-3.1V77z"/>
	<path class="st0" d="M132,93.7V77h2.6c1.5,0,2.6,0.1,3.3,0.3c1,0.3,1.8,0.8,2.4,1.5s0.9,1.6,0.9,2.5c0,0.6-0.1,1.2-0.4,1.7
		c-0.3,0.5-0.7,1-1.3,1.5c1,0.5,1.7,1.1,2.2,1.8s0.7,1.6,0.7,2.5c0,0.9-0.2,1.8-0.7,2.6c-0.5,0.8-1.1,1.3-1.9,1.7
		c-0.8,0.4-1.8,0.6-3.2,0.6H132z M135.2,80v3.5h0.7c0.8,0,1.3-0.2,1.7-0.5s0.6-0.8,0.6-1.3c0-0.5-0.2-0.9-0.5-1.2
		c-0.4-0.3-0.9-0.5-1.6-0.5H135.2z M135.2,86.4v4.3h0.8c1.3,0,2.2-0.2,2.7-0.5c0.5-0.3,0.7-0.8,0.7-1.5c0-0.7-0.3-1.3-0.8-1.7
		s-1.4-0.6-2.7-0.6H135.2z"/>
	<path class="st0" d="M145.4,77h3.2v13.7h4.6v3h-7.8V77z"/>
	<path class="st0" d="M155.6,77h9.1v3.1h-5.9v3h5.9v3.1h-5.9v4.4h5.9v3.1h-9.1V77z"/>
	<path class="st0" d="M22.6,104.9h9.2v3.1h-3v13.6h-3.2V108h-2.9V104.9z"/>
	<path class="st0" d="M34,104.9H43v3.1h-5.9v3H43v3.1h-5.9v4.4H43v3.1H34V104.9z"/>
	<path class="st0" d="M61.3,107.8l-2.2,2.1c-1.5-1.6-3.2-2.4-5.1-2.4c-1.6,0-2.9,0.5-4,1.6s-1.6,2.4-1.6,4c0,1.1,0.2,2.1,0.7,3
		c0.5,0.9,1.2,1.5,2,2c0.9,0.5,1.9,0.7,2.9,0.7c0.9,0,1.8-0.2,2.5-0.5c0.8-0.3,1.6-1,2.5-1.9l2.1,2.2c-1.2,1.2-2.4,2-3.5,2.5
		c-1.1,0.5-2.3,0.7-3.7,0.7c-2.6,0-4.7-0.8-6.3-2.5s-2.5-3.8-2.5-6.3c0-1.7,0.4-3.1,1.1-4.4s1.8-2.3,3.2-3.1s2.9-1.2,4.5-1.2
		c1.4,0,2.7,0.3,4,0.9S60.3,106.7,61.3,107.8z"/>
	<path class="st0" d="M64,104.9h3.2v6.3h5.5v-6.3H76v16.7h-3.2v-7.3h-5.5v7.3H64V104.9z"/>
	<path class="st0" d="M79.8,104.9h3l7.1,11v-11h3.2v16.7h-3l-7.1-10.9v10.9h-3.2V104.9z"/>
	<path class="st0" d="M104.7,104.5c2.4,0,4.4,0.9,6.1,2.6s2.5,3.8,2.5,6.2c0,2.4-0.8,4.5-2.5,6.2c-1.7,1.7-3.7,2.5-6.1,2.5
		c-2.5,0-4.6-0.9-6.2-2.6s-2.5-3.8-2.5-6.2c0-1.6,0.4-3.1,1.2-4.4c0.8-1.3,1.8-2.4,3.2-3.2C101.7,104.9,103.1,104.5,104.7,104.5z
		 M104.7,107.6c-1.5,0-2.8,0.5-3.9,1.6c-1,1.1-1.6,2.4-1.6,4.1c0,1.8,0.7,3.3,2,4.4c1,0.8,2.2,1.3,3.5,1.3c1.5,0,2.8-0.5,3.8-1.6
		c1.1-1.1,1.6-2.4,1.6-4c0-1.6-0.5-2.9-1.6-4C107.5,108.1,106.2,107.6,104.7,107.6z"/>
	<path class="st0" d="M116.3,104.9h3.2v13.7h4.6v3h-7.8V104.9z"/>
	<path class="st0" d="M134.3,104.5c2.4,0,4.4,0.9,6.1,2.6s2.5,3.8,2.5,6.2c0,2.4-0.8,4.5-2.5,6.2c-1.7,1.7-3.7,2.5-6.1,2.5
		c-2.5,0-4.6-0.9-6.2-2.6c-1.6-1.7-2.5-3.8-2.5-6.2c0-1.6,0.4-3.1,1.2-4.4s1.8-2.4,3.2-3.2C131.3,104.9,132.7,104.5,134.3,104.5z
		 M134.3,107.6c-1.5,0-2.8,0.5-3.9,1.6c-1,1.1-1.6,2.4-1.6,4.1c0,1.8,0.7,3.3,2,4.4c1,0.8,2.2,1.3,3.5,1.3c1.5,0,2.8-0.5,3.8-1.6
		c1.1-1.1,1.6-2.4,1.6-4c0-1.6-0.5-2.9-1.6-4C137.1,108.1,135.8,107.6,134.3,107.6z"/>
	<path class="st0" d="M161.2,107.6l-2.2,2.2c-1.4-1.5-3.1-2.2-4.9-2.2c-1.6,0-3,0.5-4.1,1.6c-1.1,1.1-1.7,2.4-1.7,4
		c0,1.6,0.6,3,1.7,4.1c1.1,1.1,2.6,1.7,4.2,1.7c1.1,0,2-0.2,2.8-0.7s1.4-1.2,1.8-2.2H154v-3h8.4l0,0.7c0,1.5-0.4,2.8-1.1,4.2
		c-0.8,1.3-1.7,2.3-2.9,3c-1.2,0.7-2.6,1-4.2,1c-1.7,0-3.3-0.4-4.6-1.1c-1.4-0.8-2.4-1.8-3.2-3.2c-0.8-1.4-1.2-2.9-1.2-4.5
		c0-2.2,0.7-4.1,2.2-5.8c1.7-1.9,4-2.9,6.7-2.9c1.4,0,2.8,0.3,4.1,0.8C159.2,105.7,160.2,106.5,161.2,107.6z"/>
	<path class="st0" d="M164.1,104.9h3.4l3.1,6l3.1-6h3.4l-4.9,9.5v7.2H169v-7.2L164.1,104.9z"/>
</g>
</svg>
