<?xml version="1.0" encoding="utf-8"?>
<!-- Generator: Adobe Illustrator 16.0.0, SVG Export Plug-In . SVG Version: 6.00 Build 0)  -->
<!DOCTYPE svg PUBLIC "-//W3C//DTD SVG 1.1//EN" "http://www.w3.org/Graphics/SVG/1.1/DTD/svg11.dtd">
<svg version="1.1" id="Layer_1" xmlns="http://www.w3.org/2000/svg" xmlns:xlink="http://www.w3.org/1999/xlink" x="0px" y="0px"
	 width="200px" height="200px" viewBox="0 0 200 200" style="enable-background:new 0 0 200 200;" xml:space="preserve">
<style type="text/css">
<![CDATA[
	.st0{opacity:0.7;fill:#F16522;}
	.st1{fill:#FFFFFF;}
]]>
</style>
<ellipse class="st0" cx="100.2" cy="99.9" rx="99.9" ry="99.9"/>
<g>
	<path class="st1" d="M48.7,66.8l-2.1,2.1c-1.5-1.6-3.1-2.4-4.9-2.4c-1.5,0-2.8,0.5-3.9,1.6c-1.1,1.1-1.6,2.4-1.6,4
		c0,1.1,0.2,2.1,0.7,2.9c0.5,0.9,1.1,1.5,2,2c0.9,0.5,1.8,0.7,2.8,0.7c0.9,0,1.7-0.2,2.4-0.5c0.7-0.3,1.5-1,2.4-1.9l2.1,2.2
		c-1.2,1.2-2.3,2-3.4,2.5c-1.1,0.5-2.3,0.7-3.6,0.7c-2.5,0-4.6-0.8-6.2-2.5c-1.6-1.6-2.4-3.7-2.4-6.3c0-1.7,0.4-3.1,1.1-4.4
		c0.7-1.3,1.8-2.3,3.1-3.1s2.8-1.2,4.4-1.2c1.3,0,2.6,0.3,3.8,0.9S47.8,65.7,48.7,66.8z"/>
	<path class="st1" d="M59,63.4c2.3,0,4.2,0.9,5.9,2.5c1.6,1.7,2.5,3.8,2.5,6.2c0,2.4-0.8,4.5-2.4,6.1c-1.6,1.7-3.6,2.5-5.9,2.5
		c-2.4,0-4.4-0.9-6-2.6c-1.6-1.7-2.4-3.8-2.4-6.1c0-1.6,0.4-3,1.1-4.4c0.7-1.3,1.8-2.4,3.1-3.2C56.1,63.8,57.5,63.4,59,63.4z
		 M59,66.5c-1.5,0-2.7,0.5-3.8,1.6c-1,1.1-1.5,2.4-1.5,4.1c0,1.8,0.6,3.3,1.9,4.4c1,0.8,2.1,1.3,3.4,1.3c1.5,0,2.7-0.5,3.7-1.6
		s1.5-2.4,1.5-4c0-1.6-0.5-2.9-1.5-4C61.7,67.1,60.5,66.5,59,66.5z"/>
	<path class="st1" d="M71.9,63.9h3l3.7,11.6l3.8-11.6h3l2.7,16.6h-3L83.4,70l-3.4,10.5h-2.7L73.8,70l-1.8,10.5h-3L71.9,63.9z"/>
	<path class="st1" d="M90.5,63.9h3.3c1.8,0,3,0.2,3.8,0.5s1.4,0.9,1.8,1.6s0.7,1.6,0.7,2.7c0,1.2-0.3,2.1-0.9,2.9
		c-0.6,0.8-1.4,1.3-2.4,1.6c-0.6,0.2-1.7,0.3-3.2,0.3v7h-3.1V63.9z M93.6,70.3h1c0.8,0,1.3-0.1,1.6-0.2c0.3-0.1,0.5-0.3,0.7-0.6
		c0.2-0.3,0.3-0.6,0.3-0.9c0-0.6-0.2-1.1-0.7-1.4c-0.4-0.2-1-0.3-2-0.3h-0.9V70.3z"/>
	<path class="st1" d="M108,63.9h3.1l6.2,16.6h-3.2l-1.3-3.4h-6.6l-1.3,3.4h-3.2L108,63.9z M109.6,68.3l-2.2,5.7h4.3L109.6,68.3z"/>
	<path class="st1" d="M118.1,63.9h8.9V67h-2.9v13.5H121V67h-2.9V63.9z"/>
	<path class="st1" d="M128.9,63.9h3v16.6h-3V63.9z"/>
	<path class="st1" d="M135.4,80.4V63.9h2.5c1.5,0,2.5,0.1,3.2,0.3c1,0.3,1.7,0.8,2.3,1.5c0.6,0.7,0.9,1.6,0.9,2.5
		c0,0.6-0.1,1.2-0.4,1.7c-0.3,0.5-0.7,1-1.3,1.4c1,0.5,1.7,1.1,2.2,1.8c0.5,0.7,0.7,1.6,0.7,2.5c0,0.9-0.2,1.8-0.7,2.5
		c-0.5,0.8-1.1,1.3-1.8,1.7c-0.7,0.4-1.8,0.6-3.1,0.6H135.4z M138.5,66.9v3.5h0.7c0.7,0,1.3-0.2,1.7-0.5c0.4-0.3,0.5-0.8,0.5-1.3
		c0-0.5-0.2-0.9-0.5-1.2c-0.3-0.3-0.9-0.5-1.6-0.5H138.5z M138.5,73.2v4.3h0.8c1.3,0,2.1-0.2,2.6-0.5c0.4-0.3,0.7-0.8,0.7-1.4
		c0-0.7-0.3-1.3-0.8-1.7s-1.4-0.6-2.6-0.6H138.5z"/>
	<path class="st1" d="M148.4,63.9h3.1v13.6h4.5v3h-7.5V63.9z"/>
	<path class="st1" d="M158.3,63.9h8.8v3.1h-5.8v3h5.8v3h-5.8v4.4h5.8v3.1h-8.8V63.9z"/>
	<path class="st1" d="M48.4,91.6h3l2.3,10.6l2.9-10.6h2.6l2.9,10.6l2.3-10.6h3l-3.6,16.6h-2.9l-3-10.7L55,108.2h-2.9L48.4,91.6z"/>
	<path class="st1" d="M69.6,91.6h3v16.6h-3V91.6z"/>
	<path class="st1" d="M74.5,91.6h8.9v3.1h-2.9v13.5h-3.1V94.7h-2.9V91.6z"/>
	<path class="st1" d="M85.5,91.6h3.1v6.3H94v-6.3h3.1v16.6H94v-7.3h-5.4v7.3h-3.1V91.6z"/>
	<path class="st1" d="M112,91.6h3.1l6.2,16.6h-3.2l-1.3-3.4h-6.6l-1.3,3.4h-3.2L112,91.6z M113.6,96l-2.2,5.7h4.3L113.6,96z"/>
	<path class="st1" d="M123.8,91.6h2.9l6.9,10.9V91.6h3.1v16.6h-3l-6.9-10.9v10.9h-3.1V91.6z"/>
	<path class="st1" d="M139.2,91.6h3.3l3,6l3-6h3.3L147,101v7.2H144V101L139.2,91.6z"/>
	<path class="st1" d="M64.5,119.3h3.6c2.3,0,4.1,0.3,5.2,0.9c1.1,0.6,2.1,1.6,2.8,2.9c0.7,1.3,1.1,2.9,1.1,4.7
		c0,1.3-0.2,2.5-0.6,3.5c-0.4,1.1-1,2-1.7,2.7c-0.7,0.7-1.5,1.2-2.4,1.5s-2.3,0.4-4.4,0.4h-3.7V119.3z M67.5,122.4v10.5h1.4
		c1.4,0,2.4-0.2,3.1-0.5c0.6-0.3,1.1-0.9,1.6-1.7c0.4-0.8,0.6-1.7,0.6-2.9c0-1.8-0.5-3.1-1.4-4.1c-0.9-0.9-2.2-1.3-4.2-1.3H67.5z"/>
	<path class="st1" d="M80.4,119.3h3.3c1.8,0,3.1,0.2,3.8,0.5s1.4,0.9,1.8,1.6s0.7,1.7,0.7,2.7c0,1.1-0.3,2-0.8,2.7
		c-0.5,0.7-1.3,1.3-2.3,1.7l3.8,7.4h-3.4l-3.6-7h-0.3v7h-3.1V119.3z M83.4,125.8h1c1,0,1.6-0.1,2-0.4c0.4-0.3,0.6-0.7,0.6-1.3
		c0-0.4-0.1-0.7-0.3-0.9c-0.2-0.3-0.4-0.5-0.7-0.6s-0.9-0.2-1.7-0.2h-0.8V125.8z"/>
	<path class="st1" d="M93.1,119.3h3.1V130c0,0.9,0.1,1.6,0.2,2s0.4,0.7,0.8,0.9c0.4,0.2,0.8,0.3,1.3,0.3c0.5,0,1-0.1,1.4-0.4
		c0.4-0.3,0.7-0.6,0.8-1c0.1-0.4,0.2-1.1,0.2-2.3v-10.3h3.1v9.9c0,1.7-0.1,2.8-0.3,3.5s-0.5,1.3-1,1.9s-1.1,1-1.8,1.3
		c-0.7,0.3-1.5,0.4-2.3,0.4c-1.2,0-2.2-0.3-3.1-0.8c-0.9-0.6-1.5-1.2-1.9-2.1c-0.4-0.8-0.6-2.2-0.6-4.2V119.3z"/>
	<path class="st1" d="M109.1,119.3h3l3.7,11.6l3.8-11.6h3l2.7,16.6h-3l-1.7-10.5l-3.4,10.5h-2.7l-3.4-10.5l-1.8,10.5h-3L109.1,119.3
		z"/>
	<path class="st1" d="M136.3,121.6l-2.3,2.1c-0.8-1.1-1.6-1.7-2.4-1.7c-0.4,0-0.7,0.1-1,0.3c-0.3,0.2-0.4,0.5-0.4,0.8
		s0.1,0.5,0.3,0.8c0.2,0.3,1,1,2.3,2.1c1.2,1,1.9,1.6,2.1,1.9c0.6,0.6,1.1,1.3,1.3,1.9s0.4,1.2,0.4,1.9c0,1.4-0.5,2.5-1.4,3.4
		c-0.9,0.9-2.1,1.3-3.6,1.3c-1.1,0-2.2-0.3-3-0.9c-0.9-0.6-1.6-1.5-2.2-2.7l2.6-1.6c0.8,1.5,1.7,2.2,2.7,2.2c0.5,0,1-0.2,1.3-0.5
		c0.4-0.3,0.5-0.7,0.5-1.1c0-0.4-0.1-0.8-0.4-1.1c-0.3-0.4-0.9-1-1.8-1.7c-1.8-1.5-2.9-2.6-3.4-3.4c-0.5-0.8-0.8-1.6-0.8-2.4
		c0-1.2,0.4-2.1,1.3-3c0.9-0.8,1.9-1.2,3.2-1.2c0.8,0,1.6,0.2,2.3,0.6S135.4,120.5,136.3,121.6z"/>
</g>
</svg>
