<?xml version="1.0" encoding="utf-8"?>
<!-- Generator: Adobe Illustrator 16.0.0, SVG Export Plug-In . SVG Version: 6.00 Build 0)  -->
<!DOCTYPE svg PUBLIC "-//W3C//DTD SVG 1.1//EN" "http://www.w3.org/Graphics/SVG/1.1/DTD/svg11.dtd">
<svg version="1.1" id="Layer_1" xmlns="http://www.w3.org/2000/svg" xmlns:xlink="http://www.w3.org/1999/xlink" x="0px" y="0px"
	 width="200px" height="200px" viewBox="0 0 200 200" style="enable-background:new 0 0 200 200;" xml:space="preserve">
<style type="text/css">
<![CDATA[
	.st0{opacity:0.7;fill:#EC1C24;}
	.st1{fill:#FFFFFF;}
]]>
</style>
<ellipse class="st0" cx="100.1" cy="100" rx="100.2" ry="100"/>
<g>
	<path class="st1" d="M56.1,79.7l-2.2,2.2c-1.4-1.5-3.1-2.2-5-2.2c-1.6,0-3,0.5-4.1,1.6c-1.1,1.1-1.7,2.4-1.7,4c0,1.6,0.6,3,1.7,4.1
		c1.2,1.1,2.6,1.7,4.3,1.7c1.1,0,2-0.2,2.8-0.7c0.8-0.5,1.4-1.2,1.8-2.2h-4.8v-3h8.4l0,0.7c0,1.5-0.4,2.8-1.1,4.1
		c-0.8,1.3-1.7,2.3-2.9,3s-2.6,1-4.2,1c-1.7,0-3.3-0.4-4.6-1.1c-1.4-0.8-2.4-1.8-3.2-3.2c-0.8-1.4-1.2-2.9-1.2-4.5
		c0-2.2,0.7-4.1,2.2-5.8c1.7-1.9,4-2.9,6.8-2.9c1.5,0,2.8,0.3,4.1,0.8C54,77.8,55,78.6,56.1,79.7z"/>
	<path class="st1" d="M60.4,77h3.4c1.8,0,3.2,0.2,3.9,0.5c0.8,0.3,1.4,0.9,1.9,1.6c0.5,0.8,0.7,1.7,0.7,2.7c0,1.1-0.3,2-0.8,2.7
		s-1.3,1.3-2.4,1.7l4,7.4h-3.5l-3.8-7.1h-0.3v7.1h-3.2V77z M63.6,83.5h1c1,0,1.7-0.1,2.1-0.4s0.6-0.7,0.6-1.3c0-0.4-0.1-0.7-0.3-0.9
		c-0.2-0.3-0.4-0.5-0.8-0.6c-0.3-0.1-0.9-0.2-1.7-0.2h-0.9V83.5z"/>
	<path class="st1" d="M73.7,77h9.1v3.1h-6v3h6v3h-6v4.4h6v3.1h-9.1V77z"/>
	<path class="st1" d="M90.9,77h3.2l6.4,16.7h-3.3l-1.3-3.4h-6.8l-1.4,3.4h-3.3L90.9,77z M92.5,81.4l-2.2,5.7h4.5L92.5,81.4z"/>
	<path class="st1" d="M101.3,77h9.2v3.1h-3v13.5h-3.2V80.1h-3V77z"/>
	<path class="st1" d="M119.3,77h8.3V80h-5.1v3h5.1v3h-5.1v7.5h-3.2V77z"/>
	<path class="st1" d="M138.3,76.5c2.4,0,4.4,0.9,6.1,2.6c1.7,1.7,2.6,3.8,2.6,6.2c0,2.4-0.8,4.5-2.5,6.2c-1.7,1.7-3.7,2.5-6.1,2.5
		c-2.5,0-4.6-0.9-6.3-2.6c-1.7-1.7-2.5-3.8-2.5-6.2c0-1.6,0.4-3.1,1.2-4.4s1.8-2.4,3.2-3.2C135.3,76.9,136.7,76.5,138.3,76.5z
		 M138.3,79.6c-1.5,0-2.8,0.5-3.9,1.6s-1.6,2.4-1.6,4.1c0,1.8,0.7,3.3,2,4.4c1,0.8,2.2,1.3,3.5,1.3c1.5,0,2.8-0.5,3.9-1.6
		c1.1-1.1,1.6-2.4,1.6-4c0-1.6-0.5-2.9-1.6-4C141.1,80.2,139.8,79.6,138.3,79.6z"/>
	<path class="st1" d="M150.2,77h3.4c1.8,0,3.2,0.2,3.9,0.5c0.8,0.3,1.4,0.9,1.9,1.6s0.7,1.7,0.7,2.7c0,1.1-0.3,2-0.8,2.7
		s-1.3,1.3-2.4,1.7l4,7.4h-3.5l-3.8-7.1h-0.3v7.1h-3.2V77z M153.3,83.5h1c1,0,1.7-0.1,2.1-0.4s0.6-0.7,0.6-1.3
		c0-0.4-0.1-0.7-0.3-0.9c-0.2-0.3-0.4-0.5-0.8-0.6c-0.3-0.1-0.9-0.2-1.7-0.2h-0.9V83.5z"/>
	<path class="st1" d="M40.2,121.4v-16.7h2.6c1.5,0,2.6,0.1,3.3,0.3c1,0.3,1.8,0.8,2.4,1.5s0.9,1.6,0.9,2.5c0,0.6-0.1,1.2-0.4,1.7
		c-0.3,0.5-0.7,1-1.3,1.5c1,0.5,1.8,1.1,2.2,1.8c0.5,0.7,0.7,1.6,0.7,2.5c0,0.9-0.2,1.8-0.7,2.6c-0.5,0.8-1.1,1.3-1.9,1.7
		c-0.8,0.4-1.8,0.6-3.2,0.6H40.2z M43.4,107.8v3.5H44c0.8,0,1.4-0.2,1.7-0.5c0.4-0.3,0.6-0.8,0.6-1.3c0-0.5-0.2-0.9-0.5-1.2
		s-0.9-0.5-1.6-0.5H43.4z M43.4,114.1v4.3h0.8c1.3,0,2.2-0.2,2.7-0.5s0.7-0.8,0.7-1.4c0-0.7-0.3-1.3-0.8-1.7s-1.4-0.6-2.7-0.6H43.4z
		"/>
	<path class="st1" d="M53.7,104.8h9.1v3.1h-6v3h6v3h-6v4.4h6v3.1h-9.1V104.8z"/>
	<path class="st1" d="M81.2,107.5l-2.2,2.2c-1.4-1.5-3.1-2.2-5-2.2c-1.6,0-3,0.5-4.1,1.6c-1.1,1.1-1.7,2.4-1.7,4
		c0,1.6,0.6,3,1.7,4.1c1.2,1.1,2.6,1.7,4.3,1.7c1.1,0,2-0.2,2.8-0.7c0.8-0.5,1.4-1.2,1.8-2.2H74v-3h8.4l0,0.7c0,1.5-0.4,2.8-1.1,4.1
		c-0.8,1.3-1.7,2.3-2.9,3s-2.6,1-4.2,1c-1.7,0-3.3-0.4-4.6-1.1c-1.4-0.8-2.4-1.8-3.2-3.2c-0.8-1.4-1.2-2.9-1.2-4.5
		c0-2.2,0.7-4.1,2.2-5.8c1.7-1.9,4-2.9,6.8-2.9c1.5,0,2.8,0.3,4.1,0.8C79.1,105.6,80.2,106.4,81.2,107.5z"/>
	<path class="st1" d="M85.1,104.8h3.2v16.7h-3.2V104.8z"/>
	<path class="st1" d="M91.8,104.8h3.1l7.1,11v-11h3.2v16.7h-3.1L95,110.5v10.9h-3.2V104.8z"/>
	<path class="st1" d="M109,104.8h3l7.1,11v-11h3.2v16.7h-3.1l-7.1-10.9v10.9H109V104.8z"/>
	<path class="st1" d="M126.2,104.8h9.1v3.1h-6v3h6v3h-6v4.4h6v3.1h-9.1V104.8z"/>
	<path class="st1" d="M138.5,104.8h3.4c1.8,0,3.2,0.2,3.9,0.5s1.4,0.9,1.9,1.6s0.7,1.7,0.7,2.7c0,1.1-0.3,2-0.8,2.7
		c-0.5,0.7-1.3,1.3-2.4,1.7l4,7.4h-3.5l-3.8-7.1h-0.3v7.1h-3.2V104.8z M141.7,111.3h1c1,0,1.7-0.1,2.1-0.4c0.4-0.3,0.6-0.7,0.6-1.3
		c0-0.4-0.1-0.7-0.3-0.9c-0.2-0.3-0.4-0.5-0.8-0.6c-0.3-0.1-0.9-0.2-1.7-0.2h-0.9V111.3z"/>
	<path class="st1" d="M160.6,107l-2.4,2.1c-0.8-1.1-1.7-1.7-2.5-1.7c-0.4,0-0.8,0.1-1,0.3c-0.3,0.2-0.4,0.5-0.4,0.8
		c0,0.3,0.1,0.5,0.3,0.8c0.3,0.3,1,1,2.3,2.1c1.2,1,1.9,1.6,2.2,1.9c0.6,0.6,1.1,1.3,1.4,1.9c0.3,0.6,0.4,1.2,0.4,1.9
		c0,1.4-0.5,2.5-1.4,3.4c-0.9,0.9-2.2,1.3-3.7,1.3c-1.2,0-2.2-0.3-3.1-0.9c-0.9-0.6-1.6-1.5-2.3-2.7l2.7-1.6
		c0.8,1.5,1.7,2.2,2.8,2.2c0.5,0,1-0.2,1.4-0.5c0.4-0.3,0.6-0.7,0.6-1.1c0-0.4-0.1-0.8-0.4-1.1c-0.3-0.4-0.9-1-1.9-1.7
		c-1.8-1.5-3-2.6-3.5-3.4c-0.5-0.8-0.8-1.6-0.8-2.4c0-1.2,0.4-2.1,1.3-3c0.9-0.8,2-1.2,3.3-1.2c0.8,0,1.6,0.2,2.4,0.6
		C158.9,105.3,159.7,106,160.6,107z"/>
</g>
</svg>
