<?xml version="1.0" encoding="utf-8"?>
<!-- Generator: Adobe Illustrator 19.0.0, SVG Export Plug-In . SVG Version: 6.00 Build 0)  -->
<svg version="1.1" xmlns="http://www.w3.org/2000/svg" xmlns:xlink="http://www.w3.org/1999/xlink" x="0px" y="0px"
	 viewBox="0 0 529.375 362.509" enable-background="new 0 0 529.375 362.509" xml:space="preserve">
<g id="Stativ">
	<rect x="160.556" y="271.009" fill="#939598" width="210.193" height="9.5"/>
	<rect x="160.415" y="111.509" fill="#939598" width="214.46" height="10.299"/>
	
		<rect x="358.401" y="213.857" transform="matrix(0.953 0.3029 -0.3029 0.953 86.0044 -113.7034)" fill="#939598" width="102.242" height="13.048"/>
	<rect x="160.415" y="24" fill="#939598" width="12.145" height="337.876"/>
	<rect x="366.06" y="24" fill="#939598" width="12.145" height="337.876"/>
	<rect x="57.375" y="142.333" fill="#939598" width="9.5" height="220.176"/>
	<polygon fill="#939598" points="7.531,362.009 0,362.009 61.767,258.248 66.875,261.25 	"/>
	<polygon fill="#939598" points="118.734,362.009 126.932,362.009 64.748,262.248 59.639,265.25 	"/>
	<polygon fill="#939598" points="53.51,138.258 58.375,143.333 66.51,143.333 72.131,138.258 72.131,129.37 74.375,128.121 
		75.375,114.854 72.131,112.009 72.131,104.009 53.51,104.009 53.51,111.509 50.875,114.854 50.875,128.121 53.51,129.37 	"/>
	
		<rect x="120.964" y="45.844" transform="matrix(0.8014 -0.5981 0.5981 0.8014 3.1446 105.4716)" fill="#939598" width="78.902" height="4.312"/>
	
		<rect x="340.559" y="60.745" transform="matrix(0.7477 0.664 -0.664 0.7477 137.6443 -236.4702)" fill="#939598" width="78.902" height="4.312"/>
	
		<rect x="88.107" y="222.002" transform="matrix(0.9791 -0.2036 0.2036 0.9791 -43.6138 33.1354)" fill="#939598" width="102.241" height="13.048"/>
</g>
<g id="Bastrumma">
	<g>
		<path fill="#414042" d="M333.508,238.421c-12.266-24.515-37.595-41.355-66.873-41.355c-29.278,0-54.607,16.841-66.874,41.355
			H333.508z"/>
		<path fill="#E6E7E8" d="M338.452,265.337l-5.577-25.195c-33.5-50.18-97.5-49.133-134,0l-4.586,27.114L338.452,265.337z"/>
		<circle fill="#414042" cx="266.635" cy="287.126" r="74.75"/>
		<circle fill="#6D6E71" cx="267.168" cy="287.126" r="70.25"/>
		
			<line fill="none" stroke="#414042" stroke-width="2.149" stroke-miterlimit="10" x1="195.289" y1="267.256" x2="200.761" y2="233.963"/>
		
			<line fill="none" stroke="#414042" stroke-width="2.149" stroke-miterlimit="10" x1="337.452" y1="265.337" x2="330.084" y2="233.963"/>
		
			<line fill="none" stroke="#414042" stroke-width="2.8129" stroke-miterlimit="10" x1="236.978" y1="221.275" x2="237.653" y2="204.942"/>
		
			<line fill="none" stroke="#414042" stroke-width="2.3516" stroke-miterlimit="10" x1="289.594" y1="218.495" x2="289.875" y2="203.201"/>
		
			<ellipse transform="matrix(0.9861 0.1662 -0.1662 0.9861 39.087 -45.1606)" fill="#414042" cx="289.375" cy="210.962" rx="5" ry="3"/>
		
			<ellipse transform="matrix(0.9584 -0.2855 0.2855 0.9584 -50.9561 76.7298)" fill="#414042" cx="237.652" cy="213.109" rx="5" ry="3"/>
		
			<ellipse transform="matrix(0.469 -0.8832 0.8832 0.469 -107.7213 305.1238)" fill="#414042" cx="199.875" cy="242.141" rx="5" ry="3.001"/>
		<path fill="#414042" d="M331.183,239.86c1.418-0.857,3.724,0.367,5.154,2.73c1.425,2.364,1.434,4.975,0.017,5.831
			c-1.42,0.856-3.726-0.366-5.153-2.73C329.771,243.329,329.764,240.718,331.183,239.86z"/>
	</g>
</g>
<g id="Cymbaler">
	<ellipse fill="#58595B" cx="167.457" cy="24" rx="56.087" ry="24"/>
	<ellipse fill="#58595B" cx="370.749" cy="37.698" rx="57.256" ry="24.5"/>
	<ellipse fill="#58595B" cx="64.582" cy="97.604" rx="58.793" ry="11.405"/>
	<ellipse fill="#414042" cx="372.133" cy="30.198" rx="7.878" ry="3.75"/>
	<polygon fill="#414042" points="369.011,31.198 369.011,22.948 373.133,22.948 373.133,29.448 	"/>
	<g>
		<ellipse fill="#414042" cx="164.654" cy="15.942" rx="8.22" ry="3.913"/>
		<polygon fill="#414042" points="167.912,16.986 167.912,8.377 163.61,8.377 163.61,15.16 		"/>
	</g>
	<g>
		<ellipse fill="#414042" cx="61.821" cy="90.672" rx="9.31" ry="4.432"/>
		<polygon fill="#414042" points="63.51,91.854 64.017,33.948 60.146,33.948 59.639,89.785 		"/>
	</g>
</g>
<g id="Trummor_1_">
	<g>
		
			<ellipse transform="matrix(0.9996 0.0285 -0.0285 0.9996 6.4035 -4.6323)" fill="#414042" stroke="#414042" stroke-miterlimit="10" cx="165.456" cy="221.974" rx="58.998" ry="16.952"/>
		<path fill="#E6E7E8" d="M109.884,195.675v25.334c18.049,15.5,100.549,18,111.643,0v-25.431L109.884,195.675z"/>
		
			<line fill="#414042" stroke="#414042" stroke-width="2.1912" stroke-miterlimit="10" x1="110.253" y1="195.648" x2="110.269" y2="225.21"/>
		
			<line fill="#414042" stroke="#414042" stroke-width="2" stroke-miterlimit="10" x1="165.447" y1="208.962" x2="165.464" y2="233.589"/>
		
			<line fill="#414042" stroke="#414042" stroke-width="2.1912" stroke-miterlimit="10" x1="221.521" y1="195.582" x2="221.538" y2="225.144"/>
		<ellipse fill="#414042" cx="221.526" cy="210.942" rx="3.953" ry="6"/>
		<ellipse fill="#414042" cx="165.705" cy="221.974" rx="5.29" ry="6"/>
		<ellipse fill="#414042" cx="110.253" cy="208.962" rx="3.953" ry="6"/>
		<ellipse fill="#3A3A3A" cx="166.274" cy="192.01" rx="57.748" ry="16.952"/>
		<ellipse fill="#6D6E71" cx="166.291" cy="190.962" rx="53.235" ry="12"/>
	</g>
	<g>
		<path fill="#414042" stroke="#414042" stroke-width="0.8925" stroke-miterlimit="10" d="M363.359,151.319
			c-0.213,9.359-21.416,16.191-47.359,15.261c-25.943-0.931-46.803-9.27-46.59-18.629c0.214-9.36,21.418-16.192,47.361-15.263
			C342.715,133.62,363.573,141.96,363.359,151.319z"/>
		<path fill="#E6E7E8" d="M272.121,123.336v25.334c14.376,15.5,80.09,18,88.926,0v-25.431L272.121,123.336z"/>
		
			<line fill="#414042" stroke="#414042" stroke-width="2" stroke-miterlimit="10" x1="316.988" y1="137.32" x2="317.006" y2="161.947"/>
		
			<line fill="#414042" stroke="#414042" stroke-width="2.1912" stroke-miterlimit="10" x1="360.869" y1="123.477" x2="360.886" y2="153.039"/>
		<ellipse fill="#414042" cx="360.874" cy="137.838" rx="3.953" ry="6"/>
		<ellipse fill="#414042" cx="317.247" cy="149.332" rx="5.29" ry="6"/>
		
			<line fill="#414042" stroke="#414042" stroke-width="2.1912" stroke-miterlimit="10" x1="272.121" y1="123.057" x2="272.137" y2="152.618"/>
		<ellipse fill="#414042" cx="272.121" cy="135.37" rx="3.953" ry="6"/>
		<ellipse fill="#414042" cx="316.896" cy="116.806" rx="47.493" ry="20.452"/>
		<ellipse fill="#58595B" cx="317.247" cy="116.103" rx="42.627" ry="16.655"/>
	</g>
	<g>
		<path fill="#414042" stroke="#414042" stroke-width="0.8925" stroke-miterlimit="10" d="M166.121,150.07
			c0.213,9.359,21.416,16.191,47.359,15.261c25.943-0.931,46.803-9.271,46.59-18.629c-0.214-9.36-21.418-16.192-47.361-15.263
			C186.766,132.371,165.907,140.711,166.121,150.07z"/>
		<path fill="#E6E7E8" d="M257.359,122.087v25.334c-14.376,15.5-80.09,18-88.926,0V121.99L257.359,122.087z"/>
		
			<line fill="#414042" stroke="#414042" stroke-width="2" stroke-miterlimit="10" x1="212.492" y1="136.072" x2="212.475" y2="160.699"/>
		
			<line fill="#414042" stroke="#414042" stroke-width="2.1912" stroke-miterlimit="10" x1="168.611" y1="122.228" x2="168.595" y2="151.79"/>
		<ellipse fill="#414042" cx="168.606" cy="136.588" rx="3.953" ry="6"/>
		<ellipse fill="#414042" cx="212.233" cy="148.083" rx="5.29" ry="6"/>
		
			<line fill="#414042" stroke="#414042" stroke-width="2.1912" stroke-miterlimit="10" x1="257.359" y1="121.808" x2="257.344" y2="151.369"/>
		<ellipse fill="#414042" cx="257.359" cy="134.121" rx="3.953" ry="6"/>
		<ellipse fill="#414042" cx="212.584" cy="115.557" rx="47.493" ry="20.452"/>
		<ellipse fill="#58595B" cx="212.234" cy="114.854" rx="42.627" ry="16.655"/>
	</g>
	<g>
		
			<ellipse transform="matrix(-0.9996 0.0285 -0.0285 -0.9996 742.8303 448.4498)" fill="#414042" stroke="#414042" stroke-miterlimit="10" cx="368.214" cy="229.527" rx="58.998" ry="16.952"/>
		<path fill="#E6E7E8" d="M423.786,203.228v25.334c-18.05,15.5-100.55,18-111.643,0v-25.431L423.786,203.228z"/>
		
			<line fill="#414042" stroke="#414042" stroke-width="2.1912" stroke-miterlimit="10" x1="423.417" y1="203.201" x2="423.399" y2="232.763"/>
		
			<line fill="#414042" stroke="#414042" stroke-width="2" stroke-miterlimit="10" x1="368.223" y1="216.515" x2="368.205" y2="241.142"/>
		
			<line fill="#414042" stroke="#414042" stroke-width="2.1912" stroke-miterlimit="10" x1="312.148" y1="203.135" x2="312.131" y2="232.696"/>
		<ellipse fill="#414042" cx="312.143" cy="218.495" rx="3.953" ry="6"/>
		<ellipse fill="#414042" cx="367.964" cy="229.526" rx="5.29" ry="6"/>
		<ellipse fill="#414042" cx="423.417" cy="216.515" rx="3.953" ry="6"/>
		<ellipse fill="#3A3A3A" cx="367.395" cy="199.562" rx="57.749" ry="16.952"/>
		<ellipse fill="#6D6E71" cx="367.378" cy="198.515" rx="53.236" ry="12"/>
	</g>
</g>
</svg>
