<?xml version="1.0" encoding="utf-8"?>
<!-- Generator: Adobe Illustrator 16.0.0, SVG Export Plug-In . SVG Version: 6.00 Build 0)  -->
<!DOCTYPE svg PUBLIC "-//W3C//DTD SVG 1.1//EN" "http://www.w3.org/Graphics/SVG/1.1/DTD/svg11.dtd">
<svg version="1.1" id="Layer_1" xmlns="http://www.w3.org/2000/svg" xmlns:xlink="http://www.w3.org/1999/xlink" x="0px" y="0px"
	 width="200px" height="200px" viewBox="0 0 200 200" style="enable-background:new 0 0 200 200;" xml:space="preserve">
<style type="text/css">
<![CDATA[
	.st0{fill:#FFFFFF;}
	.st1{opacity:0.7;fill:#00A14B;}
]]>
</style>
<ellipse class="st1" cx="99.9" cy="100.4" rx="100.2" ry="100"/>
<g>
	<path class="st0" d="M44.6,77.1h3.2v16.7h-3.2V77.1z"/>
	<path class="st0" d="M51.4,77.1h3.1l7.1,11v-11h3.2v16.7h-3.1l-7.1-10.9v10.9h-3.2V77.1z"/>
	<path class="st0" d="M83.9,80l-2.2,2.1c-1.5-1.6-3.2-2.4-5.1-2.4c-1.6,0-2.9,0.5-4,1.6c-1.1,1.1-1.6,2.4-1.6,4c0,1.1,0.2,2.1,0.7,3
		c0.5,0.9,1.2,1.5,2.1,2c0.9,0.5,1.9,0.7,3,0.7c0.9,0,1.8-0.2,2.5-0.5c0.8-0.3,1.6-1,2.5-1.9l2.2,2.2c-1.2,1.2-2.4,2-3.5,2.5
		c-1.1,0.5-2.4,0.7-3.8,0.7c-2.6,0-4.7-0.8-6.4-2.5c-1.7-1.6-2.5-3.8-2.5-6.3c0-1.7,0.4-3.1,1.1-4.4s1.8-2.3,3.2-3.1
		c1.4-0.8,2.9-1.2,4.5-1.2c1.4,0,2.7,0.3,4,0.9C81.9,78.1,83,78.9,83.9,80z"/>
	<path class="st0" d="M86.7,77.1h3.2v13.7h4.6v3h-7.8V77.1z"/>
	<path class="st0" d="M96.8,77.1h3.2v10.8c0,0.9,0.1,1.6,0.2,2c0.2,0.4,0.4,0.7,0.8,0.9c0.4,0.2,0.8,0.3,1.4,0.3
		c0.6,0,1-0.1,1.4-0.4s0.7-0.6,0.8-1c0.2-0.4,0.2-1.2,0.2-2.3V77.1h3.2V87c0,1.7-0.1,2.8-0.3,3.5s-0.6,1.3-1.1,1.9s-1.1,1.1-1.8,1.3
		s-1.5,0.4-2.4,0.4c-1.2,0-2.3-0.3-3.2-0.8c-0.9-0.6-1.5-1.3-1.9-2.1C97,90.4,96.8,89,96.8,87V77.1z"/>
	<path class="st0" d="M120.6,79.3l-2.4,2.1c-0.8-1.1-1.7-1.7-2.5-1.7c-0.4,0-0.8,0.1-1,0.3s-0.4,0.5-0.4,0.8c0,0.3,0.1,0.5,0.3,0.8
		c0.3,0.3,1,1,2.3,2.1c1.2,1,2,1.7,2.2,1.9c0.6,0.7,1.1,1.3,1.4,1.9c0.3,0.6,0.4,1.2,0.4,1.9c0,1.4-0.5,2.5-1.4,3.4
		s-2.2,1.3-3.7,1.3c-1.2,0-2.2-0.3-3.1-0.9c-0.9-0.6-1.6-1.5-2.3-2.7l2.7-1.6c0.8,1.5,1.7,2.2,2.8,2.2c0.5,0,1-0.2,1.4-0.5
		c0.4-0.3,0.6-0.7,0.6-1.1c0-0.4-0.1-0.8-0.4-1.1c-0.3-0.4-0.9-1-1.9-1.7c-1.8-1.5-3-2.6-3.5-3.4s-0.8-1.6-0.8-2.4
		c0-1.2,0.4-2.1,1.3-3s2-1.2,3.3-1.2c0.8,0,1.6,0.2,2.4,0.6C118.9,77.6,119.7,78.3,120.6,79.3z"/>
	<path class="st0" d="M123.7,77.1h3.2v16.7h-3.2V77.1z"/>
	<path class="st0" d="M129.2,77.1h3.3l4.2,11.9l4.3-11.9h3.3l-6,16.7h-3.1L129.2,77.1z"/>
	<path class="st0" d="M146.8,77.1h9.1v3.1h-6v3h6v3.1h-6v4.4h6v3.1h-9.1V77.1z"/>
	<path class="st0" d="M60,104.9h3.8c2.4,0,4.2,0.3,5.4,0.9c1.2,0.6,2.2,1.6,2.9,2.9c0.8,1.4,1.1,2.9,1.1,4.7c0,1.3-0.2,2.5-0.6,3.5
		c-0.4,1.1-1,2-1.8,2.7s-1.6,1.2-2.4,1.5c-0.9,0.3-2.4,0.4-4.6,0.4H60V104.9z M63.2,108v10.5h1.5c1.5,0,2.5-0.2,3.2-0.5
		s1.2-0.9,1.6-1.7c0.4-0.8,0.6-1.8,0.6-2.9c0-1.8-0.5-3.1-1.5-4.1c-0.9-0.9-2.3-1.3-4.3-1.3H63.2z"/>
	<path class="st0" d="M76.3,104.9h9.1v3.1h-6v3h6v3.1h-6v4.4h6v3.1h-9.1V104.9z"/>
	<path class="st0" d="M97.1,107.2l-2.4,2.1c-0.8-1.1-1.7-1.7-2.5-1.7c-0.4,0-0.8,0.1-1,0.3c-0.3,0.2-0.4,0.5-0.4,0.8
		c0,0.3,0.1,0.5,0.3,0.8c0.3,0.3,1,1,2.3,2.1c1.2,1,1.9,1.7,2.2,1.9c0.6,0.7,1.1,1.3,1.4,1.9c0.3,0.6,0.4,1.2,0.4,1.9
		c0,1.4-0.5,2.5-1.4,3.4c-0.9,0.9-2.2,1.3-3.7,1.3c-1.2,0-2.2-0.3-3.1-0.9c-0.9-0.6-1.6-1.5-2.3-2.7l2.7-1.6
		c0.8,1.5,1.7,2.2,2.8,2.2c0.5,0,1-0.2,1.4-0.5c0.4-0.3,0.6-0.7,0.6-1.1c0-0.4-0.1-0.8-0.4-1.1c-0.3-0.4-0.9-1-1.9-1.7
		c-1.8-1.5-3-2.6-3.5-3.4c-0.5-0.8-0.8-1.6-0.8-2.4c0-1.2,0.4-2.1,1.3-3s2-1.2,3.3-1.2c0.8,0,1.6,0.2,2.4,0.6
		C95.4,105.5,96.3,106.2,97.1,107.2z"/>
	<path class="st0" d="M100.2,104.9h3.2v16.7h-3.2V104.9z"/>
	<path class="st0" d="M122.4,107.7l-2.2,2.2c-1.4-1.5-3.1-2.2-5-2.2c-1.6,0-3,0.5-4.1,1.6s-1.7,2.4-1.7,4c0,1.6,0.6,3,1.7,4.1
		c1.2,1.1,2.6,1.7,4.3,1.7c1.1,0,2-0.2,2.8-0.7c0.8-0.5,1.4-1.2,1.8-2.2h-4.8v-3h8.4l0,0.7c0,1.5-0.4,2.8-1.1,4.2
		c-0.8,1.3-1.7,2.3-2.9,3c-1.2,0.7-2.6,1-4.2,1c-1.7,0-3.3-0.4-4.6-1.1s-2.4-1.8-3.2-3.2c-0.8-1.4-1.2-2.9-1.2-4.5
		c0-2.2,0.7-4.1,2.2-5.8c1.7-1.9,4-2.9,6.8-2.9c1.5,0,2.8,0.3,4.1,0.8C120.3,105.8,121.4,106.6,122.4,107.7z"/>
	<path class="st0" d="M126.5,104.9h3.1l7.1,11v-11h3.2v16.7h-3.1l-7.1-10.9v10.9h-3.2V104.9z"/>
</g>
</svg>
