<?xml version="1.0" encoding="utf-8"?>
<!-- Generator: Adobe Illustrator 16.0.0, SVG Export Plug-In . SVG Version: 6.00 Build 0)  -->
<!DOCTYPE svg PUBLIC "-//W3C//DTD SVG 1.1//EN" "http://www.w3.org/Graphics/SVG/1.1/DTD/svg11.dtd">
<svg version="1.1" id="Layer_1" xmlns="http://www.w3.org/2000/svg" xmlns:xlink="http://www.w3.org/1999/xlink" x="0px" y="0px"
	 width="900px" height="300px" viewBox="0 0 900 300" style="enable-background:new 0 0 900 300;" xml:space="preserve">
<style type="text/css">
<![CDATA[
	.st0{fill:#4AADC0;}
	.st1{font-size:52.8824;}
	.st2{font-family:'HelveticaNeue-Bold';}
	.st3{fill:#FFFFFF;}
	.st4{fill:none;}
	.st5{font-family:'CenturyGothic-Bold';}
	.st6{fill:none;stroke:#4AADC0;stroke-miterlimit:10;}
	.st7{font-size:23.0513;}
]]>
</style>
<line class="st6" x1="1.9" y1="113.7" x2="900.4" y2="113.7"/>
<g>
	<ellipse class="st0" cx="118.7" cy="113.7" rx="116.9" ry="114.6"/>
	<g>
		<path class="st3" d="M159,81.8c-2.9,0-5.2,2.3-5.2,5.1v22.6h-70V86.9c0-2.8-2.3-5.1-5.2-5.1c-2.9,0-5.2,2.3-5.2,5.1v27.7
			c0,2.8,2.3,5.1,5.2,5.1H159c2.9,0,5.2-2.3,5.2-5.1V86.9C164.2,84.1,161.9,81.8,159,81.8z"/>
		<path class="st3" d="M115,93.4c1,1,2.3,1.5,3.7,1.5c1.4,0,2.7-0.5,3.7-1.5l21.1-20.7c2-2,2-5.3,0-7.3c-2-2-5.4-2-7.4,0L124,77.3
			V33.2c0-2.8-2.3-5.1-5.2-5.1c-2.9,0-5.2,2.3-5.2,5.1v44.1l-12.2-11.9c-2-2-5.4-2-7.4,0c-2,2-2,5.3,0,7.3L115,93.4z"/>
	</g>
	<rect x="43.4" y="137.4" class="st4" width="150.8" height="50.2"/>
	<text transform="matrix(1.02 0 0 1 48.2017 153.8994)"><tspan x="0" y="0" class="st3 st2 st7">DOWNLOAD </tspan><tspan x="45.9" y="27.7" class="st3 st2 st7">APP</tspan></text>
</g>
<g>
	<ellipse class="st0" cx="451.1" cy="113.7" rx="116.9" ry="114.6"/>
	<g>
		<path class="st3" d="M496.4,43.3h-21.7V30.7c0-1.4-1.2-2.6-2.6-2.6h-42c-1.4,0-2.6,1.1-2.6,2.6v12.7h-21.7c-2.3,0-4.2,1.8-4.2,4.1
			v48.3c0,2.3,1.9,4.1,4.2,4.1h16.4l-2.6,16.7c-0.1,0.9,0.1,1.8,0.7,2.5c0.6,0.7,1.5,1.1,2.4,1.1h56.6c0,0,0,0,0,0
			c1.7,0,3.1-1.4,3.1-3.1c0-0.3,0-0.6-0.1-0.8L480,99.8h16.4c2.3,0,4.2-1.8,4.2-4.1V47.4C500.6,45.2,498.7,43.3,496.4,43.3z
			 M432.8,33.2h36.7v10.1h-36.7V33.2z M426.5,113.9l4.3-27.5h40.8l4.3,27.5H426.5z M492.2,91.6h-13.5l-1.4-8.7
			c-0.2-1.5-1.6-2.6-3.1-2.6h-46.1c-1.6,0-2.9,1.1-3.1,2.6l-1.4,8.7h-13.5V51.5h82.1V91.6z"/>
		<path class="st3" d="M424.5,65.2h10.1c1.7,0,3.1-1.4,3.1-3.1c0-1.7-1.4-3.1-3.1-3.1h-10.1c-1.7,0-3.1,1.4-3.1,3.1
			C421.4,63.9,422.8,65.2,424.5,65.2z"/>
	</g>
	<rect x="375.8" y="137.4" class="st4" width="150.8" height="50.2"/>
	<text transform="matrix(1.02 0 0 1 415.4365 153.8994)"><tspan x="0" y="0" class="st3 st2 st7">PRINT </tspan><tspan x="-23.1" y="27.7" class="st3 st2 st7">STICKERS</tspan></text>
</g>
<g>
	<ellipse class="st0" cx="783.5" cy="113.7" rx="116.9" ry="114.6"/>
	<path class="st3" d="M763.3,113.3c-0.6,0-1.2-0.1-1.8-0.4c-1.4-0.7-2.4-2.1-2.4-3.7V38.9c0-1.6,0.9-3,2.4-3.7
		c1.4-0.7,3.2-0.5,4.4,0.5l45.3,35.1c1,0.8,1.6,2,1.6,3.2c0,1.3-0.6,2.4-1.6,3.2l-45.3,35.1C765.2,113,764.2,113.3,763.3,113.3z
		 M767.5,47.4v53.3l34.4-26.6L767.5,47.4z"/>
	<rect x="708.1" y="137.4" class="st4" width="150.8" height="50.2"/>
	<text id="START_PLAYING_x21_" transform="matrix(1.02 0 0 1 744.9697 153.8994)"><tspan x="0" y="0" class="st3 st2 st7">START</tspan><tspan x="-16.2" y="27.7" class="st3 st2 st7">PLAYING!</tspan></text>
</g>
<text transform="matrix(1.0017 0 0 1 100.7676 288.2188)" class="st0 st5 st1">1.</text>
<text transform="matrix(1.0017 0 0 1 429.6035 288.2188)" class="st0 st5 st1">2.</text>
<text transform="matrix(1.0017 0 0 1 766.0469 288.2188)" class="st0 st5 st1">3.</text>
</svg>
