<?xml version="1.0" encoding="utf-8"?>
<!-- Generator: Adobe Illustrator 16.0.0, SVG Export Plug-In . SVG Version: 6.00 Build 0)  -->
<!DOCTYPE svg PUBLIC "-//W3C//DTD SVG 1.1//EN" "http://www.w3.org/Graphics/SVG/1.1/DTD/svg11.dtd">
<svg version="1.1" id="Layer_1" xmlns="http://www.w3.org/2000/svg" xmlns:xlink="http://www.w3.org/1999/xlink" x="0px" y="0px"
	 width="600px" height="200px" viewBox="0 0 600 200" style="enable-background:new 0 0 600 200;" xml:space="preserve">
<style type="text/css">
<![CDATA[
	.st0{fill:#4AADC0;}
	.st1{fill:#FFFFFF;}
	.st2{fill:none;stroke:#4AADC0;stroke-miterlimit:10;}
]]>
</style>
<line class="st2" x1="1" y1="76.5" x2="600.1" y2="76.5"/>
<ellipse class="st0" cx="78.9" cy="76.5" rx="77.9" ry="75.7"/>
<g>
	<path class="st1" d="M105.8,55.4c-1.9,0-3.5,1.5-3.5,3.4v14.9H55.6V58.8c0-1.9-1.6-3.4-3.5-3.4s-3.5,1.5-3.5,3.4v18.3
		c0,1.9,1.6,3.4,3.5,3.4h53.7c1.9,0,3.5-1.5,3.5-3.4V58.8C109.3,56.9,107.7,55.4,105.8,55.4z"/>
	<path class="st1" d="M76.5,63.1c0.7,0.6,1.5,1,2.5,1c0.9,0,1.8-0.4,2.5-1l14.1-13.7c1.4-1.3,1.4-3.5,0-4.8c-1.4-1.3-3.6-1.3-4.9,0
		l-8.1,7.9V23.3c0-1.9-1.6-3.4-3.5-3.4c-1.9,0-3.5,1.5-3.5,3.4v29.1l-8.1-7.9c-1.4-1.3-3.6-1.3-4.9,0c-1.4,1.3-1.4,3.5,0,4.8
		L76.5,63.1z"/>
</g>
<g>
	<path class="st1" d="M37.8,92.2c0.7,0,1.4,0.1,2,0.3c0.6,0.2,1.2,0.6,1.6,1c0.5,0.4,0.8,1,1.1,1.7c0.3,0.7,0.4,1.5,0.4,2.4
		c0,0.8-0.1,1.5-0.3,2.2c-0.2,0.7-0.5,1.2-0.9,1.7s-1,0.9-1.6,1.2c-0.6,0.3-1.4,0.4-2.2,0.4H33V92.2H37.8z M37.6,101.1
		c0.4,0,0.7-0.1,1-0.2c0.3-0.1,0.6-0.3,0.9-0.6c0.3-0.3,0.5-0.6,0.6-1c0.2-0.4,0.2-0.9,0.2-1.5c0-0.5-0.1-1-0.2-1.5
		c-0.1-0.4-0.3-0.8-0.5-1.1c-0.3-0.3-0.6-0.6-1-0.7c-0.4-0.2-0.9-0.3-1.5-0.3h-1.8v6.9H37.6z"/>
	<path class="st1" d="M44.5,95.4c0.3-0.7,0.6-1.3,1.1-1.8c0.5-0.5,1-0.9,1.7-1.2s1.5-0.4,2.3-0.4c0.9,0,1.6,0.1,2.3,0.4
		c0.7,0.3,1.3,0.7,1.7,1.2s0.8,1.1,1.1,1.8c0.3,0.7,0.4,1.5,0.4,2.3c0,0.8-0.1,1.5-0.4,2.2c-0.3,0.7-0.6,1.3-1.1,1.8s-1,0.9-1.7,1.2
		c-0.7,0.3-1.5,0.4-2.3,0.4c-0.9,0-1.6-0.1-2.3-0.4s-1.3-0.7-1.7-1.2c-0.5-0.5-0.8-1.1-1.1-1.8c-0.3-0.7-0.4-1.4-0.4-2.2
		C44.1,96.9,44.2,96.1,44.5,95.4z M46.7,99c0.1,0.4,0.3,0.8,0.5,1.2c0.2,0.3,0.6,0.6,0.9,0.8c0.4,0.2,0.9,0.3,1.4,0.3
		c0.6,0,1-0.1,1.4-0.3s0.7-0.5,0.9-0.8c0.2-0.3,0.4-0.7,0.5-1.2c0.1-0.4,0.2-0.9,0.2-1.3c0-0.5-0.1-0.9-0.2-1.4
		c-0.1-0.4-0.3-0.8-0.5-1.2c-0.2-0.4-0.6-0.6-0.9-0.8S50.2,94,49.6,94c-0.6,0-1,0.1-1.4,0.3c-0.4,0.2-0.7,0.5-0.9,0.8
		c-0.2,0.4-0.4,0.7-0.5,1.2c-0.1,0.4-0.2,0.9-0.2,1.4C46.6,98.2,46.6,98.6,46.7,99z"/>
	<path class="st1" d="M65,103.1l-1.9-7.4h0l-1.9,7.4h-2.5l-3-10.9h2.5l1.8,7.4h0l1.9-7.4h2.3l1.9,7.5h0l1.8-7.5h2.4l-3,10.9H65z"/>
	<path class="st1" d="M74,92.2l4.7,7.3h0v-7.3H81v10.9h-2.5l-4.7-7.3h0v7.3h-2.3V92.2H74z"/>
	<path class="st1" d="M85.7,92.2v8.9h5.5v2h-7.9V92.2H85.7z"/>
	<path class="st1" d="M92.4,95.4c0.3-0.7,0.6-1.3,1.1-1.8c0.5-0.5,1-0.9,1.7-1.2s1.5-0.4,2.3-0.4c0.9,0,1.6,0.1,2.3,0.4
		c0.7,0.3,1.3,0.7,1.7,1.2s0.8,1.1,1.1,1.8c0.3,0.7,0.4,1.5,0.4,2.3c0,0.8-0.1,1.5-0.4,2.2c-0.3,0.7-0.6,1.3-1.1,1.8s-1,0.9-1.7,1.2
		c-0.7,0.3-1.5,0.4-2.3,0.4c-0.9,0-1.6-0.1-2.3-0.4s-1.3-0.7-1.7-1.2c-0.5-0.5-0.8-1.1-1.1-1.8c-0.3-0.7-0.4-1.4-0.4-2.2
		C92,96.9,92.1,96.1,92.4,95.4z M94.6,99c0.1,0.4,0.3,0.8,0.5,1.2c0.2,0.3,0.6,0.6,0.9,0.8c0.4,0.2,0.9,0.3,1.4,0.3
		c0.6,0,1-0.1,1.4-0.3s0.7-0.5,0.9-0.8c0.2-0.3,0.4-0.7,0.5-1.2c0.1-0.4,0.2-0.9,0.2-1.3c0-0.5-0.1-0.9-0.2-1.4
		c-0.1-0.4-0.3-0.8-0.5-1.2c-0.2-0.4-0.6-0.6-0.9-0.8S98.1,94,97.5,94c-0.6,0-1,0.1-1.4,0.3c-0.4,0.2-0.7,0.5-0.9,0.8
		c-0.2,0.4-0.4,0.7-0.5,1.2c-0.1,0.4-0.2,0.9-0.2,1.4C94.5,98.2,94.5,98.6,94.6,99z"/>
	<path class="st1" d="M110.3,92.2l4.2,10.9h-2.6l-0.8-2.4h-4.2l-0.9,2.4h-2.5l4.2-10.9H110.3z M110.4,98.9l-1.4-4h0l-1.5,4H110.4z"
		/>
	<path class="st1" d="M120.3,92.2c0.7,0,1.4,0.1,2,0.3c0.6,0.2,1.2,0.6,1.6,1c0.5,0.4,0.8,1,1.1,1.7c0.3,0.7,0.4,1.5,0.4,2.4
		c0,0.8-0.1,1.5-0.3,2.2c-0.2,0.7-0.5,1.2-0.9,1.7s-1,0.9-1.6,1.2c-0.6,0.3-1.4,0.4-2.2,0.4h-4.8V92.2H120.3z M120.1,101.1
		c0.4,0,0.7-0.1,1-0.2c0.3-0.1,0.6-0.3,0.9-0.6c0.3-0.3,0.5-0.6,0.6-1c0.2-0.4,0.2-0.9,0.2-1.5c0-0.5-0.1-1-0.2-1.5
		c-0.1-0.4-0.3-0.8-0.5-1.1c-0.3-0.3-0.6-0.6-1-0.7c-0.4-0.2-0.9-0.3-1.5-0.3h-1.8v6.9H120.1z"/>
	<path class="st1" d="M69.8,110.5l4.2,10.9h-2.6l-0.8-2.4h-4.2l-0.9,2.4H63l4.2-10.9H69.8z M69.9,117.2l-1.4-4h0l-1.5,4H69.9z"/>
	<path class="st1" d="M80,110.5c0.7,0,1.3,0.1,1.8,0.3s0.9,0.5,1.2,0.8c0.3,0.3,0.5,0.7,0.7,1.1c0.1,0.4,0.2,0.8,0.2,1.3
		c0,0.4-0.1,0.9-0.2,1.3c-0.1,0.4-0.4,0.8-0.7,1.1c-0.3,0.3-0.7,0.6-1.2,0.8c-0.5,0.2-1.1,0.3-1.8,0.3h-2.6v3.9h-2.5v-10.9H80z
		 M79.3,115.6c0.3,0,0.6,0,0.8-0.1c0.3,0,0.5-0.1,0.7-0.2c0.2-0.1,0.4-0.3,0.5-0.5c0.1-0.2,0.2-0.5,0.2-0.8c0-0.3-0.1-0.6-0.2-0.8
		c-0.1-0.2-0.3-0.4-0.5-0.5c-0.2-0.1-0.4-0.2-0.7-0.2c-0.3,0-0.5-0.1-0.8-0.1h-1.9v3.3H79.3z"/>
	<path class="st1" d="M90.4,110.5c0.7,0,1.3,0.1,1.8,0.3s0.9,0.5,1.2,0.8c0.3,0.3,0.5,0.7,0.7,1.1c0.1,0.4,0.2,0.8,0.2,1.3
		c0,0.4-0.1,0.9-0.2,1.3c-0.1,0.4-0.4,0.8-0.7,1.1c-0.3,0.3-0.7,0.6-1.2,0.8c-0.5,0.2-1.1,0.3-1.8,0.3h-2.6v3.9h-2.5v-10.9H90.4z
		 M89.8,115.6c0.3,0,0.6,0,0.8-0.1c0.3,0,0.5-0.1,0.7-0.2c0.2-0.1,0.4-0.3,0.5-0.5c0.1-0.2,0.2-0.5,0.2-0.8c0-0.3-0.1-0.6-0.2-0.8
		c-0.1-0.2-0.3-0.4-0.5-0.5c-0.2-0.1-0.4-0.2-0.7-0.2c-0.3,0-0.5-0.1-0.8-0.1h-1.9v3.3H89.8z"/>
</g>
<ellipse class="st0" cx="300.6" cy="76.5" rx="77.9" ry="75.7"/>
<g>
	<path class="st1" d="M330.7,30h-14.4v-8.4c0-0.9-0.8-1.7-1.7-1.7h-28c-1,0-1.7,0.8-1.7,1.7V30h-14.4c-1.5,0-2.8,1.2-2.8,2.7v31.9
		c0,1.5,1.3,2.7,2.8,2.7h11l-1.7,11c-0.1,0.6,0.1,1.2,0.5,1.6c0.4,0.5,1,0.7,1.6,0.7h37.8c0,0,0,0,0,0c1.2,0,2.1-0.9,2.1-2
		c0-0.2,0-0.4-0.1-0.5l-1.7-10.8h11c1.5,0,2.8-1.2,2.8-2.7V32.7C333.5,31.2,332.3,30,330.7,30z M288.3,23.3h24.5V30h-24.5V23.3z
		 M284.1,76.6l2.9-18.1h27.2l2.9,18.1H284.1z M328,61.9h-9l-0.9-5.8c-0.2-1-1-1.7-2.1-1.7h-30.8c-1,0-1.9,0.7-2.1,1.7l-0.9,5.8h-9
		V35.4H328V61.9z"/>
	<path class="st1" d="M282.8,44.5h6.8c1.2,0,2.1-0.9,2.1-2c0-1.1-0.9-2-2.1-2h-6.8c-1.2,0-2.1,0.9-2.1,2
		C280.7,43.6,281.7,44.5,282.8,44.5z"/>
</g>
<g>
	<path class="st1" d="M282.9,92.2c0.7,0,1.3,0.1,1.8,0.3s0.9,0.5,1.2,0.8c0.3,0.3,0.5,0.7,0.7,1.1s0.2,0.8,0.2,1.3
		c0,0.4-0.1,0.9-0.2,1.3c-0.1,0.4-0.4,0.8-0.7,1.1c-0.3,0.3-0.7,0.6-1.2,0.8s-1.1,0.3-1.8,0.3h-2.6v3.9h-2.5V92.2H282.9z
		 M282.2,97.3c0.3,0,0.6,0,0.8-0.1c0.3,0,0.5-0.1,0.7-0.2c0.2-0.1,0.4-0.3,0.5-0.5s0.2-0.5,0.2-0.8c0-0.3-0.1-0.6-0.2-0.8
		s-0.3-0.4-0.5-0.5c-0.2-0.1-0.4-0.2-0.7-0.2c-0.3,0-0.5-0.1-0.8-0.1h-1.9v3.3H282.2z"/>
	<path class="st1" d="M294.3,92.2c0.5,0,1,0.1,1.4,0.2c0.4,0.2,0.7,0.4,1,0.6c0.3,0.3,0.5,0.6,0.7,1c0.2,0.4,0.2,0.7,0.2,1.2
		c0,0.6-0.1,1.2-0.4,1.7c-0.3,0.5-0.7,0.8-1.4,1.1v0c0.3,0.1,0.6,0.2,0.8,0.4c0.2,0.2,0.4,0.4,0.5,0.6c0.1,0.2,0.2,0.5,0.3,0.8
		c0.1,0.3,0.1,0.5,0.1,0.8c0,0.2,0,0.4,0,0.6c0,0.2,0,0.5,0.1,0.7c0,0.2,0.1,0.5,0.1,0.7c0.1,0.2,0.1,0.4,0.3,0.6h-2.5
		c-0.1-0.3-0.2-0.8-0.3-1.2s-0.1-0.9-0.1-1.4c-0.1-0.6-0.3-1-0.5-1.2s-0.7-0.4-1.3-0.4h-2.5v4.3h-2.5V92.2H294.3z M293.5,97.1
		c0.6,0,1-0.1,1.3-0.4c0.3-0.2,0.4-0.6,0.4-1.2c0-0.5-0.1-0.9-0.4-1.2s-0.7-0.4-1.3-0.4h-2.7v3.1H293.5z"/>
	<path class="st1" d="M302.1,92.2v10.9h-2.5V92.2H302.1z"/>
	<path class="st1" d="M306.7,92.2l4.7,7.3h0v-7.3h2.3v10.9h-2.5l-4.7-7.3h0v7.3h-2.3V92.2H306.7z"/>
	<path class="st1" d="M315,94.2v-2h9.2v2h-3.4v8.9h-2.5v-8.9H315z"/>
	<path class="st1" d="M264,118.7c0.1,0.3,0.3,0.5,0.5,0.6c0.2,0.2,0.5,0.3,0.8,0.4s0.6,0.1,0.9,0.1c0.2,0,0.5,0,0.7-0.1
		c0.3,0,0.5-0.1,0.7-0.2c0.2-0.1,0.4-0.2,0.5-0.4c0.1-0.2,0.2-0.4,0.2-0.7c0-0.3-0.1-0.5-0.3-0.7c-0.2-0.2-0.4-0.3-0.8-0.5
		c-0.3-0.1-0.7-0.2-1.1-0.3c-0.4-0.1-0.8-0.2-1.2-0.3c-0.4-0.1-0.8-0.2-1.2-0.4c-0.4-0.1-0.8-0.3-1.1-0.6c-0.3-0.2-0.6-0.5-0.8-0.9
		c-0.2-0.3-0.3-0.8-0.3-1.3c0-0.6,0.1-1,0.4-1.5c0.2-0.4,0.6-0.8,1-1c0.4-0.3,0.8-0.5,1.3-0.6c0.5-0.1,1-0.2,1.5-0.2
		c0.6,0,1.1,0.1,1.7,0.2c0.5,0.1,1,0.3,1.4,0.6c0.4,0.3,0.8,0.6,1,1.1c0.2,0.4,0.4,1,0.4,1.6h-2.4c0-0.3-0.1-0.6-0.2-0.8
		c-0.1-0.2-0.3-0.4-0.5-0.5s-0.4-0.2-0.7-0.3c-0.3-0.1-0.5-0.1-0.8-0.1c-0.2,0-0.4,0-0.6,0.1c-0.2,0-0.4,0.1-0.5,0.2
		c-0.2,0.1-0.3,0.2-0.4,0.4s-0.2,0.3-0.2,0.6c0,0.2,0,0.4,0.1,0.5c0.1,0.1,0.2,0.3,0.5,0.4c0.2,0.1,0.6,0.2,1,0.3
		c0.4,0.1,1,0.3,1.7,0.4c0.2,0,0.5,0.1,0.9,0.2s0.7,0.3,1.1,0.5c0.4,0.2,0.7,0.5,0.9,0.9c0.3,0.4,0.4,0.9,0.4,1.5
		c0,0.5-0.1,1-0.3,1.4s-0.5,0.8-0.9,1.1c-0.4,0.3-0.9,0.6-1.5,0.7c-0.6,0.2-1.3,0.3-2,0.3c-0.6,0-1.2-0.1-1.8-0.2
		c-0.6-0.1-1.1-0.4-1.5-0.7c-0.4-0.3-0.8-0.7-1.1-1.2s-0.4-1.1-0.4-1.7h2.4C263.8,118.1,263.9,118.4,264,118.7z"/>
	<path class="st1" d="M271.5,112.5v-2h9.2v2h-3.4v8.9h-2.5v-8.9H271.5z"/>
	<path class="st1" d="M284.4,110.5v10.9h-2.5v-10.9H284.4z"/>
	<path class="st1" d="M293.7,113.4c-0.1-0.2-0.3-0.4-0.5-0.6c-0.2-0.2-0.5-0.3-0.7-0.4c-0.3-0.1-0.6-0.1-0.9-0.1
		c-0.6,0-1,0.1-1.4,0.3c-0.4,0.2-0.7,0.5-0.9,0.8c-0.2,0.4-0.4,0.7-0.5,1.2c-0.1,0.4-0.2,0.9-0.2,1.4c0,0.5,0.1,0.9,0.2,1.3
		c0.1,0.4,0.3,0.8,0.5,1.2c0.2,0.3,0.6,0.6,0.9,0.8c0.4,0.2,0.9,0.3,1.4,0.3c0.8,0,1.3-0.2,1.8-0.7c0.4-0.4,0.7-1,0.8-1.8h2.4
		c-0.1,0.7-0.2,1.3-0.5,1.8c-0.3,0.5-0.6,1-1,1.4c-0.4,0.4-0.9,0.7-1.5,0.9c-0.6,0.2-1.2,0.3-1.9,0.3c-0.9,0-1.6-0.1-2.3-0.4
		s-1.3-0.7-1.7-1.2c-0.5-0.5-0.8-1.1-1.1-1.8s-0.4-1.4-0.4-2.2c0-0.8,0.1-1.6,0.4-2.3c0.3-0.7,0.6-1.3,1.1-1.8
		c0.5-0.5,1-0.9,1.7-1.2s1.5-0.4,2.3-0.4c0.6,0,1.2,0.1,1.7,0.3s1,0.4,1.5,0.8s0.8,0.7,1.1,1.2s0.5,1,0.5,1.7H294
		C294,113.9,293.9,113.6,293.7,113.4z"/>
	<path class="st1" d="M300.6,110.5v4.5l4.4-4.5h3.1l-4.4,4.3l4.8,6.6h-3.1l-3.4-4.9l-1.4,1.4v3.5h-2.5v-10.9H300.6z"/>
	<path class="st1" d="M317.9,110.5v2h-5.9v2.3h5.4v1.9h-5.4v2.7h6v2h-8.5v-10.9H317.9z"/>
	<path class="st1" d="M325.7,110.5c0.5,0,1,0.1,1.4,0.2c0.4,0.2,0.7,0.4,1,0.6c0.3,0.3,0.5,0.6,0.7,1c0.2,0.4,0.2,0.7,0.2,1.2
		c0,0.6-0.1,1.2-0.4,1.7c-0.3,0.5-0.7,0.8-1.4,1.1v0c0.3,0.1,0.6,0.2,0.8,0.4c0.2,0.2,0.4,0.4,0.5,0.6c0.1,0.2,0.2,0.5,0.3,0.8
		c0.1,0.3,0.1,0.5,0.1,0.8c0,0.2,0,0.4,0,0.6c0,0.2,0,0.5,0.1,0.7c0,0.2,0.1,0.5,0.1,0.7c0.1,0.2,0.1,0.4,0.3,0.6h-2.5
		c-0.1-0.3-0.2-0.8-0.3-1.2s-0.1-0.9-0.1-1.4c-0.1-0.6-0.3-1-0.5-1.2c-0.3-0.3-0.7-0.4-1.3-0.4h-2.5v4.3h-2.5v-10.9H325.7z
		 M324.8,115.4c0.6,0,1-0.1,1.3-0.4s0.4-0.6,0.4-1.2c0-0.5-0.1-0.9-0.4-1.2s-0.7-0.4-1.3-0.4h-2.7v3.1H324.8z"/>
	<path class="st1" d="M332.8,118.7c0.1,0.3,0.3,0.5,0.5,0.6s0.5,0.3,0.8,0.4c0.3,0.1,0.6,0.1,0.9,0.1c0.2,0,0.5,0,0.7-0.1
		c0.3,0,0.5-0.1,0.7-0.2c0.2-0.1,0.4-0.2,0.5-0.4c0.1-0.2,0.2-0.4,0.2-0.7c0-0.3-0.1-0.5-0.3-0.7s-0.4-0.3-0.8-0.5
		c-0.3-0.1-0.7-0.2-1.1-0.3c-0.4-0.1-0.8-0.2-1.2-0.3c-0.4-0.1-0.8-0.2-1.2-0.4s-0.8-0.3-1.1-0.6c-0.3-0.2-0.6-0.5-0.8-0.9
		c-0.2-0.3-0.3-0.8-0.3-1.3c0-0.6,0.1-1,0.4-1.5c0.2-0.4,0.6-0.8,1-1c0.4-0.3,0.8-0.5,1.3-0.6c0.5-0.1,1-0.2,1.5-0.2
		c0.6,0,1.1,0.1,1.7,0.2c0.5,0.1,1,0.3,1.4,0.6c0.4,0.3,0.8,0.6,1,1.1c0.2,0.4,0.4,1,0.4,1.6h-2.4c0-0.3-0.1-0.6-0.2-0.8
		c-0.1-0.2-0.3-0.4-0.5-0.5s-0.4-0.2-0.7-0.3c-0.3-0.1-0.5-0.1-0.8-0.1c-0.2,0-0.4,0-0.6,0.1c-0.2,0-0.4,0.1-0.5,0.2
		s-0.3,0.2-0.4,0.4s-0.2,0.3-0.2,0.6c0,0.2,0,0.4,0.1,0.5c0.1,0.1,0.2,0.3,0.5,0.4c0.2,0.1,0.6,0.2,1,0.3c0.4,0.1,1,0.3,1.7,0.4
		c0.2,0,0.5,0.1,0.9,0.2c0.4,0.1,0.7,0.3,1.1,0.5c0.4,0.2,0.7,0.5,0.9,0.9c0.3,0.4,0.4,0.9,0.4,1.5c0,0.5-0.1,1-0.3,1.4
		s-0.5,0.8-0.9,1.1c-0.4,0.3-0.9,0.6-1.5,0.7c-0.6,0.2-1.3,0.3-2,0.3c-0.6,0-1.2-0.1-1.8-0.2c-0.6-0.1-1.1-0.4-1.5-0.7
		c-0.4-0.3-0.8-0.7-1.1-1.2c-0.3-0.5-0.4-1.1-0.4-1.7h2.4C332.6,118.1,332.7,118.4,332.8,118.7z"/>
</g>
<ellipse class="st0" cx="522.2" cy="76.5" rx="77.9" ry="75.7"/>
<path class="st1" d="M508.7,76.3c-0.4,0-0.8-0.1-1.2-0.3c-1-0.5-1.6-1.4-1.6-2.4V27.1c0-1,0.6-2,1.6-2.4c1-0.5,2.1-0.3,3,0.3
	l30.2,23.2c0.7,0.5,1.1,1.3,1.1,2.1c0,0.8-0.4,1.6-1.1,2.1l-30.2,23.2C510,76.1,509.4,76.3,508.7,76.3z M511.5,32.7v35.2l22.9-17.6
	L511.5,32.7z"/>
<g>
	<path class="st1" d="M500.3,100.4c0.1,0.3,0.3,0.5,0.5,0.6c0.2,0.2,0.5,0.3,0.8,0.4c0.3,0.1,0.6,0.1,0.9,0.1c0.2,0,0.5,0,0.7-0.1
		c0.3,0,0.5-0.1,0.7-0.2c0.2-0.1,0.4-0.2,0.5-0.4s0.2-0.4,0.2-0.7c0-0.3-0.1-0.5-0.3-0.7c-0.2-0.2-0.4-0.3-0.8-0.5
		c-0.3-0.1-0.7-0.2-1.1-0.3c-0.4-0.1-0.8-0.2-1.2-0.3c-0.4-0.1-0.8-0.2-1.2-0.4c-0.4-0.1-0.8-0.3-1.1-0.6c-0.3-0.2-0.6-0.5-0.8-0.9
		c-0.2-0.4-0.3-0.8-0.3-1.3c0-0.6,0.1-1,0.4-1.5c0.2-0.4,0.6-0.8,1-1c0.4-0.3,0.8-0.5,1.3-0.6c0.5-0.1,1-0.2,1.5-0.2
		c0.6,0,1.1,0.1,1.7,0.2s1,0.3,1.4,0.6s0.8,0.6,1,1.1c0.2,0.4,0.4,1,0.4,1.6h-2.4c0-0.3-0.1-0.6-0.2-0.8s-0.3-0.4-0.5-0.5
		c-0.2-0.1-0.4-0.2-0.7-0.3c-0.3-0.1-0.5-0.1-0.8-0.1c-0.2,0-0.4,0-0.6,0.1c-0.2,0-0.4,0.1-0.5,0.2s-0.3,0.2-0.4,0.4
		s-0.2,0.3-0.2,0.6c0,0.2,0,0.4,0.1,0.5c0.1,0.1,0.2,0.3,0.5,0.4c0.2,0.1,0.6,0.2,1,0.3c0.4,0.1,1,0.3,1.7,0.4
		c0.2,0,0.5,0.1,0.9,0.2c0.4,0.1,0.7,0.3,1.1,0.5c0.4,0.2,0.7,0.5,0.9,0.9s0.4,0.9,0.4,1.5c0,0.5-0.1,1-0.3,1.4s-0.5,0.8-0.9,1.1
		c-0.4,0.3-0.9,0.6-1.5,0.7c-0.6,0.2-1.3,0.3-2,0.3c-0.6,0-1.2-0.1-1.8-0.2c-0.6-0.1-1.1-0.4-1.5-0.7c-0.4-0.3-0.8-0.7-1.1-1.2
		c-0.3-0.5-0.4-1.1-0.4-1.7h2.4C500.1,99.8,500.2,100.2,500.3,100.4z"/>
	<path class="st1" d="M507.7,94.2v-2h9.2v2h-3.4v8.9h-2.5v-8.9H507.7z"/>
	<path class="st1" d="M522.3,92.2l4.2,10.9H524l-0.8-2.4h-4.2l-0.9,2.4h-2.5l4.2-10.9H522.3z M522.5,98.9l-1.4-4h0l-1.5,4H522.5z"/>
	<path class="st1" d="M533.5,92.2c0.5,0,1,0.1,1.4,0.2c0.4,0.2,0.7,0.4,1,0.6c0.3,0.3,0.5,0.6,0.7,1c0.2,0.4,0.2,0.7,0.2,1.2
		c0,0.6-0.1,1.2-0.4,1.7c-0.3,0.5-0.7,0.8-1.4,1.1v0c0.3,0.1,0.6,0.2,0.8,0.4c0.2,0.2,0.4,0.4,0.5,0.6c0.1,0.2,0.2,0.5,0.3,0.8
		s0.1,0.5,0.1,0.8c0,0.2,0,0.4,0,0.6c0,0.2,0,0.5,0.1,0.7c0,0.2,0.1,0.5,0.1,0.7c0.1,0.2,0.1,0.4,0.3,0.6h-2.5
		c-0.1-0.3-0.2-0.8-0.3-1.2s-0.1-0.9-0.1-1.4c-0.1-0.6-0.3-1-0.5-1.2c-0.3-0.3-0.7-0.4-1.3-0.4H530v4.3h-2.5V92.2H533.5z
		 M532.7,97.1c0.6,0,1-0.1,1.3-0.4c0.3-0.2,0.4-0.6,0.4-1.2c0-0.5-0.1-0.9-0.4-1.2s-0.7-0.4-1.3-0.4H530v3.1H532.7z"/>
	<path class="st1" d="M537.7,94.2v-2h9.2v2h-3.4v8.9H541v-8.9H537.7z"/>
	<path class="st1" d="M492.2,110.5c0.7,0,1.3,0.1,1.8,0.3c0.5,0.2,0.9,0.5,1.2,0.8c0.3,0.3,0.5,0.7,0.7,1.1c0.1,0.4,0.2,0.8,0.2,1.3
		c0,0.4-0.1,0.9-0.2,1.3c-0.1,0.4-0.4,0.8-0.7,1.1c-0.3,0.3-0.7,0.6-1.2,0.8c-0.5,0.2-1.1,0.3-1.8,0.3h-2.6v3.9h-2.5v-10.9H492.2z
		 M491.5,115.6c0.3,0,0.6,0,0.8-0.1c0.3,0,0.5-0.1,0.7-0.2c0.2-0.1,0.4-0.3,0.5-0.5c0.1-0.2,0.2-0.5,0.2-0.8c0-0.3-0.1-0.6-0.2-0.8
		c-0.1-0.2-0.3-0.4-0.5-0.5c-0.2-0.1-0.4-0.2-0.7-0.2c-0.3,0-0.5-0.1-0.8-0.1h-1.9v3.3H491.5z"/>
	<path class="st1" d="M500.1,110.5v8.9h5.5v2h-7.9v-10.9H500.1z"/>
	<path class="st1" d="M512.5,110.5l4.2,10.9h-2.6l-0.8-2.4h-4.2l-0.9,2.4h-2.5l4.2-10.9H512.5z M512.6,117.2l-1.4-4h0l-1.5,4H512.6z
		"/>
	<path class="st1" d="M515.3,110.5h2.8l2.6,4.3l2.6-4.3h2.7l-4.2,6.7v4.2h-2.5v-4.2L515.3,110.5z"/>
	<path class="st1" d="M529.4,110.5v10.9h-2.5v-10.9H529.4z"/>
	<path class="st1" d="M534,110.5l4.7,7.3h0v-7.3h2.3v10.9h-2.5l-4.7-7.3h0v7.3h-2.3v-10.9H534z"/>
	<path class="st1" d="M549.8,121.3c-0.5,0.2-1.1,0.3-1.6,0.3c-0.9,0-1.6-0.1-2.3-0.4s-1.3-0.7-1.7-1.2c-0.5-0.5-0.8-1.1-1.1-1.8
		c-0.2-0.7-0.4-1.4-0.4-2.2c0-0.8,0.1-1.6,0.4-2.3c0.3-0.7,0.6-1.3,1.1-1.8c0.5-0.5,1-0.9,1.7-1.2s1.5-0.4,2.3-0.4
		c0.6,0,1.1,0.1,1.7,0.3c0.5,0.2,1,0.4,1.5,0.7s0.8,0.7,1.1,1.2s0.5,1,0.5,1.6h-2.4c-0.1-0.6-0.4-1.1-0.8-1.4
		c-0.4-0.3-0.9-0.5-1.5-0.5c-0.6,0-1,0.1-1.4,0.3s-0.7,0.5-0.9,0.8s-0.4,0.7-0.5,1.2c-0.1,0.4-0.2,0.9-0.2,1.4
		c0,0.5,0.1,0.9,0.2,1.3c0.1,0.4,0.3,0.8,0.5,1.2c0.2,0.3,0.6,0.6,0.9,0.8s0.9,0.3,1.4,0.3c0.8,0,1.4-0.2,1.9-0.6
		c0.4-0.4,0.7-1,0.8-1.7h-2.5v-1.8h4.7v5.9h-1.6l-0.3-1.2C550.8,120.7,550.3,121.1,549.8,121.3z"/>
	<path class="st1" d="M557.4,119v2.3h-2.5V119H557.4z M556.7,118.1h-1.1l-0.6-4.7v-2.9h2.3v2.9L556.7,118.1z"/>
</g>
<g>
	<path class="st0" d="M72.8,166.8H80v25.1h-4.8v-20.6H70L72.8,166.8z"/>
	<path class="st0" d="M91.7,187c0.7,0,1.4,0.3,1.9,0.8s0.8,1.1,0.8,1.9c0,0.7-0.3,1.4-0.8,1.9c-0.5,0.5-1.2,0.8-1.9,0.8
		s-1.4-0.3-1.9-0.8c-0.5-0.5-0.8-1.2-0.8-1.9c0-0.7,0.3-1.4,0.8-1.9C90.3,187.3,90.9,187,91.7,187z"/>
</g>
<g>
	<path class="st0" d="M292.4,174.9h-4.7c0.1-2.7,1-4.8,2.6-6.4c1.6-1.6,3.6-2.3,6.1-2.3c1.5,0,2.9,0.3,4.1,1
		c1.2,0.6,2.1,1.6,2.8,2.8s1.1,2.4,1.1,3.7c0,1.5-0.4,3.1-1.3,4.8c-0.9,1.7-2.4,3.7-4.7,6.1l-2.8,3h9v4.4H287v-2.3l7.8-7.9
		c1.9-1.9,3.2-3.4,3.8-4.6c0.6-1.2,0.9-2.2,0.9-3.1c0-1-0.3-1.8-1-2.4c-0.6-0.6-1.5-0.9-2.5-0.9c-1,0-1.9,0.4-2.6,1.1
		C292.8,172.5,292.4,173.6,292.4,174.9z"/>
	<path class="st0" d="M310.9,187c0.7,0,1.4,0.3,1.9,0.8s0.8,1.1,0.8,1.9c0,0.7-0.3,1.4-0.8,1.9c-0.5,0.5-1.2,0.8-1.9,0.8
		c-0.7,0-1.4-0.3-1.9-0.8c-0.5-0.5-0.8-1.2-0.8-1.9c0-0.7,0.3-1.4,0.8-1.9C309.6,187.3,310.2,187,310.9,187z"/>
</g>
<g>
	<path class="st0" d="M517.3,173h-4.6c0.2-1.9,0.9-3.3,2-4.5c1.5-1.6,3.5-2.4,5.8-2.4c2.1,0,3.8,0.7,5.2,2c1.4,1.3,2.1,2.9,2.1,4.7
		c0,1.1-0.3,2.1-0.9,3.1c-0.6,0.9-1.5,1.7-2.7,2.2c1.5,0.5,2.7,1.2,3.6,2.4c0.9,1.1,1.3,2.5,1.3,4c0,2.3-0.8,4.2-2.5,5.7
		c-1.7,1.6-3.8,2.3-6.4,2.3c-2.5,0-4.5-0.7-6-2.2c-1.6-1.5-2.4-3.5-2.6-6h4.8c0.2,1.3,0.7,2.3,1.4,2.9c0.7,0.6,1.6,0.9,2.7,0.9
		c1.1,0,2.1-0.4,2.8-1.1c0.7-0.7,1.1-1.6,1.1-2.6c0-1.1-0.5-2.1-1.5-2.9c-1-0.8-2.4-1.2-4.3-1.2v-4.1c1.2-0.1,2-0.3,2.6-0.5
		c0.6-0.3,1-0.6,1.3-1.1s0.5-1,0.5-1.5c0-0.7-0.2-1.2-0.7-1.7c-0.5-0.4-1.1-0.7-1.9-0.7c-0.7,0-1.3,0.2-1.9,0.6
		S517.5,172.3,517.3,173z"/>
	<path class="st0" d="M535.3,187c0.7,0,1.4,0.3,1.9,0.8s0.8,1.1,0.8,1.9c0,0.7-0.3,1.4-0.8,1.9c-0.5,0.5-1.2,0.8-1.9,0.8
		c-0.7,0-1.4-0.3-1.9-0.8c-0.5-0.5-0.8-1.2-0.8-1.9c0-0.7,0.3-1.4,0.8-1.9C533.9,187.3,534.5,187,535.3,187z"/>
</g>
</svg>
