<?xml version="1.0" encoding="utf-8"?>
<!-- Generator: Adobe Illustrator 16.0.0, SVG Export Plug-In . SVG Version: 6.00 Build 0)  -->
<!DOCTYPE svg PUBLIC "-//W3C//DTD SVG 1.1//EN" "http://www.w3.org/Graphics/SVG/1.1/DTD/svg11.dtd">
<svg version="1.1" xmlns="http://www.w3.org/2000/svg" xmlns:xlink="http://www.w3.org/1999/xlink" x="0px" y="0px" width="876px"
	 height="577px" viewBox="0 0 876 577" style="enable-background:new 0 0 876 577;" xml:space="preserve">
<style type="text/css">
<![CDATA[
	.st0{fill:#414042;stroke:#414042;stroke-width:3.1264;stroke-miterlimit:10;}
	.st1{fill:none;stroke:#E93B4F;stroke-width:2;stroke-miterlimit:10;}
	.st2{fill:#E6E7E8;}
	.st3{fill:url(#SVGID_1_);stroke:#FFFFFF;stroke-width:2;stroke-miterlimit:10;}
	.st4{fill:#E93B4F;}
	.st5{fill-rule:evenodd;clip-rule:evenodd;fill:#414042;}
	.st6{fill:#414042;stroke:#414042;stroke-width:2.8535;stroke-miterlimit:10;}
	.st7{fill:#EA3A4F;}
	.st8{opacity:0.4;fill:#ED1C24;}
	.st9{fill:none;}
	.st10{fill:#414042;stroke:#414042;stroke-width:1.4268;stroke-miterlimit:10;}
	.st11{fill:#6D6E71;}
	.st12{fill:#D1D3D4;}
	.st13{fill:#3A3A3A;}
	.st14{fill-rule:evenodd;clip-rule:evenodd;fill:#6D6E71;}
	.st15{fill:#414042;}
]]>
</style>
<pattern  y="-136" width="48" height="48" patternUnits="userSpaceOnUse" id="_x36__dpi_60_x25_" viewBox="7.2 -55.2 48 48" style="overflow:visible;">
	<g>
		<polygon class="st9" points="7.2,-55.2 55.2,-55.2 55.2,-7.2 7.2,-7.2 		"/>
		<g>
			<polygon points="55.2,-7.2 7.2,-7.2 7.2,-55.2 55.2,-55.2 			"/>
			<g>
				<path class="st7" d="M31.2,0c4,0,7.2-3.2,7.2-7.2s-3.2-7.2-7.2-7.2S24-11.2,24-7.2S27.2,0,31.2,0z"/>
				<path class="st7" d="M55.2,0c4,0,7.2-3.2,7.2-7.2s-3.2-7.2-7.2-7.2S48-11.2,48-7.2S51.2,0,55.2,0z"/>
				<path class="st7" d="M31.2-24c4,0,7.2-3.2,7.2-7.2s-3.2-7.2-7.2-7.2S24-35.2,24-31.2S27.2-24,31.2-24z"/>
				<path class="st7" d="M55.2-24c4,0,7.2-3.2,7.2-7.2s-3.2-7.2-7.2-7.2S48-35.2,48-31.2S51.2-24,55.2-24z"/>
				<path class="st7" d="M43.2-12c4,0,7.2-3.2,7.2-7.2s-3.2-7.2-7.2-7.2S36-23.2,36-19.2S39.2-12,43.2-12z"/>
				<path class="st7" d="M19.2-12c4,0,7.2-3.2,7.2-7.2s-3.2-7.2-7.2-7.2S12-23.2,12-19.2S15.2-12,19.2-12z"/>
				<path class="st7" d="M43.2-36c4,0,7.2-3.2,7.2-7.2s-3.2-7.2-7.2-7.2S36-47.2,36-43.2S39.2-36,43.2-36z"/>
				<path class="st7" d="M19.2-36c4,0,7.2-3.2,7.2-7.2s-3.2-7.2-7.2-7.2S12-47.2,12-43.2S15.2-36,19.2-36z"/>
			</g>
		</g>
		<g>
			<g>
				<path class="st7" d="M7.2,0c4,0,7.2-3.2,7.2-7.2s-3.2-7.2-7.2-7.2S0-11.2,0-7.2S3.2,0,7.2,0z"/>
				<path class="st7" d="M7.2-24c4,0,7.2-3.2,7.2-7.2s-3.2-7.2-7.2-7.2S0-35.2,0-31.2S3.2-24,7.2-24z"/>
			</g>
		</g>
		<g>
			<g>
				<path class="st7" d="M31.2-48c4,0,7.2-3.2,7.2-7.2s-3.2-7.2-7.2-7.2S24-59.2,24-55.2S27.2-48,31.2-48z"/>
				<path class="st7" d="M55.2-48c4,0,7.2-3.2,7.2-7.2s-3.2-7.2-7.2-7.2S48-59.2,48-55.2S51.2-48,55.2-48z"/>
			</g>
		</g>
		<g>
			<g>
				<path class="st7" d="M7.2-48c4,0,7.2-3.2,7.2-7.2s-3.2-7.2-7.2-7.2S0-59.2,0-55.2S3.2-48,7.2-48z"/>
			</g>
		</g>
	</g>
</pattern>
<g id="Layer_2">
	<path class="st12" d="M131.3,147.1c-1.5-2,0.8-9.7,3.4-10.8c17.3-7.2,14.1-80.4-21-80c-63.3,0.7-29,71.4-20,76c8.9,4.5-9,14-9,14
		s-27.9,10-33.8,19.5c-12.8,20.5-11.4,76.6-9.8,101.2c1.2,18.2,4.5,53.8,17.6,65.4c12.8,11.3,59.8,10.9,60,17.8
		c4.3,163.5-3,162.4,0,169c7,15.5,43.2,29.3,60,26.8c6.6-1,16.7-8.3,14-14.4c-2-4.6-23.8-14.8-23.8-14.8s-21.5-12-22.4-17
		c-3.4-19.7,18.5-126.8,22.4-137c1-2.6,8.7-7.2,8.7-7.2s21.9,0.2,28.4,7.2c3.7,3.9,4.4,17.3,5.5,22.5c22.5,105-3.5,96,10.5,106
		c8,5.7,29,12,53.4,14.5c6.7,0.7,16.6-5,10.6-13.5c-3.6-5.1-33.1-11.4-37-23c-3.5-10.4,8.7-104.1,8.7-104.1l-7-35.7l-39-15.6
		l-57-18.6c0,0-3.8-50.1,10.3-47.7c30,5,40.5-19.2,53.7-24.4c6.3-2.5,21.3-0.2,27-4c2.9-1.9,5.8-9.6,5-13c-0.8-3.3-6.6-8.8-10-9
		c-7.1-0.4-19.4,9.2-26,12c-6.1,2.6-19.5,9.4-26,9.1c-3.1-0.1-17.6,3.5-19.8,1.3c-7-7.1-0.1-38.3-4.2-47.4c-2.8-6.2-11.4-17.3-17-21
		C144.8,149.4,133.4,149.9,131.3,147.1z"/>
	<path class="st12" d="M234,208.1c0,0,77.3-81.7,77.3-75.7c0,3.4-77.3,81.7-77.3,81.7V208.1z"/>
</g>
<g id="Layer_1">
	<rect x="240.7" y="340.4" class="st15" width="13.6" height="198.6"/>
	<polygon class="st15" points="185.8,522.2 179.2,517.9 247,450.1 254.3,454.4 	"/>
	<polygon class="st15" points="328.3,538.2 340,538.2 251.2,455.8 244,460.1 	"/>
	<g>
		<path class="st10" d="M331.8,351.3c-0.4,13.4-38.4,23.1-84.8,21.8c-46.5-1.3-83.8-13.2-83.5-26.6c0.4-13.4,38.4-23.1,84.8-21.8
			C294.8,326.1,332.2,338,331.8,351.3z"/>
		<path class="st2" d="M168.3,311.4v36.1c25.8,22.1,143.5,25.7,159.3,0v-36.3L168.3,311.4z"/>
		<line class="st0" x1="168.9" y1="311.4" x2="168.9" y2="353.5"/>
		<line class="st6" x1="247.6" y1="330.3" x2="247.6" y2="365.5"/>
		<line class="st0" x1="327.6" y1="311.3" x2="327.7" y2="353.4"/>
		<ellipse class="st15" cx="327.6" cy="333.2" rx="5.6" ry="8.6"/>
		<ellipse class="st15" cx="248" cy="348.9" rx="7.5" ry="8.6"/>
		<ellipse class="st15" cx="168.9" cy="330.3" rx="5.6" ry="8.6"/>
		<ellipse class="st13" cx="248.8" cy="306.2" rx="82.4" ry="24.2"/>
		<ellipse class="st11" cx="248.8" cy="304.7" rx="76" ry="17.1"/>
	</g>
	<rect x="104.3" y="360.5" class="st12" width="10.5" height="153.4"/>
	<polygon class="st12" points="49.4,513.3 41.1,513.3 109.1,445.2 114.8,448.5 	"/>
	<polygon class="st12" points="171.9,513.3 180.9,513.3 112.4,449.6 106.8,453 	"/>
	<path class="st12" d="M137.1,344.7v-7v-17.2v-2.2c-7-0.8-14.5-1.2-22.4-1.2c-35.1,0-63.6,8.4-63.6,18.7c0,0.8,0.2,1.5,0.5,2.3v24.2
		c-0.5,0.9-0.7,1.7-0.7,2.7c0,1.3,0.4,2.5,1.2,3.7c5.7,8.7,31.8,15.9,63.3,16.8c7.6,0.2,15,0,21.8-0.5v-6.2l11.7-27.3L137.1,344.7z"
		/>
	<g>
		<g>
			<line class="st1" x1="248.8" y1="147" x2="248.8" y2="224.5"/>
			<g>
				<polygon class="st4" points="242,216.6 248.8,223.3 255.6,216.6 255.6,222.3 248.8,229.1 242,222.3 				"/>
			</g>
		</g>
	</g>
	<ellipse class="st8" cx="248.5" cy="256.3" rx="76" ry="17.1"/>
	<ellipse class="st8" cx="249" cy="239.2" rx="76" ry="17.1"/>
	<ellipse class="st8" cx="248.3" cy="192" rx="76" ry="17.1"/>
	<ellipse class="st8" cx="248.7" cy="174.9" rx="76" ry="17.1"/>
	<pattern  id="SVGID_1_" xlink:href="#_x36__dpi_60_x25_" patternTransform="matrix(1 0 0 1 -81.8398 0.3257)">
	</pattern>
	<path class="st3" d="M249,287.3c-42,0-76,7.7-76,17.1c0,9.5,34,17.1,76,17.1c41.9,0,76-7.7,76-17.1
		C324.9,294.9,290.9,287.3,249,287.3z M249,313.6c-32.5,0-58.8-5-58.8-11.1c0-6.2,26.3-11.1,58.8-11.1c32.5,0,58.8,5,58.8,11.1
		C307.8,308.6,281.5,313.6,249,313.6z"/>
	<line class="st1" x1="248.7" y1="224.1" x2="248.7" y2="304.4"/>
	<g>
		<path d="M425.1,58.2c-0.9,0.3-2.8,0.9-5,0.9c-2.4,0-4.5-0.6-6-2.1c-1.4-1.3-2.3-3.5-2.3-6c0-4.8,3.3-8.4,8.8-8.4
			c1.9,0,3.3,0.4,4,0.7l-0.5,1.7c-0.9-0.4-1.9-0.7-3.6-0.7c-3.9,0-6.5,2.4-6.5,6.5c0,4.1,2.5,6.5,6.2,6.5c1.4,0,2.3-0.2,2.8-0.4
			v-4.8h-3.3v-1.7h5.3V58.2z"/>
		<path d="M438.9,53c0,4.3-3,6.2-5.8,6.2c-3.1,0-5.6-2.3-5.6-6c0-3.9,2.5-6.2,5.8-6.2C436.6,47,438.9,49.5,438.9,53z M429.7,53.1
			c0,2.5,1.5,4.5,3.5,4.5c2,0,3.5-1.9,3.5-4.5c0-2-1-4.5-3.5-4.5C430.8,48.6,429.7,50.9,429.7,53.1z"/>
		<path d="M452.1,53c0,4.3-3,6.2-5.8,6.2c-3.1,0-5.6-2.3-5.6-6c0-3.9,2.5-6.2,5.8-6.2C449.8,47,452.1,49.5,452.1,53z M442.8,53.1
			c0,2.5,1.5,4.5,3.5,4.5c2,0,3.5-1.9,3.5-4.5c0-2-1-4.5-3.5-4.5C443.9,48.6,442.8,50.9,442.8,53.1z"/>
		<path d="M464.7,47.3c0,0.8-0.1,1.8-0.1,3.2v6.7c0,2.7-0.5,4.3-1.7,5.3c-1.1,1.1-2.8,1.4-4.2,1.4c-1.4,0-2.9-0.3-3.9-1l0.5-1.6
			c0.8,0.5,2,0.9,3.4,0.9c2.2,0,3.7-1.1,3.7-4.1v-1.3h0c-0.6,1.1-1.9,1.9-3.7,1.9c-2.9,0-4.9-2.4-4.9-5.7c0-3.9,2.6-6.2,5.2-6.2
			c2,0,3.1,1.1,3.6,2h0l0.1-1.8H464.7z M462.6,51.9c0-0.4,0-0.7-0.1-1c-0.4-1.2-1.4-2.2-3-2.2c-2,0-3.5,1.7-3.5,4.4
			c0,2.3,1.2,4.2,3.4,4.2c1.3,0,2.5-0.8,2.9-2.2c0.1-0.4,0.2-0.8,0.2-1.1V51.9z"/>
		<path d="M468.1,41.9h2.1v17h-2.1V41.9z"/>
		<path d="M475,53.5c0,2.9,1.9,4,4,4c1.5,0,2.4-0.3,3.2-0.6l0.4,1.5c-0.7,0.3-2,0.7-3.9,0.7c-3.6,0-5.7-2.4-5.7-5.9
			c0-3.5,2.1-6.3,5.4-6.3c3.8,0,4.8,3.3,4.8,5.5c0,0.4,0,0.8-0.1,1H475z M481.2,52c0-1.3-0.6-3.4-2.9-3.4c-2.1,0-3.1,2-3.2,3.4
			H481.2z"/>
		<path d="M502.3,58.4c-0.8,0.4-2.3,0.8-4.3,0.8c-4.6,0-8-2.9-8-8.2c0-5.1,3.4-8.5,8.4-8.5c2,0,3.3,0.4,3.8,0.7l-0.5,1.7
			c-0.8-0.4-1.9-0.7-3.3-0.7c-3.8,0-6.3,2.4-6.3,6.7c0,4,2.3,6.5,6.2,6.5c1.3,0,2.6-0.3,3.4-0.7L502.3,58.4z"/>
		<path d="M511.1,58.9l-0.2-1.5h-0.1c-0.6,0.9-1.9,1.7-3.6,1.7c-2.4,0-3.6-1.7-3.6-3.3c0-2.8,2.5-4.3,7-4.3v-0.2
			c0-1-0.3-2.7-2.6-2.7c-1.1,0-2.2,0.3-3,0.9l-0.5-1.4c1-0.6,2.4-1,3.8-1c3.6,0,4.4,2.4,4.4,4.8v4.3c0,1,0,2,0.2,2.8H511.1z
			 M510.8,53c-2.3,0-4.9,0.4-4.9,2.6c0,1.4,0.9,2,2,2c1.5,0,2.5-1,2.8-1.9c0.1-0.2,0.1-0.5,0.1-0.7V53z"/>
		<path d="M516.2,50.9c0-1.4,0-2.5-0.1-3.6h1.8l0.1,2.3h0.1c0.5-1.6,1.8-2.5,3.2-2.5c0.2,0,0.4,0,0.6,0.1v2c-0.2,0-0.4-0.1-0.7-0.1
			c-1.5,0-2.5,1.1-2.8,2.7c0,0.3-0.1,0.6-0.1,1v6.2h-2.1V50.9z"/>
		<path d="M533.9,41.9v14c0,1,0,2.2,0.1,3h-1.9l-0.1-2h0c-0.6,1.3-2.1,2.3-4,2.3c-2.8,0-5-2.4-5-5.9c0-3.9,2.4-6.2,5.2-6.2
			c1.8,0,3,0.8,3.5,1.8h0v-6.9H533.9z M531.8,52c0-0.3,0-0.6-0.1-0.9c-0.3-1.3-1.5-2.4-3-2.4c-2.2,0-3.5,1.9-3.5,4.5
			c0,2.4,1.2,4.3,3.4,4.3c1.4,0,2.7-0.9,3.1-2.5c0.1-0.3,0.1-0.6,0.1-0.9V52z"/>
		<path d="M537.3,58.9c0-0.8,0.1-2,0.1-3v-14h2.1v7.3h0c0.7-1.3,2.1-2.1,4-2.1c2.9,0,4.9,2.4,4.9,5.9c0,4.2-2.6,6.2-5.2,6.2
			c-1.7,0-3-0.6-3.9-2.2h-0.1l-0.1,1.9H537.3z M539.5,54.3c0,0.3,0,0.5,0.1,0.8c0.4,1.5,1.6,2.5,3.2,2.5c2.2,0,3.5-1.8,3.5-4.5
			c0-2.3-1.2-4.3-3.5-4.3c-1.4,0-2.8,1-3.2,2.6c0,0.2-0.1,0.5-0.1,0.9V54.3z"/>
		<path d="M561.6,53c0,4.3-3,6.2-5.8,6.2c-3.1,0-5.6-2.3-5.6-6c0-3.9,2.5-6.2,5.8-6.2C559.3,47,561.6,49.5,561.6,53z M552.3,53.1
			c0,2.5,1.5,4.5,3.5,4.5c2,0,3.5-1.9,3.5-4.5c0-2-1-4.5-3.5-4.5C553.4,48.6,552.3,50.9,552.3,53.1z"/>
		<path d="M570.6,58.9l-0.2-1.5h-0.1c-0.6,0.9-1.9,1.7-3.6,1.7c-2.4,0-3.6-1.7-3.6-3.3c0-2.8,2.5-4.3,7-4.3v-0.2
			c0-1-0.3-2.7-2.6-2.7c-1.1,0-2.2,0.3-3,0.9l-0.5-1.4c1-0.6,2.4-1,3.8-1c3.6,0,4.4,2.4,4.4,4.8v4.3c0,1,0,2,0.2,2.8H570.6z
			 M570.3,53c-2.3,0-4.9,0.4-4.9,2.6c0,1.4,0.9,2,2,2c1.5,0,2.5-1,2.8-1.9c0.1-0.2,0.1-0.5,0.1-0.7V53z"/>
		<path d="M575.8,50.9c0-1.4,0-2.5-0.1-3.6h1.8l0.1,2.3h0.1c0.5-1.6,1.8-2.5,3.2-2.5c0.2,0,0.4,0,0.6,0.1v2c-0.2,0-0.4-0.1-0.7-0.1
			c-1.5,0-2.5,1.1-2.8,2.7c0,0.3-0.1,0.6-0.1,1v6.2h-2.1V50.9z"/>
		<path d="M593.4,41.9v14c0,1,0,2.2,0.1,3h-1.9l-0.1-2h0c-0.6,1.3-2.1,2.3-4,2.3c-2.8,0-5-2.4-5-5.9c0-3.9,2.4-6.2,5.2-6.2
			c1.8,0,3,0.8,3.5,1.8h0v-6.9H593.4z M591.3,52c0-0.3,0-0.6-0.1-0.9c-0.3-1.3-1.5-2.4-3-2.4c-2.2,0-3.5,1.9-3.5,4.5
			c0,2.4,1.2,4.3,3.4,4.3c1.4,0,2.7-0.9,3.1-2.5c0.1-0.3,0.1-0.6,0.1-0.9V52z"/>
		<path d="M606.6,42.3c-1.8,2.4-3,5.5-3,9.8c0,4.3,1.3,7.3,3,9.7h-1.7c-1.5-2-3.1-5.1-3.1-9.7c0-4.7,1.6-7.8,3.1-9.8H606.6z"/>
		<path d="M619.3,53c0,4.3-3,6.2-5.8,6.2c-3.1,0-5.6-2.3-5.6-6c0-3.9,2.5-6.2,5.8-6.2C617.1,47,619.3,49.5,619.3,53z M610.1,53.1
			c0,2.5,1.5,4.5,3.5,4.5c2,0,3.5-1.9,3.5-4.5c0-2-1-4.5-3.5-4.5C611.2,48.6,610.1,50.9,610.1,53.1z"/>
		<path d="M622,50.9c0-1.4,0-2.5-0.1-3.6h1.8l0.1,2.3h0.1c0.5-1.6,1.8-2.5,3.2-2.5c0.2,0,0.4,0,0.6,0.1v2c-0.2,0-0.4-0.1-0.7-0.1
			c-1.5,0-2.5,1.1-2.8,2.7c0,0.3-0.1,0.6-0.1,1v6.2H622V50.9z"/>
		<path d="M634.7,56.8c0.6,0.4,1.7,0.8,2.8,0.8c1.5,0,2.3-0.8,2.3-1.7c0-1-0.6-1.6-2.2-2.1c-2.1-0.7-3.1-1.9-3.1-3.3
			c0-1.9,1.5-3.4,4-3.4c1.2,0,2.2,0.3,2.9,0.7l-0.5,1.5c-0.5-0.3-1.3-0.7-2.4-0.7c-1.2,0-1.9,0.7-1.9,1.6c0,1,0.7,1.4,2.2,2
			c2,0.8,3,1.8,3,3.5c0,2-1.6,3.5-4.3,3.5c-1.3,0-2.4-0.3-3.3-0.8L634.7,56.8z"/>
		<path d="M646.8,44c0,0.7-0.5,1.3-1.3,1.3c-0.7,0-1.3-0.6-1.3-1.3c0-0.7,0.6-1.3,1.3-1.3C646.3,42.7,646.8,43.3,646.8,44z
			 M644.4,58.9V47.3h2.1v11.6H644.4z"/>
		<path d="M650.1,50.5c0-1.2,0-2.2-0.1-3.1h1.8l0.1,1.9h0.1c0.6-1.1,1.7-2.1,3.6-2.1c1.6,0,2.8,1,3.3,2.3h0c0.4-0.6,0.8-1.2,1.3-1.5
			c0.7-0.5,1.5-0.8,2.6-0.8c1.5,0,3.8,1,3.8,5v6.8h-2.1v-6.6c0-2.2-0.8-3.6-2.5-3.6c-1.2,0-2.1,0.9-2.5,1.9
			c-0.1,0.3-0.2,0.7-0.2,1.1v7.2h-2.1v-7c0-1.8-0.8-3.2-2.4-3.2c-1.3,0-2.3,1.1-2.6,2.1c-0.1,0.3-0.2,0.7-0.2,1v7h-2.1V50.5z"/>
		<path d="M672.4,44c0,0.7-0.5,1.3-1.3,1.3c-0.7,0-1.3-0.6-1.3-1.3c0-0.7,0.6-1.3,1.3-1.3C671.9,42.7,672.4,43.3,672.4,44z
			 M670.1,58.9V47.3h2.1v11.6H670.1z"/>
		<path d="M675.7,41.9h2.1v17h-2.1V41.9z"/>
		<path d="M687.8,58.9l-0.2-1.5h-0.1c-0.6,0.9-1.9,1.7-3.6,1.7c-2.4,0-3.6-1.7-3.6-3.3c0-2.8,2.5-4.3,7-4.3v-0.2
			c0-1-0.3-2.7-2.6-2.7c-1.1,0-2.2,0.3-3,0.9l-0.5-1.4c1-0.6,2.4-1,3.8-1c3.6,0,4.4,2.4,4.4,4.8v4.3c0,1,0,2,0.2,2.8H687.8z
			 M687.5,53c-2.3,0-4.9,0.4-4.9,2.6c0,1.4,0.9,2,2,2c1.5,0,2.5-1,2.8-1.9c0.1-0.2,0.1-0.5,0.1-0.7V53z"/>
		<path d="M692.9,50.9c0-1.4,0-2.5-0.1-3.6h1.8l0.1,2.3h0.1c0.5-1.6,1.8-2.5,3.2-2.5c0.2,0,0.4,0,0.6,0.1v2c-0.2,0-0.4-0.1-0.7-0.1
			c-1.5,0-2.5,1.1-2.8,2.7c0,0.3-0.1,0.6-0.1,1v6.2h-2.1V50.9z"/>
		<path d="M699.5,61.8c1.7-2.4,3-5.5,3-9.8c0-4.3-1.3-7.4-3-9.7h1.6c1.5,2,3.1,5,3.1,9.8c0,4.7-1.6,7.8-3.1,9.8H699.5z"/>
		<path d="M713.5,47.3l1.5,5.9c0.3,1.3,0.6,2.5,0.9,3.7h0.1c0.3-1.2,0.6-2.4,1-3.7l1.9-5.9h1.8l1.8,5.8c0.4,1.4,0.8,2.6,1,3.8h0.1
			c0.2-1.2,0.5-2.4,0.9-3.8l1.7-5.8h2.1l-3.7,11.6h-1.9l-1.8-5.5c-0.4-1.3-0.7-2.4-1-3.8h0c-0.3,1.4-0.6,2.6-1.1,3.8l-1.9,5.5h-1.9
			l-3.5-11.6H713.5z"/>
		<path d="M732.7,44c0,0.7-0.5,1.3-1.3,1.3c-0.7,0-1.3-0.6-1.3-1.3c0-0.7,0.6-1.3,1.3-1.3C732.2,42.7,732.7,43.3,732.7,44z
			 M730.3,58.9V47.3h2.1v11.6H730.3z"/>
		<path d="M738.5,44v3.3h3v1.6h-3v6.3c0,1.4,0.4,2.3,1.6,2.3c0.6,0,1-0.1,1.2-0.1l0.1,1.6c-0.4,0.2-1.1,0.3-1.9,0.3
			c-1,0-1.8-0.3-2.3-0.9c-0.6-0.6-0.8-1.7-0.8-3v-6.3h-1.8v-1.6h1.8v-2.8L738.5,44z"/>
		<path d="M743.9,41.9h2.1v7.2h0c0.3-0.6,0.9-1.1,1.5-1.5c0.6-0.4,1.4-0.6,2.2-0.6c1.6,0,4.1,1,4.1,5v6.9h-2.1v-6.7
			c0-1.9-0.7-3.5-2.7-3.5c-1.4,0-2.4,1-2.8,2.1c-0.1,0.3-0.1,0.6-0.1,1v7h-2.1V41.9z"/>
		<path d="M768.7,58.9l-0.2-1.5h-0.1c-0.6,0.9-1.9,1.7-3.6,1.7c-2.4,0-3.6-1.7-3.6-3.3c0-2.8,2.5-4.3,7-4.3v-0.2
			c0-1-0.3-2.7-2.6-2.7c-1.1,0-2.2,0.3-3,0.9l-0.5-1.4c1-0.6,2.4-1,3.8-1c3.6,0,4.4,2.4,4.4,4.8v4.3c0,1,0,2,0.2,2.8H768.7z
			 M768.4,53c-2.3,0-4.9,0.4-4.9,2.6c0,1.4,0.9,2,2,2c1.5,0,2.5-1,2.8-1.9c0.1-0.2,0.1-0.5,0.1-0.7V53z"/>
		<path d="M412.5,85.6c0.6,0.4,1.7,0.8,2.8,0.8c1.5,0,2.3-0.8,2.3-1.7c0-1-0.6-1.6-2.2-2.1c-2.1-0.7-3.1-1.9-3.1-3.3
			c0-1.9,1.5-3.4,4-3.4c1.2,0,2.2,0.3,2.9,0.7l-0.5,1.5c-0.5-0.3-1.3-0.7-2.4-0.7c-1.2,0-1.9,0.7-1.9,1.6c0,1,0.7,1.4,2.2,2
			c2,0.8,3,1.8,3,3.5c0,2-1.6,3.5-4.3,3.5c-1.3,0-2.4-0.3-3.3-0.8L412.5,85.6z"/>
		<path d="M422.3,79.3c0-1.2,0-2.2-0.1-3.1h1.8l0.1,1.9h0.1c0.6-1.1,1.7-2.1,3.6-2.1c1.6,0,2.8,1,3.3,2.3h0c0.4-0.6,0.8-1.2,1.3-1.5
			c0.7-0.5,1.5-0.8,2.6-0.8c1.5,0,3.8,1,3.8,5v6.8h-2.1v-6.6c0-2.2-0.8-3.6-2.5-3.6c-1.2,0-2.1,0.9-2.5,1.9
			c-0.1,0.3-0.2,0.7-0.2,1.1v7.2h-2.1v-7c0-1.8-0.8-3.2-2.4-3.2c-1.3,0-2.3,1.1-2.6,2.1c-0.1,0.3-0.2,0.7-0.2,1v7h-2.1V79.3z"/>
		<path d="M448.7,87.7l-0.2-1.5h-0.1c-0.6,0.9-1.9,1.7-3.6,1.7c-2.4,0-3.6-1.7-3.6-3.3c0-2.8,2.5-4.3,7-4.3v-0.2
			c0-1-0.3-2.7-2.6-2.7c-1.1,0-2.2,0.3-3,0.9l-0.5-1.4c1-0.6,2.4-1,3.8-1c3.6,0,4.4,2.4,4.4,4.8v4.3c0,1,0,2,0.2,2.8H448.7z
			 M448.4,81.8c-2.3,0-4.9,0.4-4.9,2.6c0,1.4,0.9,2,2,2c1.5,0,2.5-1,2.8-1.9c0.1-0.2,0.1-0.5,0.1-0.7V81.8z"/>
		<path d="M453.8,79.7c0-1.4,0-2.5-0.1-3.6h1.8l0.1,2.3h0.1c0.5-1.6,1.8-2.5,3.2-2.5c0.2,0,0.4,0,0.6,0.1v2c-0.2,0-0.4-0.1-0.7-0.1
			c-1.5,0-2.5,1.1-2.8,2.7c0,0.3-0.1,0.6-0.1,1v6.2h-2.1V79.7z"/>
		<path d="M464.8,72.8v3.3h3v1.6h-3V84c0,1.4,0.4,2.3,1.6,2.3c0.6,0,1-0.1,1.2-0.1l0.1,1.6c-0.4,0.2-1.1,0.3-1.9,0.3
			c-1,0-1.8-0.3-2.3-0.9c-0.6-0.6-0.8-1.7-0.8-3v-6.3h-1.8v-1.6h1.8v-2.8L464.8,72.8z"/>
		<path d="M470.2,79.9c0-1.5,0-2.7-0.1-3.8h1.9l0.1,2h0c0.9-1.4,2.2-2.3,4.1-2.3c2.8,0,4.9,2.4,4.9,5.9c0,4.2-2.5,6.2-5.3,6.2
			c-1.5,0-2.9-0.7-3.6-1.8h0v6.3h-2.1V79.9z M472.3,83c0,0.3,0,0.6,0.1,0.9c0.4,1.5,1.7,2.5,3.2,2.5c2.2,0,3.5-1.8,3.5-4.5
			c0-2.3-1.2-4.3-3.5-4.3c-1.4,0-2.8,1-3.2,2.6c-0.1,0.3-0.1,0.6-0.1,0.9V83z"/>
		<path d="M483.9,70.7h2.1v7.2h0c0.3-0.6,0.9-1.1,1.5-1.5c0.6-0.4,1.4-0.6,2.2-0.6c1.6,0,4.1,1,4.1,5v6.9h-2.1v-6.7
			c0-1.9-0.7-3.5-2.7-3.5c-1.4,0-2.4,1-2.8,2.1c-0.1,0.3-0.1,0.6-0.1,1v7h-2.1V70.7z"/>
		<path d="M507.7,81.8c0,4.3-3,6.2-5.8,6.2c-3.1,0-5.6-2.3-5.6-6c0-3.9,2.5-6.2,5.8-6.2C505.4,75.8,507.7,78.3,507.7,81.8z
			 M498.5,81.9c0,2.5,1.5,4.5,3.5,4.5c2,0,3.5-1.9,3.5-4.5c0-2-1-4.5-3.5-4.5C499.6,77.4,498.5,79.7,498.5,81.9z"/>
		<path d="M510.4,79.3c0-1.2,0-2.2-0.1-3.1h1.9l0.1,1.9h0c0.6-1.1,1.9-2.2,3.8-2.2c1.6,0,4.1,1,4.1,4.9v6.9h-2.1V81
			c0-1.9-0.7-3.4-2.7-3.4c-1.4,0-2.5,1-2.8,2.2c-0.1,0.3-0.1,0.6-0.1,1v7h-2.1V79.3z"/>
		<path d="M524.9,82.3c0,2.9,1.9,4,4,4c1.5,0,2.4-0.3,3.2-0.6l0.4,1.5c-0.7,0.3-2,0.7-3.9,0.7c-3.6,0-5.7-2.4-5.7-5.9
			c0-3.5,2.1-6.3,5.4-6.3c3.8,0,4.8,3.3,4.8,5.5c0,0.4,0,0.8-0.1,1H524.9z M531,80.8c0-1.3-0.6-3.4-2.9-3.4c-2.1,0-3.1,2-3.2,3.4
			H531z"/>
		<path d="M543.1,72.8c0,0.7-0.5,1.3-1.3,1.3c-0.7,0-1.3-0.6-1.3-1.3c0-0.7,0.6-1.3,1.3-1.3C542.6,71.5,543.1,72.1,543.1,72.8z
			 M540.8,87.7V76.1h2.1v11.6H540.8z"/>
		<path d="M546.4,79.3c0-1.2,0-2.2-0.1-3.1h1.9l0.1,1.9h0c0.6-1.1,1.9-2.2,3.8-2.2c1.6,0,4.1,1,4.1,4.9v6.9h-2.1V81
			c0-1.9-0.7-3.4-2.7-3.4c-1.4,0-2.5,1-2.8,2.2c-0.1,0.3-0.1,0.6-0.1,1v7h-2.1V79.3z"/>
		<path d="M559.4,85.6c0.6,0.4,1.7,0.8,2.8,0.8c1.5,0,2.3-0.8,2.3-1.7c0-1-0.6-1.6-2.2-2.1c-2.1-0.7-3.1-1.9-3.1-3.3
			c0-1.9,1.5-3.4,4-3.4c1.2,0,2.2,0.3,2.9,0.7l-0.5,1.5c-0.5-0.3-1.3-0.7-2.4-0.7c-1.2,0-1.9,0.7-1.9,1.6c0,1,0.7,1.4,2.2,2
			c2,0.8,3,1.8,3,3.5c0,2-1.6,3.5-4.3,3.5c-1.3,0-2.4-0.3-3.3-0.8L559.4,85.6z"/>
		<path d="M571.6,72.8c0,0.7-0.5,1.3-1.3,1.3c-0.7,0-1.3-0.6-1.3-1.3c0-0.7,0.6-1.3,1.3-1.3C571.1,71.5,571.6,72.1,571.6,72.8z
			 M569.2,87.7V76.1h2.1v11.6H569.2z"/>
		<path d="M584.9,70.7v14c0,1,0,2.2,0.1,3h-1.9l-0.1-2h0c-0.6,1.3-2.1,2.3-4,2.3c-2.8,0-5-2.4-5-5.9c0-3.9,2.4-6.2,5.2-6.2
			c1.8,0,3,0.8,3.5,1.8h0v-6.9H584.9z M582.8,80.8c0-0.3,0-0.6-0.1-0.9c-0.3-1.3-1.5-2.4-3-2.4c-2.2,0-3.5,1.9-3.5,4.5
			c0,2.4,1.2,4.3,3.4,4.3c1.4,0,2.7-0.9,3.1-2.5c0.1-0.3,0.1-0.6,0.1-0.9V80.8z"/>
		<path d="M589.6,82.3c0,2.9,1.9,4,4,4c1.5,0,2.4-0.3,3.2-0.6l0.4,1.5c-0.7,0.3-2,0.7-3.9,0.7c-3.6,0-5.7-2.4-5.7-5.9
			c0-3.5,2.1-6.3,5.4-6.3c3.8,0,4.8,3.3,4.8,5.5c0,0.4,0,0.8-0.1,1H589.6z M595.8,80.8c0-1.3-0.6-3.4-2.9-3.4c-2.1,0-3.1,2-3.2,3.4
			H595.8z"/>
		<path d="M599.6,86.5c0-0.9,0.6-1.5,1.4-1.5s1.4,0.6,1.4,1.5c0,0.9-0.6,1.5-1.4,1.5C600.2,88,599.6,87.3,599.6,86.5z"/>
	</g>
	<g>
		<path d="M412.8,124.2c1.3-0.2,2.8-0.3,4.4-0.3c3,0,5.1,0.7,6.6,2c1.4,1.3,2.3,3.2,2.3,5.8c0,2.6-0.8,4.8-2.3,6.3
			c-1.5,1.5-4,2.3-7.2,2.3c-1.5,0-2.7-0.1-3.8-0.2V124.2z M414.9,138.5c0.5,0.1,1.3,0.1,2.1,0.1c4.5,0,6.9-2.5,6.9-6.9
			c0-3.8-2.1-6.2-6.6-6.2c-1.1,0-1.9,0.1-2.4,0.2V138.5z"/>
		<path d="M428.7,132.1c0-1.4,0-2.5-0.1-3.6h1.8l0.1,2.3h0.1c0.5-1.6,1.8-2.5,3.2-2.5c0.2,0,0.4,0,0.6,0.1v2c-0.2,0-0.4-0.1-0.7-0.1
			c-1.5,0-2.5,1.1-2.8,2.7c0,0.3-0.1,0.6-0.1,1v6.2h-2.1V132.1z"/>
		<path d="M446.3,137c0,1.2,0,2.3,0.1,3.2h-1.9l-0.1-1.9h0c-0.6,0.9-1.8,2.2-3.8,2.2c-1.8,0-4-1-4-5.1v-6.8h2.1v6.4
			c0,2.2,0.7,3.7,2.6,3.7c1.4,0,2.4-1,2.8-1.9c0.1-0.3,0.2-0.7,0.2-1.1v-7.1h2.1V137z"/>
		<path d="M449.8,131.7c0-1.2,0-2.2-0.1-3.1h1.8l0.1,1.9h0.1c0.6-1.1,1.7-2.1,3.6-2.1c1.6,0,2.8,1,3.3,2.3h0
			c0.4-0.6,0.8-1.2,1.3-1.5c0.7-0.5,1.5-0.8,2.6-0.8c1.5,0,3.8,1,3.8,5v6.8h-2.1v-6.6c0-2.2-0.8-3.6-2.5-3.6c-1.2,0-2.1,0.9-2.5,1.9
			c-0.1,0.3-0.2,0.7-0.2,1.1v7.2h-2.1v-7c0-1.8-0.8-3.2-2.4-3.2c-1.3,0-2.3,1.1-2.6,2.1c-0.1,0.3-0.2,0.7-0.2,1v7h-2.1V131.7z"/>
		<path d="M474.8,140.1c0-0.8,0.1-2,0.1-3v-14h2.1v7.3h0c0.7-1.3,2.1-2.1,4-2.1c2.9,0,4.9,2.4,4.9,5.9c0,4.2-2.6,6.2-5.2,6.2
			c-1.7,0-3-0.6-3.9-2.2h-0.1l-0.1,1.9H474.8z M477,135.5c0,0.3,0,0.5,0.1,0.8c0.4,1.5,1.6,2.5,3.2,2.5c2.2,0,3.5-1.8,3.5-4.5
			c0-2.3-1.2-4.3-3.5-4.3c-1.4,0-2.8,1-3.2,2.6c0,0.2-0.1,0.5-0.1,0.9V135.5z"/>
		<path d="M489.7,134.7c0,2.9,1.9,4,4,4c1.5,0,2.4-0.3,3.2-0.6l0.4,1.5c-0.7,0.3-2,0.7-3.9,0.7c-3.6,0-5.7-2.4-5.7-5.9
			c0-3.5,2.1-6.3,5.4-6.3c3.8,0,4.8,3.3,4.8,5.5c0,0.4,0,0.8-0.1,1H489.7z M495.9,133.2c0-1.3-0.6-3.4-2.9-3.4c-2.1,0-3.1,2-3.2,3.4
			H495.9z"/>
		<path d="M507,140.1l-0.2-1.5h-0.1c-0.6,0.9-1.9,1.7-3.6,1.7c-2.4,0-3.6-1.7-3.6-3.3c0-2.8,2.5-4.3,7-4.3v-0.2c0-1-0.3-2.7-2.6-2.7
			c-1.1,0-2.2,0.3-3,0.9l-0.5-1.4c1-0.6,2.4-1,3.8-1c3.6,0,4.4,2.4,4.4,4.8v4.3c0,1,0,2,0.2,2.8H507z M506.7,134.2
			c-2.3,0-4.9,0.4-4.9,2.6c0,1.4,0.9,2,2,2c1.5,0,2.5-1,2.8-1.9c0.1-0.2,0.1-0.5,0.1-0.7V134.2z"/>
		<path d="M514.6,125.2v3.3h3v1.6h-3v6.3c0,1.4,0.4,2.3,1.6,2.3c0.6,0,1-0.1,1.2-0.1l0.1,1.6c-0.4,0.2-1.1,0.3-1.9,0.3
			c-1,0-1.8-0.3-2.3-0.9c-0.6-0.6-0.8-1.7-0.8-3v-6.3h-1.8v-1.6h1.8v-2.8L514.6,125.2z"/>
		<path d="M525.1,123.1h2.1v7.2h0c0.3-0.6,0.9-1.1,1.5-1.5c0.6-0.4,1.4-0.6,2.2-0.6c1.6,0,4.1,1,4.1,5v6.9h-2.1v-6.7
			c0-1.9-0.7-3.5-2.7-3.5c-1.4,0-2.4,1-2.8,2.1c-0.1,0.3-0.1,0.6-0.1,1v7h-2.1V123.1z"/>
		<path d="M548.9,134.2c0,4.3-3,6.2-5.8,6.2c-3.1,0-5.6-2.3-5.6-6c0-3.9,2.5-6.2,5.8-6.2C546.7,128.2,548.9,130.7,548.9,134.2z
			 M539.7,134.3c0,2.5,1.5,4.5,3.5,4.5c2,0,3.5-1.9,3.5-4.5c0-2-1-4.5-3.5-4.5C540.8,129.8,539.7,132.1,539.7,134.3z"/>
		<path d="M551.6,123.1h2.1v17h-2.1V123.1z"/>
		<path d="M567.8,134.2c0,4.3-3,6.2-5.8,6.2c-3.1,0-5.6-2.3-5.6-6c0-3.9,2.5-6.2,5.8-6.2C565.5,128.2,567.8,130.7,567.8,134.2z
			 M558.5,134.3c0,2.5,1.5,4.5,3.5,4.5c2,0,3.5-1.9,3.5-4.5c0-2-1-4.5-3.5-4.5C559.6,129.8,558.5,132.1,558.5,134.3z"/>
		<path d="M580.4,128.5c0,0.8-0.1,1.8-0.1,3.2v6.7c0,2.7-0.5,4.3-1.7,5.3c-1.1,1.1-2.8,1.4-4.2,1.4c-1.4,0-2.9-0.3-3.9-1l0.5-1.6
			c0.8,0.5,2,0.9,3.4,0.9c2.2,0,3.7-1.1,3.7-4.1v-1.3h0c-0.6,1.1-1.9,1.9-3.7,1.9c-2.9,0-4.9-2.4-4.9-5.7c0-3.9,2.6-6.2,5.2-6.2
			c2,0,3.1,1.1,3.6,2h0l0.1-1.8H580.4z M578.3,133.1c0-0.4,0-0.7-0.1-1c-0.4-1.2-1.4-2.2-3-2.2c-2,0-3.5,1.7-3.5,4.4
			c0,2.3,1.2,4.2,3.4,4.2c1.3,0,2.5-0.8,2.9-2.2c0.1-0.4,0.2-0.8,0.2-1.1V133.1z"/>
		<path d="M583.7,132.1c0-1.4,0-2.5-0.1-3.6h1.8l0.1,2.3h0.1c0.5-1.6,1.8-2.5,3.2-2.5c0.2,0,0.4,0,0.6,0.1v2c-0.2,0-0.4-0.1-0.7-0.1
			c-1.5,0-2.5,1.1-2.8,2.7c0,0.3-0.1,0.6-0.1,1v6.2h-2.1V132.1z"/>
		<path d="M597.9,140.1l-0.2-1.5h-0.1c-0.6,0.9-1.9,1.7-3.6,1.7c-2.4,0-3.6-1.7-3.6-3.3c0-2.8,2.5-4.3,7-4.3v-0.2
			c0-1-0.3-2.7-2.6-2.7c-1.1,0-2.2,0.3-3,0.9l-0.5-1.4c1-0.6,2.4-1,3.8-1c3.6,0,4.4,2.4,4.4,4.8v4.3c0,1,0,2,0.2,2.8H597.9z
			 M597.5,134.2c-2.3,0-4.9,0.4-4.9,2.6c0,1.4,0.9,2,2,2c1.5,0,2.5-1,2.8-1.9c0.1-0.2,0.1-0.5,0.1-0.7V134.2z"/>
		<path d="M603,131.7c0-1.2,0-2.2-0.1-3.1h1.8l0.1,1.9h0.1c0.6-1.1,1.7-2.1,3.6-2.1c1.6,0,2.8,1,3.3,2.3h0c0.4-0.6,0.8-1.2,1.3-1.5
			c0.7-0.5,1.5-0.8,2.6-0.8c1.5,0,3.8,1,3.8,5v6.8h-2.1v-6.6c0-2.2-0.8-3.6-2.5-3.6c-1.2,0-2.1,0.9-2.5,1.9
			c-0.1,0.3-0.2,0.7-0.2,1.1v7.2h-2.1v-7c0-1.8-0.8-3.2-2.4-3.2c-1.3,0-2.3,1.1-2.6,2.1c-0.1,0.3-0.2,0.7-0.2,1v7H603V131.7z"/>
		<path d="M622.7,138c0.6,0.4,1.7,0.8,2.8,0.8c1.5,0,2.3-0.8,2.3-1.7c0-1-0.6-1.6-2.2-2.1c-2.1-0.7-3.1-1.9-3.1-3.3
			c0-1.9,1.5-3.4,4-3.4c1.2,0,2.2,0.3,2.9,0.7l-0.5,1.5c-0.5-0.3-1.3-0.7-2.4-0.7c-1.2,0-1.9,0.7-1.9,1.6c0,1,0.7,1.4,2.2,2
			c2,0.8,3,1.8,3,3.5c0,2-1.6,3.5-4.3,3.5c-1.3,0-2.4-0.3-3.3-0.8L622.7,138z"/>
		<path d="M644,140.1l-0.2-1.5h-0.1c-0.6,0.9-1.9,1.7-3.6,1.7c-2.4,0-3.6-1.7-3.6-3.3c0-2.8,2.5-4.3,7-4.3v-0.2c0-1-0.3-2.7-2.6-2.7
			c-1.1,0-2.2,0.3-3,0.9l-0.5-1.4c1-0.6,2.4-1,3.8-1c3.6,0,4.4,2.4,4.4,4.8v4.3c0,1,0,2,0.2,2.8H644z M643.7,134.2
			c-2.3,0-4.9,0.4-4.9,2.6c0,1.4,0.9,2,2,2c1.5,0,2.5-1,2.8-1.9c0.1-0.2,0.1-0.5,0.1-0.7V134.2z"/>
		<path d="M649.2,132.1c0-1.4,0-2.5-0.1-3.6h1.8l0.1,2.3h0.1c0.5-1.6,1.8-2.5,3.2-2.5c0.2,0,0.4,0,0.6,0.1v2c-0.2,0-0.4-0.1-0.7-0.1
			c-1.5,0-2.5,1.1-2.8,2.7c0,0.3-0.1,0.6-0.1,1v6.2h-2.1V132.1z"/>
		<path d="M658,134.7c0,2.9,1.9,4,4,4c1.5,0,2.4-0.3,3.2-0.6l0.4,1.5c-0.7,0.3-2,0.7-3.9,0.7c-3.6,0-5.7-2.4-5.7-5.9
			c0-3.5,2.1-6.3,5.4-6.3c3.8,0,4.8,3.3,4.8,5.5c0,0.4,0,0.8-0.1,1H658z M664.1,133.2c0-1.3-0.6-3.4-2.9-3.4c-2.1,0-3.1,2-3.2,3.4
			H664.1z"/>
		<path d="M680.3,140.1l-0.2-1.5h-0.1c-0.6,0.9-1.9,1.7-3.6,1.7c-2.4,0-3.6-1.7-3.6-3.3c0-2.8,2.5-4.3,7-4.3v-0.2
			c0-1-0.3-2.7-2.6-2.7c-1.1,0-2.2,0.3-3,0.9l-0.5-1.4c1-0.6,2.4-1,3.8-1c3.6,0,4.4,2.4,4.4,4.8v4.3c0,1,0,2,0.2,2.8H680.3z
			 M680,134.2c-2.3,0-4.9,0.4-4.9,2.6c0,1.4,0.9,2,2,2c1.5,0,2.5-1,2.8-1.9c0.1-0.2,0.1-0.5,0.1-0.7V134.2z"/>
		<path d="M685.5,131.7c0-1.2,0-2.2-0.1-3.1h1.9l0.1,1.9h0c0.6-1.1,1.9-2.2,3.8-2.2c1.6,0,4.1,1,4.1,4.9v6.9h-2.1v-6.7
			c0-1.9-0.7-3.4-2.7-3.4c-1.4,0-2.5,1-2.8,2.2c-0.1,0.3-0.1,0.6-0.1,1v7h-2.1V131.7z"/>
		<path d="M701.1,125.2c0,0.7-0.5,1.3-1.3,1.3c-0.7,0-1.3-0.6-1.3-1.3c0-0.7,0.6-1.3,1.3-1.3C700.6,123.9,701.1,124.5,701.1,125.2z
			 M698.8,140.1v-11.6h2.1v11.6H698.8z"/>
		<path d="M704.4,131.7c0-1.2,0-2.2-0.1-3.1h1.8l0.1,1.9h0.1c0.6-1.1,1.7-2.1,3.6-2.1c1.6,0,2.8,1,3.3,2.3h0
			c0.4-0.6,0.8-1.2,1.3-1.5c0.7-0.5,1.5-0.8,2.6-0.8c1.5,0,3.8,1,3.8,5v6.8h-2.1v-6.6c0-2.2-0.8-3.6-2.5-3.6c-1.2,0-2.1,0.9-2.5,1.9
			c-0.1,0.3-0.2,0.7-0.2,1.1v7.2h-2.1v-7c0-1.8-0.8-3.2-2.4-3.2c-1.3,0-2.3,1.1-2.6,2.1c-0.1,0.3-0.2,0.7-0.2,1v7h-2.1V131.7z"/>
		<path d="M730.8,140.1l-0.2-1.5h-0.1c-0.6,0.9-1.9,1.7-3.6,1.7c-2.4,0-3.6-1.7-3.6-3.3c0-2.8,2.5-4.3,7-4.3v-0.2
			c0-1-0.3-2.7-2.6-2.7c-1.1,0-2.2,0.3-3,0.9l-0.5-1.4c1-0.6,2.4-1,3.8-1c3.6,0,4.4,2.4,4.4,4.8v4.3c0,1,0,2,0.2,2.8H730.8z
			 M730.5,134.2c-2.3,0-4.9,0.4-4.9,2.6c0,1.4,0.9,2,2,2c1.5,0,2.5-1,2.8-1.9c0.1-0.2,0.1-0.5,0.1-0.7V134.2z"/>
		<path d="M738.4,125.2v3.3h3v1.6h-3v6.3c0,1.4,0.4,2.3,1.6,2.3c0.6,0,1-0.1,1.2-0.1l0.1,1.6c-0.4,0.2-1.1,0.3-1.9,0.3
			c-1,0-1.8-0.3-2.3-0.9c-0.6-0.6-0.8-1.7-0.8-3v-6.3h-1.8v-1.6h1.8v-2.8L738.4,125.2z"/>
		<path d="M744.9,134.7c0,2.9,1.9,4,4,4c1.5,0,2.4-0.3,3.2-0.6l0.4,1.5c-0.7,0.3-2,0.7-3.9,0.7c-3.6,0-5.7-2.4-5.7-5.9
			c0-3.5,2.1-6.3,5.4-6.3c3.8,0,4.8,3.3,4.8,5.5c0,0.4,0,0.8-0.1,1H744.9z M751.1,133.2c0-1.3-0.6-3.4-2.9-3.4c-2.1,0-3.1,2-3.2,3.4
			H751.1z"/>
		<path d="M765.7,123.1v14c0,1,0,2.2,0.1,3h-1.9l-0.1-2h0c-0.6,1.3-2.1,2.3-4,2.3c-2.8,0-5-2.4-5-5.9c0-3.9,2.4-6.2,5.2-6.2
			c1.8,0,3,0.8,3.5,1.8h0v-6.9H765.7z M763.6,133.2c0-0.3,0-0.6-0.1-0.9c-0.3-1.3-1.5-2.4-3-2.4c-2.2,0-3.5,1.9-3.5,4.5
			c0,2.4,1.2,4.3,3.4,4.3c1.4,0,2.7-0.9,3.1-2.5c0.1-0.3,0.1-0.6,0.1-0.9V133.2z"/>
		<path d="M423.3,163c0,4.3-3,6.2-5.8,6.2c-3.1,0-5.6-2.3-5.6-6c0-3.9,2.5-6.2,5.8-6.2C421,157,423.3,159.5,423.3,163z M414,163.1
			c0,2.5,1.5,4.5,3.5,4.5c2,0,3.5-1.9,3.5-4.5c0-2-1-4.5-3.5-4.5C415.1,158.6,414,160.9,414,163.1z"/>
		<path d="M425.9,160.5c0-1.2,0-2.2-0.1-3.1h1.9l0.1,1.9h0c0.6-1.1,1.9-2.2,3.8-2.2c1.6,0,4.1,1,4.1,4.9v6.9h-2.1v-6.7
			c0-1.9-0.7-3.4-2.7-3.4c-1.4,0-2.5,1-2.8,2.2c-0.1,0.3-0.1,0.6-0.1,1v7h-2.1V160.5z"/>
		<path d="M446.9,154v3.3h3v1.6h-3v6.3c0,1.4,0.4,2.3,1.6,2.3c0.6,0,1-0.1,1.2-0.1l0.1,1.6c-0.4,0.2-1.1,0.3-1.9,0.3
			c-1,0-1.8-0.3-2.3-0.9c-0.6-0.6-0.8-1.7-0.8-3v-6.3H443v-1.6h1.8v-2.8L446.9,154z"/>
		<path d="M462.6,163c0,4.3-3,6.2-5.8,6.2c-3.1,0-5.6-2.3-5.6-6c0-3.9,2.5-6.2,5.8-6.2C460.4,157,462.6,159.5,462.6,163z
			 M453.4,163.1c0,2.5,1.5,4.5,3.5,4.5c2,0,3.5-1.9,3.5-4.5c0-2-1-4.5-3.5-4.5C454.5,158.6,453.4,160.9,453.4,163.1z"/>
		<path d="M465.3,161.1c0-1.5,0-2.7-0.1-3.8h1.9l0.1,2h0c0.9-1.4,2.2-2.3,4.1-2.3c2.8,0,4.9,2.4,4.9,5.9c0,4.2-2.5,6.2-5.3,6.2
			c-1.5,0-2.9-0.7-3.6-1.8h0v6.3h-2.1V161.1z M467.4,164.2c0,0.3,0,0.6,0.1,0.9c0.4,1.5,1.7,2.5,3.2,2.5c2.2,0,3.5-1.8,3.5-4.5
			c0-2.3-1.2-4.3-3.5-4.3c-1.4,0-2.8,1-3.2,2.6c-0.1,0.3-0.1,0.6-0.1,0.9V164.2z"/>
		<path d="M494.6,163c0,4.3-3,6.2-5.8,6.2c-3.1,0-5.6-2.3-5.6-6c0-3.9,2.5-6.2,5.8-6.2C492.3,157,494.6,159.5,494.6,163z
			 M485.4,163.1c0,2.5,1.5,4.5,3.5,4.5c2,0,3.5-1.9,3.5-4.5c0-2-1-4.5-3.5-4.5C486.4,158.6,485.4,160.9,485.4,163.1z"/>
		<path d="M497.4,168.9v-10h-1.6v-1.6h1.6v-0.6c0-1.6,0.4-3.1,1.3-4.1c0.8-0.8,1.8-1.1,2.8-1.1c0.7,0,1.4,0.2,1.8,0.3l-0.3,1.6
			c-0.3-0.1-0.7-0.3-1.3-0.3c-1.8,0-2.3,1.6-2.3,3.4v0.6h2.8v1.6h-2.8v10H497.4z"/>
		<path d="M511.9,154v3.3h3v1.6h-3v6.3c0,1.4,0.4,2.3,1.6,2.3c0.6,0,1-0.1,1.2-0.1l0.1,1.6c-0.4,0.2-1.1,0.3-1.9,0.3
			c-1,0-1.8-0.3-2.3-0.9c-0.6-0.6-0.8-1.7-0.8-3v-6.3H508v-1.6h1.8v-2.8L511.9,154z"/>
		<path d="M517.3,151.9h2.1v7.2h0c0.3-0.6,0.9-1.1,1.5-1.5c0.6-0.4,1.4-0.6,2.2-0.6c1.6,0,4.1,1,4.1,5v6.9H525v-6.7
			c0-1.9-0.7-3.5-2.7-3.5c-1.4,0-2.4,1-2.8,2.1c-0.1,0.3-0.1,0.6-0.1,1v7h-2.1V151.9z"/>
		<path d="M531.8,163.5c0,2.9,1.9,4,4,4c1.5,0,2.4-0.3,3.2-0.6l0.4,1.5c-0.7,0.3-2,0.7-3.9,0.7c-3.6,0-5.7-2.4-5.7-5.9
			c0-3.5,2.1-6.3,5.4-6.3c3.8,0,4.8,3.3,4.8,5.5c0,0.4,0,0.8-0.1,1H531.8z M538,162c0-1.3-0.6-3.4-2.9-3.4c-2.1,0-3.1,2-3.2,3.4H538
			z"/>
		<path d="M557.7,151.9v14c0,1,0,2.2,0.1,3h-1.9l-0.1-2h0c-0.6,1.3-2.1,2.3-4,2.3c-2.8,0-5-2.4-5-5.9c0-3.9,2.4-6.2,5.2-6.2
			c1.8,0,3,0.8,3.5,1.8h0v-6.9H557.7z M555.6,162c0-0.3,0-0.6-0.1-0.9c-0.3-1.3-1.5-2.4-3-2.4c-2.2,0-3.5,1.9-3.5,4.5
			c0,2.4,1.2,4.3,3.4,4.3c1.4,0,2.7-0.9,3.1-2.5c0.1-0.3,0.1-0.6,0.1-0.9V162z"/>
		<path d="M561.2,160.9c0-1.4,0-2.5-0.1-3.6h1.8l0.1,2.3h0.1c0.5-1.6,1.8-2.5,3.2-2.5c0.2,0,0.4,0,0.6,0.1v2c-0.2,0-0.4-0.1-0.7-0.1
			c-1.5,0-2.5,1.1-2.8,2.7c0,0.3-0.1,0.6-0.1,1v6.2h-2.1V160.9z"/>
		<path d="M578.8,165.8c0,1.2,0,2.3,0.1,3.2H577l-0.1-1.9h0c-0.6,0.9-1.8,2.2-3.8,2.2c-1.8,0-4-1-4-5.1v-6.8h2.1v6.4
			c0,2.2,0.7,3.7,2.6,3.7c1.4,0,2.4-1,2.8-1.9c0.1-0.3,0.2-0.7,0.2-1.1v-7.1h2.1V165.8z"/>
		<path d="M582.3,160.5c0-1.2,0-2.2-0.1-3.1h1.8l0.1,1.9h0.1c0.6-1.1,1.7-2.1,3.6-2.1c1.6,0,2.8,1,3.3,2.3h0
			c0.4-0.6,0.8-1.2,1.3-1.5c0.7-0.5,1.5-0.8,2.6-0.8c1.5,0,3.8,1,3.8,5v6.8h-2.1v-6.6c0-2.2-0.8-3.6-2.5-3.6c-1.2,0-2.1,0.9-2.5,1.9
			c-0.1,0.3-0.2,0.7-0.2,1.1v7.2h-2.1v-7c0-1.8-0.8-3.2-2.4-3.2c-1.3,0-2.3,1.1-2.6,2.1c-0.1,0.3-0.2,0.7-0.2,1v7h-2.1V160.5z"/>
		<path d="M602,166.8c0.6,0.4,1.7,0.8,2.8,0.8c1.5,0,2.3-0.8,2.3-1.7c0-1-0.6-1.6-2.2-2.1c-2.1-0.7-3.1-1.9-3.1-3.3
			c0-1.9,1.5-3.4,4-3.4c1.2,0,2.2,0.3,2.9,0.7l-0.5,1.5c-0.5-0.3-1.3-0.7-2.4-0.7c-1.2,0-1.9,0.7-1.9,1.6c0,1,0.7,1.4,2.2,2
			c2,0.8,3,1.8,3,3.5c0,2-1.6,3.5-4.3,3.5c-1.3,0-2.4-0.3-3.3-0.8L602,166.8z"/>
		<path d="M611.1,167.7c0-0.9,0.6-1.5,1.4-1.5s1.4,0.6,1.4,1.5c0,0.9-0.6,1.5-1.4,1.5C611.6,169.2,611.1,168.5,611.1,167.7z"/>
	</g>
	<g>
		<path d="M412.8,210.2h8.7v1.8h-6.6v5.4h6.1v1.7h-6.1v7.3h-2.1V210.2z"/>
		<path d="M426.2,211.5c0,0.7-0.5,1.3-1.3,1.3c-0.7,0-1.3-0.6-1.3-1.3c0-0.7,0.6-1.3,1.3-1.3C425.7,210.2,426.2,210.7,426.2,211.5z
			 M423.8,226.4v-11.6h2.1v11.6H423.8z"/>
		<path d="M439.5,209.3v14c0,1,0,2.2,0.1,3h-1.9l-0.1-2h0c-0.6,1.3-2.1,2.3-4,2.3c-2.8,0-5-2.4-5-5.9c0-3.9,2.4-6.2,5.2-6.2
			c1.8,0,3,0.8,3.5,1.8h0v-6.9H439.5z M437.4,219.5c0-0.3,0-0.6-0.1-0.9c-0.3-1.3-1.5-2.4-3-2.4c-2.2,0-3.5,1.9-3.5,4.5
			c0,2.4,1.2,4.3,3.4,4.3c1.4,0,2.7-0.9,3.1-2.5c0.1-0.3,0.1-0.6,0.1-0.9V219.5z"/>
		<path d="M452.7,223.2c0,1.2,0,2.3,0.1,3.2h-1.9l-0.1-1.9h0c-0.6,0.9-1.8,2.2-3.8,2.2c-1.8,0-4-1-4-5.1v-6.8h2.1v6.4
			c0,2.2,0.7,3.7,2.6,3.7c1.4,0,2.4-1,2.8-1.9c0.1-0.3,0.2-0.7,0.2-1.1v-7.1h2.1V223.2z"/>
		<path d="M464.5,225.9c-0.6,0.3-1.8,0.7-3.3,0.7c-3.5,0-5.8-2.4-5.8-5.9c0-3.6,2.4-6.2,6.2-6.2c1.2,0,2.4,0.3,2.9,0.6l-0.5,1.6
			c-0.5-0.3-1.3-0.6-2.4-0.6c-2.7,0-4.1,2-4.1,4.4c0,2.7,1.7,4.3,4,4.3c1.2,0,2-0.3,2.6-0.6L464.5,225.9z"/>
		<path d="M469.3,211.5c0,0.7-0.5,1.3-1.3,1.3c-0.7,0-1.3-0.6-1.3-1.3c0-0.7,0.6-1.3,1.3-1.3C468.8,210.2,469.3,210.7,469.3,211.5z
			 M466.9,226.4v-11.6h2.1v11.6H466.9z"/>
		<path d="M479,226.4l-0.2-1.5h-0.1c-0.6,0.9-1.9,1.7-3.6,1.7c-2.4,0-3.6-1.7-3.6-3.3c0-2.8,2.5-4.3,7-4.3v-0.2c0-1-0.3-2.7-2.6-2.7
			c-1.1,0-2.2,0.3-3,0.9l-0.5-1.4c1-0.6,2.4-1,3.8-1c3.6,0,4.4,2.4,4.4,4.8v4.3c0,1,0,2,0.2,2.8H479z M478.7,220.4
			c-2.3,0-4.9,0.4-4.9,2.6c0,1.4,0.9,2,2,2c1.5,0,2.5-1,2.8-1.9c0.1-0.2,0.1-0.5,0.1-0.7V220.4z"/>
		<path d="M484.1,209.3h2.1v17h-2.1V209.3z"/>
		<path d="M494.9,217.9c0-1.2,0-2.2-0.1-3.1h1.8l0.1,1.9h0.1c0.6-1.1,1.7-2.1,3.6-2.1c1.6,0,2.8,1,3.3,2.3h0
			c0.4-0.6,0.8-1.2,1.3-1.5c0.7-0.5,1.5-0.8,2.6-0.8c1.5,0,3.8,1,3.8,5v6.8h-2.1v-6.6c0-2.2-0.8-3.6-2.5-3.6c-1.2,0-2.1,0.9-2.5,1.9
			c-0.1,0.3-0.2,0.7-0.2,1.1v7.2h-2.1v-7c0-1.8-0.8-3.2-2.4-3.2c-1.3,0-2.3,1.1-2.6,2.1c-0.1,0.3-0.2,0.7-0.2,1v7h-2.1V217.9z"/>
		<path d="M521.3,226.4l-0.2-1.5h-0.1c-0.6,0.9-1.9,1.7-3.6,1.7c-2.4,0-3.6-1.7-3.6-3.3c0-2.8,2.5-4.3,7-4.3v-0.2
			c0-1-0.3-2.7-2.6-2.7c-1.1,0-2.2,0.3-3,0.9l-0.5-1.4c1-0.6,2.4-1,3.8-1c3.6,0,4.4,2.4,4.4,4.8v4.3c0,1,0,2,0.2,2.8H521.3z
			 M521,220.4c-2.3,0-4.9,0.4-4.9,2.6c0,1.4,0.9,2,2,2c1.5,0,2.5-1,2.8-1.9c0.1-0.2,0.1-0.5,0.1-0.7V220.4z"/>
		<path d="M526.5,218.4c0-1.4,0-2.5-0.1-3.6h1.8l0.1,2.3h0.1c0.5-1.6,1.8-2.5,3.2-2.5c0.2,0,0.4,0,0.6,0.1v2c-0.2,0-0.4-0.1-0.7-0.1
			c-1.5,0-2.5,1.1-2.8,2.7c0,0.3-0.1,0.6-0.1,1v6.2h-2.1V218.4z"/>
		<path d="M536.5,220.1L536.5,220.1c0.3-0.4,0.7-0.9,1.1-1.3l3.4-4h2.5l-4.5,4.8l5.1,6.8h-2.6l-4-5.6l-1.1,1.2v4.4h-2.1v-17h2.1
			V220.1z"/>
		<path d="M546.8,220.9c0,2.9,1.9,4,4,4c1.5,0,2.4-0.3,3.2-0.6l0.4,1.5c-0.7,0.3-2,0.7-3.9,0.7c-3.6,0-5.7-2.4-5.7-5.9
			c0-3.5,2.1-6.3,5.4-6.3c3.8,0,4.8,3.3,4.8,5.5c0,0.4,0,0.8-0.1,1H546.8z M553,219.4c0-1.3-0.6-3.4-2.9-3.4c-2.1,0-3.1,2-3.2,3.4
			H553z"/>
		<path d="M557.7,218.4c0-1.4,0-2.5-0.1-3.6h1.8l0.1,2.3h0.1c0.5-1.6,1.8-2.5,3.2-2.5c0.2,0,0.4,0,0.6,0.1v2c-0.2,0-0.4-0.1-0.7-0.1
			c-1.5,0-2.5,1.1-2.8,2.7c0,0.3-0.1,0.6-0.1,1v6.2h-2.1V218.4z"/>
		<path d="M573.2,211.4v3.3h3v1.6h-3v6.3c0,1.4,0.4,2.3,1.6,2.3c0.6,0,1-0.1,1.2-0.1l0.1,1.6c-0.4,0.2-1.1,0.3-1.9,0.3
			c-1,0-1.8-0.3-2.3-0.9c-0.6-0.6-0.8-1.7-0.8-3v-6.3h-1.8v-1.6h1.8V212L573.2,211.4z"/>
		<path d="M579.6,220.9c0,2.9,1.9,4,4,4c1.5,0,2.4-0.3,3.2-0.6l0.4,1.5c-0.7,0.3-2,0.7-3.9,0.7c-3.6,0-5.7-2.4-5.7-5.9
			c0-3.5,2.1-6.3,5.4-6.3c3.8,0,4.8,3.3,4.8,5.5c0,0.4,0,0.8-0.1,1H579.6z M585.8,219.4c0-1.3-0.6-3.4-2.9-3.4c-2.1,0-3.1,2-3.2,3.4
			H585.8z"/>
		<path d="M590.4,209.3h2.1v17h-2.1V209.3z"/>
		<path d="M596.1,209.3h2.1v17h-2.1V209.3z"/>
		<path d="M601.5,224.2c0.6,0.4,1.7,0.8,2.8,0.8c1.5,0,2.3-0.8,2.3-1.7c0-1-0.6-1.6-2.2-2.1c-2.1-0.7-3.1-1.9-3.1-3.3
			c0-1.9,1.5-3.4,4-3.4c1.2,0,2.2,0.3,2.9,0.7l-0.5,1.5c-0.5-0.3-1.3-0.7-2.4-0.7c-1.2,0-1.9,0.7-1.9,1.6c0,1,0.7,1.4,2.2,2
			c2,0.8,3,1.8,3,3.5c0,2-1.6,3.5-4.3,3.5c-1.3,0-2.4-0.3-3.3-0.8L601.5,224.2z"/>
		<path d="M618.9,211.4v3.3h3v1.6h-3v6.3c0,1.4,0.4,2.3,1.6,2.3c0.6,0,1-0.1,1.2-0.1l0.1,1.6c-0.4,0.2-1.1,0.3-1.9,0.3
			c-1,0-1.8-0.3-2.3-0.9c-0.6-0.6-0.8-1.7-0.8-3v-6.3H615v-1.6h1.8V212L618.9,211.4z"/>
		<path d="M624.3,209.3h2.1v7.2h0c0.3-0.6,0.9-1.1,1.5-1.5c0.6-0.4,1.4-0.6,2.2-0.6c1.6,0,4.1,1,4.1,5v6.9h-2.1v-6.7
			c0-1.9-0.7-3.5-2.7-3.5c-1.4,0-2.4,1-2.8,2.1c-0.1,0.3-0.1,0.6-0.1,1v7h-2.1V209.3z"/>
		<path d="M638.8,220.9c0,2.9,1.9,4,4,4c1.5,0,2.4-0.3,3.2-0.6l0.4,1.5c-0.7,0.3-2,0.7-3.9,0.7c-3.6,0-5.7-2.4-5.7-5.9
			c0-3.5,2.1-6.3,5.4-6.3c3.8,0,4.8,3.3,4.8,5.5c0,0.4,0,0.8-0.1,1H638.8z M645,219.4c0-1.3-0.6-3.4-2.9-3.4c-2.1,0-3.1,2-3.2,3.4
			H645z"/>
		<path d="M661.2,226.4l-0.2-1.5h-0.1c-0.6,0.9-1.9,1.7-3.6,1.7c-2.4,0-3.6-1.7-3.6-3.3c0-2.8,2.5-4.3,7-4.3v-0.2
			c0-1-0.3-2.7-2.6-2.7c-1.1,0-2.2,0.3-3,0.9l-0.5-1.4c1-0.6,2.4-1,3.8-1c3.6,0,4.4,2.4,4.4,4.8v4.3c0,1,0,2,0.2,2.8H661.2z
			 M660.9,220.4c-2.3,0-4.9,0.4-4.9,2.6c0,1.4,0.9,2,2,2c1.5,0,2.5-1,2.8-1.9c0.1-0.2,0.1-0.5,0.1-0.7V220.4z"/>
		<path d="M666.3,218.5c0-1.5,0-2.7-0.1-3.8h1.9l0.1,2h0c0.9-1.4,2.2-2.3,4.1-2.3c2.8,0,4.9,2.4,4.9,5.9c0,4.2-2.5,6.2-5.3,6.2
			c-1.5,0-2.9-0.7-3.6-1.8h0v6.3h-2.1V218.5z M668.4,221.6c0,0.3,0,0.6,0.1,0.9c0.4,1.5,1.7,2.5,3.2,2.5c2.2,0,3.5-1.8,3.5-4.5
			c0-2.3-1.2-4.3-3.5-4.3c-1.4,0-2.8,1-3.2,2.6c-0.1,0.3-0.1,0.6-0.1,0.9V221.6z"/>
		<path d="M680,218.5c0-1.5,0-2.7-0.1-3.8h1.9l0.1,2h0c0.9-1.4,2.2-2.3,4.1-2.3c2.8,0,4.9,2.4,4.9,5.9c0,4.2-2.5,6.2-5.3,6.2
			c-1.5,0-2.9-0.7-3.6-1.8h0v6.3H680V218.5z M682.1,221.6c0,0.3,0,0.6,0.1,0.9c0.4,1.5,1.7,2.5,3.2,2.5c2.2,0,3.5-1.8,3.5-4.5
			c0-2.3-1.2-4.3-3.5-4.3c-1.4,0-2.8,1-3.2,2.6c-0.1,0.3-0.1,0.6-0.1,0.9V221.6z"/>
		<path d="M701.3,211.4v3.3h3v1.6h-3v6.3c0,1.4,0.4,2.3,1.6,2.3c0.6,0,1-0.1,1.2-0.1l0.1,1.6c-0.4,0.2-1.1,0.3-1.9,0.3
			c-1,0-1.8-0.3-2.3-0.9c-0.6-0.6-0.8-1.7-0.8-3v-6.3h-1.8v-1.6h1.8V212L701.3,211.4z"/>
		<path d="M706.7,209.3h2.1v7.2h0c0.3-0.6,0.9-1.1,1.5-1.5c0.6-0.4,1.4-0.6,2.2-0.6c1.6,0,4.1,1,4.1,5v6.9h-2.1v-6.7
			c0-1.9-0.7-3.5-2.7-3.5c-1.4,0-2.4,1-2.8,2.1c-0.1,0.3-0.1,0.6-0.1,1v7h-2.1V209.3z"/>
		<path d="M721.1,220.9c0,2.9,1.9,4,4,4c1.5,0,2.4-0.3,3.2-0.6l0.4,1.5c-0.7,0.3-2,0.7-3.9,0.7c-3.6,0-5.7-2.4-5.7-5.9
			c0-3.5,2.1-6.3,5.4-6.3c3.8,0,4.8,3.3,4.8,5.5c0,0.4,0,0.8-0.1,1H721.1z M727.3,219.4c0-1.3-0.6-3.4-2.9-3.4c-2.1,0-3.1,2-3.2,3.4
			H727.3z"/>
		<path d="M737.1,218.5c0-1.5,0-2.7-0.1-3.8h1.9l0.1,2h0c0.9-1.4,2.2-2.3,4.1-2.3c2.8,0,4.9,2.4,4.9,5.9c0,4.2-2.5,6.2-5.3,6.2
			c-1.5,0-2.9-0.7-3.6-1.8h0v6.3h-2.1V218.5z M739.2,221.6c0,0.3,0,0.6,0.1,0.9c0.4,1.5,1.7,2.5,3.2,2.5c2.2,0,3.5-1.8,3.5-4.5
			c0-2.3-1.2-4.3-3.5-4.3c-1.4,0-2.8,1-3.2,2.6c-0.1,0.3-0.1,0.6-0.1,0.9V221.6z"/>
		<path d="M761.2,220.5c0,4.3-3,6.2-5.8,6.2c-3.1,0-5.6-2.3-5.6-6c0-3.9,2.5-6.2,5.8-6.2C759,214.5,761.2,216.9,761.2,220.5z
			 M752,220.6c0,2.5,1.5,4.5,3.5,4.5c2,0,3.5-1.9,3.5-4.5c0-2-1-4.5-3.5-4.5C753.1,216.1,752,218.4,752,220.6z"/>
		<path d="M763.6,224.2c0.6,0.4,1.7,0.8,2.8,0.8c1.5,0,2.3-0.8,2.3-1.7c0-1-0.6-1.6-2.2-2.1c-2.1-0.7-3.1-1.9-3.1-3.3
			c0-1.9,1.5-3.4,4-3.4c1.2,0,2.2,0.3,2.9,0.7l-0.5,1.5c-0.5-0.3-1.3-0.7-2.4-0.7c-1.2,0-1.9,0.7-1.9,1.6c0,1,0.7,1.4,2.2,2
			c2,0.8,3,1.8,3,3.5c0,2-1.6,3.5-4.3,3.5c-1.3,0-2.4-0.3-3.3-0.8L763.6,224.2z"/>
		<path d="M775.8,211.5c0,0.7-0.5,1.3-1.3,1.3c-0.7,0-1.3-0.6-1.3-1.3c0-0.7,0.6-1.3,1.3-1.3C775.3,210.2,775.8,210.7,775.8,211.5z
			 M773.4,226.4v-11.6h2.1v11.6H773.4z"/>
		<path d="M781.6,211.4v3.3h3v1.6h-3v6.3c0,1.4,0.4,2.3,1.6,2.3c0.6,0,1-0.1,1.2-0.1l0.1,1.6c-0.4,0.2-1.1,0.3-1.9,0.3
			c-1,0-1.8-0.3-2.3-0.9c-0.6-0.6-0.8-1.7-0.8-3v-6.3h-1.8v-1.6h1.8V212L781.6,211.4z"/>
		<path d="M789.3,211.5c0,0.7-0.5,1.3-1.3,1.3c-0.7,0-1.3-0.6-1.3-1.3c0-0.7,0.6-1.3,1.3-1.3C788.8,210.2,789.3,210.7,789.3,211.5z
			 M787,226.4v-11.6h2.1v11.6H787z"/>
		<path d="M803.1,220.5c0,4.3-3,6.2-5.8,6.2c-3.1,0-5.6-2.3-5.6-6c0-3.9,2.5-6.2,5.8-6.2C800.8,214.5,803.1,216.9,803.1,220.5z
			 M793.9,220.6c0,2.5,1.5,4.5,3.5,4.5c2,0,3.5-1.9,3.5-4.5c0-2-1-4.5-3.5-4.5C795,216.1,793.9,218.4,793.9,220.6z"/>
		<path d="M805.8,217.9c0-1.2,0-2.2-0.1-3.1h1.9l0.1,1.9h0c0.6-1.1,1.9-2.2,3.8-2.2c1.6,0,4.1,1,4.1,4.9v6.9h-2.1v-6.7
			c0-1.9-0.7-3.4-2.7-3.4c-1.4,0-2.5,1-2.8,2.2c-0.1,0.3-0.1,0.6-0.1,1v7h-2.1V217.9z"/>
		<path d="M423.3,249.3c0,4.3-3,6.2-5.8,6.2c-3.1,0-5.6-2.3-5.6-6c0-3.9,2.5-6.2,5.8-6.2C421,243.3,423.3,245.7,423.3,249.3z
			 M414,249.4c0,2.5,1.5,4.5,3.5,4.5c2,0,3.5-1.9,3.5-4.5c0-2-1-4.5-3.5-4.5C415.1,244.9,414,247.2,414,249.4z"/>
		<path d="M426.1,255.2v-10h-1.6v-1.6h1.6V243c0-1.6,0.4-3.1,1.3-4.1c0.8-0.8,1.8-1.1,2.8-1.1c0.7,0,1.4,0.2,1.8,0.3l-0.3,1.6
			c-0.3-0.1-0.7-0.3-1.3-0.3c-1.8,0-2.3,1.6-2.3,3.4v0.6h2.8v1.6h-2.8v10H426.1z"/>
		<path d="M440.6,240.2v3.3h3v1.6h-3v6.3c0,1.4,0.4,2.3,1.6,2.3c0.6,0,1-0.1,1.2-0.1l0.1,1.6c-0.4,0.2-1.1,0.3-1.9,0.3
			c-1,0-1.8-0.3-2.3-0.9c-0.6-0.6-0.8-1.7-0.8-3v-6.3h-1.8v-1.6h1.8v-2.8L440.6,240.2z"/>
		<path d="M446,238.1h2.1v7.2h0c0.3-0.6,0.9-1.1,1.5-1.5c0.6-0.4,1.4-0.6,2.2-0.6c1.6,0,4.1,1,4.1,5v6.9h-2.1v-6.7
			c0-1.9-0.7-3.5-2.7-3.5c-1.4,0-2.4,1-2.8,2.1c-0.1,0.3-0.1,0.6-0.1,1v7H446V238.1z"/>
		<path d="M460.5,249.7c0,2.9,1.9,4,4,4c1.5,0,2.4-0.3,3.2-0.6l0.4,1.5c-0.7,0.3-2,0.7-3.9,0.7c-3.6,0-5.7-2.4-5.7-5.9
			c0-3.5,2.1-6.3,5.4-6.3c3.8,0,4.8,3.3,4.8,5.5c0,0.4,0,0.8-0.1,1H460.5z M466.7,248.2c0-1.3-0.6-3.4-2.9-3.4c-2.1,0-3.1,2-3.2,3.4
			H466.7z"/>
		<path d="M486.4,238.1v14c0,1,0,2.2,0.1,3h-1.9l-0.1-2h0c-0.6,1.3-2.1,2.3-4,2.3c-2.8,0-5-2.4-5-5.9c0-3.9,2.4-6.2,5.2-6.2
			c1.8,0,3,0.8,3.5,1.8h0v-6.9H486.4z M484.3,248.3c0-0.3,0-0.6-0.1-0.9c-0.3-1.3-1.5-2.4-3-2.4c-2.2,0-3.5,1.9-3.5,4.5
			c0,2.4,1.2,4.3,3.4,4.3c1.4,0,2.7-0.9,3.1-2.5c0.1-0.3,0.1-0.6,0.1-0.9V248.3z"/>
		<path d="M489.9,247.2c0-1.4,0-2.5-0.1-3.6h1.8l0.1,2.3h0.1c0.5-1.6,1.8-2.5,3.2-2.5c0.2,0,0.4,0,0.6,0.1v2c-0.2,0-0.4-0.1-0.7-0.1
			c-1.5,0-2.5,1.1-2.8,2.7c0,0.3-0.1,0.6-0.1,1v6.2h-2.1V247.2z"/>
		<path d="M507.5,252c0,1.2,0,2.3,0.1,3.2h-1.9l-0.1-1.9h0c-0.6,0.9-1.8,2.2-3.8,2.2c-1.8,0-4-1-4-5.1v-6.8h2.1v6.4
			c0,2.2,0.7,3.7,2.6,3.7c1.4,0,2.4-1,2.8-1.9c0.1-0.3,0.2-0.7,0.2-1.1v-7.1h2.1V252z"/>
		<path d="M511,246.7c0-1.2,0-2.2-0.1-3.1h1.8l0.1,1.9h0.1c0.6-1.1,1.7-2.1,3.6-2.1c1.6,0,2.8,1,3.3,2.3h0c0.4-0.6,0.8-1.2,1.3-1.5
			c0.7-0.5,1.5-0.8,2.6-0.8c1.5,0,3.8,1,3.8,5v6.8h-2.1v-6.6c0-2.2-0.8-3.6-2.5-3.6c-1.2,0-2.1,0.9-2.5,1.9
			c-0.1,0.3-0.2,0.7-0.2,1.1v7.2h-2.1v-7c0-1.8-0.8-3.2-2.4-3.2c-1.3,0-2.3,1.1-2.6,2.1c-0.1,0.3-0.2,0.7-0.2,1v7H511V246.7z"/>
		<path d="M530.7,253c0.6,0.4,1.7,0.8,2.8,0.8c1.5,0,2.3-0.8,2.3-1.7c0-1-0.6-1.6-2.2-2.1c-2.1-0.7-3.1-1.9-3.1-3.3
			c0-1.9,1.5-3.4,4-3.4c1.2,0,2.2,0.3,2.9,0.7l-0.5,1.5c-0.5-0.3-1.3-0.7-2.4-0.7c-1.2,0-1.9,0.7-1.9,1.6c0,1,0.7,1.4,2.2,2
			c2,0.8,3,1.8,3,3.5c0,2-1.6,3.5-4.3,3.5c-1.3,0-2.4-0.3-3.3-0.8L530.7,253z"/>
		<path d="M552,255.2l-0.2-1.5h-0.1c-0.6,0.9-1.9,1.7-3.6,1.7c-2.4,0-3.6-1.7-3.6-3.3c0-2.8,2.5-4.3,7-4.3v-0.2c0-1-0.3-2.7-2.6-2.7
			c-1.1,0-2.2,0.3-3,0.9l-0.5-1.4c1-0.6,2.4-1,3.8-1c3.6,0,4.4,2.4,4.4,4.8v4.3c0,1,0,2,0.2,2.8H552z M551.7,249.2
			c-2.3,0-4.9,0.4-4.9,2.6c0,1.4,0.9,2,2,2c1.5,0,2.5-1,2.8-1.9c0.1-0.2,0.1-0.5,0.1-0.7V249.2z"/>
		<path d="M557.2,246.7c0-1.2,0-2.2-0.1-3.1h1.9l0.1,1.9h0c0.6-1.1,1.9-2.2,3.8-2.2c1.6,0,4.1,1,4.1,4.9v6.9H565v-6.7
			c0-1.9-0.7-3.4-2.7-3.4c-1.4,0-2.5,1-2.8,2.2c-0.1,0.3-0.1,0.6-0.1,1v7h-2.1V246.7z"/>
		<path d="M580.5,238.1v14c0,1,0,2.2,0.1,3h-1.9l-0.1-2h0c-0.6,1.3-2.1,2.3-4,2.3c-2.8,0-5-2.4-5-5.9c0-3.9,2.4-6.2,5.2-6.2
			c1.8,0,3,0.8,3.5,1.8h0v-6.9H580.5z M578.4,248.3c0-0.3,0-0.6-0.1-0.9c-0.3-1.3-1.5-2.4-3-2.4c-2.2,0-3.5,1.9-3.5,4.5
			c0,2.4,1.2,4.3,3.4,4.3c1.4,0,2.7-0.9,3.1-2.5c0.1-0.3,0.1-0.6,0.1-0.9V248.3z"/>
		<path d="M590,243.5l1.5,5.9c0.3,1.3,0.6,2.5,0.9,3.7h0.1c0.3-1.2,0.6-2.4,1-3.7l1.9-5.9h1.8l1.8,5.8c0.4,1.4,0.8,2.6,1,3.8h0.1
			c0.2-1.2,0.5-2.4,0.9-3.8l1.7-5.8h2.1l-3.7,11.6H599l-1.8-5.5c-0.4-1.3-0.7-2.4-1-3.8h0c-0.3,1.4-0.6,2.6-1.1,3.8l-1.9,5.5h-1.9
			l-3.5-11.6H590z"/>
		<path d="M606.8,238.1h2.1v7.2h0c0.3-0.6,0.9-1.1,1.5-1.5c0.6-0.4,1.4-0.6,2.2-0.6c1.6,0,4.1,1,4.1,5v6.9h-2.1v-6.7
			c0-1.9-0.7-3.5-2.7-3.5c-1.4,0-2.4,1-2.8,2.1c-0.1,0.3-0.1,0.6-0.1,1v7h-2.1V238.1z"/>
		<path d="M621.3,249.7c0,2.9,1.9,4,4,4c1.5,0,2.4-0.3,3.2-0.6l0.4,1.5c-0.7,0.3-2,0.7-3.9,0.7c-3.6,0-5.7-2.4-5.7-5.9
			c0-3.5,2.1-6.3,5.4-6.3c3.8,0,4.8,3.3,4.8,5.5c0,0.4,0,0.8-0.1,1H621.3z M627.5,248.2c0-1.3-0.6-3.4-2.9-3.4c-2.1,0-3.1,2-3.2,3.4
			H627.5z"/>
		<path d="M632.1,247.2c0-1.4,0-2.5-0.1-3.6h1.8l0.1,2.3h0.1c0.5-1.6,1.8-2.5,3.2-2.5c0.2,0,0.4,0,0.6,0.1v2c-0.2,0-0.4-0.1-0.7-0.1
			c-1.5,0-2.5,1.1-2.8,2.7c0,0.3-0.1,0.6-0.1,1v6.2h-2.1V247.2z"/>
		<path d="M640.9,249.7c0,2.9,1.9,4,4,4c1.5,0,2.4-0.3,3.2-0.6l0.4,1.5c-0.7,0.3-2,0.7-3.9,0.7c-3.6,0-5.7-2.4-5.7-5.9
			c0-3.5,2.1-6.3,5.4-6.3c3.8,0,4.8,3.3,4.8,5.5c0,0.4,0,0.8-0.1,1H640.9z M647.1,248.2c0-1.3-0.6-3.4-2.9-3.4c-2.1,0-3.1,2-3.2,3.4
			H647.1z"/>
		<path d="M659.4,240.2v3.3h3v1.6h-3v6.3c0,1.4,0.4,2.3,1.6,2.3c0.6,0,1-0.1,1.2-0.1l0.1,1.6c-0.4,0.2-1.1,0.3-1.9,0.3
			c-1,0-1.8-0.3-2.3-0.9c-0.6-0.6-0.8-1.7-0.8-3v-6.3h-1.8v-1.6h1.8v-2.8L659.4,240.2z"/>
		<path d="M675.2,249.3c0,4.3-3,6.2-5.8,6.2c-3.1,0-5.6-2.3-5.6-6c0-3.9,2.5-6.2,5.8-6.2C672.9,243.3,675.2,245.7,675.2,249.3z
			 M665.9,249.4c0,2.5,1.5,4.5,3.5,4.5c2,0,3.5-1.9,3.5-4.5c0-2-1-4.5-3.5-4.5C667,244.9,665.9,247.2,665.9,249.4z"/>
		<path d="M683.7,243.5l2.3,6.5c0.4,1.1,0.7,2,0.9,3h0.1c0.3-1,0.6-1.9,1-3l2.3-6.5h2.2l-4.6,11.6h-2l-4.4-11.6H683.7z"/>
		<path d="M696.8,240.3c0,0.7-0.5,1.3-1.3,1.3c-0.7,0-1.3-0.6-1.3-1.3c0-0.7,0.6-1.3,1.3-1.3C696.3,239,696.8,239.5,696.8,240.3z
			 M694.5,255.2v-11.6h2.1v11.6H694.5z"/>
		<path d="M699.8,253c0.6,0.4,1.7,0.8,2.8,0.8c1.5,0,2.3-0.8,2.3-1.7c0-1-0.6-1.6-2.2-2.1c-2.1-0.7-3.1-1.9-3.1-3.3
			c0-1.9,1.5-3.4,4-3.4c1.2,0,2.2,0.3,2.9,0.7l-0.5,1.5c-0.5-0.3-1.3-0.7-2.4-0.7c-1.2,0-1.9,0.7-1.9,1.6c0,1,0.7,1.4,2.2,2
			c2,0.8,3,1.8,3,3.5c0,2-1.6,3.5-4.3,3.5c-1.3,0-2.4-0.3-3.3-0.8L699.8,253z"/>
		<path d="M719.3,252c0,1.2,0,2.3,0.1,3.2h-1.9l-0.1-1.9h0c-0.6,0.9-1.8,2.2-3.8,2.2c-1.8,0-4-1-4-5.1v-6.8h2.1v6.4
			c0,2.2,0.7,3.7,2.6,3.7c1.4,0,2.4-1,2.8-1.9c0.1-0.3,0.2-0.7,0.2-1.1v-7.1h2.1V252z"/>
		<path d="M729.2,255.2l-0.2-1.5H729c-0.6,0.9-1.9,1.7-3.6,1.7c-2.4,0-3.6-1.7-3.6-3.3c0-2.8,2.5-4.3,7-4.3v-0.2
			c0-1-0.3-2.7-2.6-2.7c-1.1,0-2.2,0.3-3,0.9l-0.5-1.4c1-0.6,2.4-1,3.8-1c3.6,0,4.4,2.4,4.4,4.8v4.3c0,1,0,2,0.2,2.8H729.2z
			 M728.9,249.2c-2.3,0-4.9,0.4-4.9,2.6c0,1.4,0.9,2,2,2c1.5,0,2.5-1,2.8-1.9c0.1-0.2,0.1-0.5,0.1-0.7V249.2z"/>
		<path d="M734.4,238.1h2.1v17h-2.1V238.1z"/>
		<path d="M742.4,240.3c0,0.7-0.5,1.3-1.3,1.3c-0.7,0-1.3-0.6-1.3-1.3c0-0.7,0.6-1.3,1.3-1.3C741.9,239,742.4,239.5,742.4,240.3z
			 M740,255.2v-11.6h2.1v11.6H740z"/>
		<path d="M744.3,253.9l5.3-6.8c0.5-0.6,1-1.2,1.5-1.8v0h-6.3v-1.7h8.9l0,1.3l-5.2,6.7c-0.5,0.6-1,1.2-1.5,1.8v0h6.8v1.7h-9.4V253.9
			z"/>
		<path d="M756.9,249.7c0,2.9,1.9,4,4,4c1.5,0,2.4-0.3,3.2-0.6l0.4,1.5c-0.7,0.3-2,0.7-3.9,0.7c-3.6,0-5.7-2.4-5.7-5.9
			c0-3.5,2.1-6.3,5.4-6.3c3.8,0,4.8,3.3,4.8,5.5c0,0.4,0,0.8-0.1,1H756.9z M763.1,248.2c0-1.3-0.6-3.4-2.9-3.4c-2.1,0-3.1,2-3.2,3.4
			H763.1z"/>
		<path d="M775.4,240.2v3.3h3v1.6h-3v6.3c0,1.4,0.4,2.3,1.6,2.3c0.6,0,1-0.1,1.2-0.1l0.1,1.6c-0.4,0.2-1.1,0.3-1.9,0.3
			c-1,0-1.8-0.3-2.3-0.9c-0.6-0.6-0.8-1.7-0.8-3v-6.3h-1.8v-1.6h1.8v-2.8L775.4,240.2z"/>
		<path d="M780.8,238.1h2.1v7.2h0c0.3-0.6,0.9-1.1,1.5-1.5c0.6-0.4,1.4-0.6,2.2-0.6c1.6,0,4.1,1,4.1,5v6.9h-2.1v-6.7
			c0-1.9-0.7-3.5-2.7-3.5c-1.4,0-2.4,1-2.8,2.1c-0.1,0.3-0.1,0.6-0.1,1v7h-2.1V238.1z"/>
		<path d="M795.3,249.7c0,2.9,1.9,4,4,4c1.5,0,2.4-0.3,3.2-0.6l0.4,1.5c-0.7,0.3-2,0.7-3.9,0.7c-3.6,0-5.7-2.4-5.7-5.9
			c0-3.5,2.1-6.3,5.4-6.3c3.8,0,4.8,3.3,4.8,5.5c0,0.4,0,0.8-0.1,1H795.3z M801.5,248.2c0-1.3-0.6-3.4-2.9-3.4c-2.1,0-3.1,2-3.2,3.4
			H801.5z"/>
		<path d="M422.8,266.9v14c0,1,0,2.2,0.1,3H421l-0.1-2h0c-0.6,1.3-2.1,2.3-4,2.3c-2.8,0-5-2.4-5-5.9c0-3.9,2.4-6.2,5.2-6.2
			c1.8,0,3,0.8,3.5,1.8h0v-6.9H422.8z M420.7,277.1c0-0.3,0-0.6-0.1-0.9c-0.3-1.3-1.5-2.4-3-2.4c-2.2,0-3.5,1.9-3.5,4.5
			c0,2.4,1.2,4.3,3.4,4.3c1.4,0,2.7-0.9,3.1-2.5c0.1-0.3,0.1-0.6,0.1-0.9V277.1z"/>
		<path d="M426.3,276c0-1.4,0-2.5-0.1-3.6h1.8l0.1,2.3h0.1c0.5-1.6,1.8-2.5,3.2-2.5c0.2,0,0.4,0,0.6,0.1v2c-0.2,0-0.4-0.1-0.7-0.1
			c-1.5,0-2.5,1.1-2.8,2.7c0,0.3-0.1,0.6-0.1,1v6.2h-2.1V276z"/>
		<path d="M443.9,280.8c0,1.2,0,2.3,0.1,3.2h-1.9l-0.1-1.9h0c-0.6,0.9-1.8,2.2-3.8,2.2c-1.8,0-4-1-4-5.1v-6.8h2.1v6.4
			c0,2.2,0.7,3.7,2.6,3.7c1.4,0,2.4-1,2.8-1.9c0.1-0.3,0.2-0.7,0.2-1.1v-7.1h2.1V280.8z"/>
		<path d="M447.4,275.5c0-1.2,0-2.2-0.1-3.1h1.8l0.1,1.9h0.1c0.6-1.1,1.7-2.1,3.6-2.1c1.6,0,2.8,1,3.3,2.3h0
			c0.4-0.6,0.8-1.2,1.3-1.5c0.7-0.5,1.5-0.8,2.6-0.8c1.5,0,3.8,1,3.8,5v6.8h-2.1v-6.6c0-2.2-0.8-3.6-2.5-3.6c-1.2,0-2.1,0.9-2.5,1.9
			c-0.1,0.3-0.2,0.7-0.2,1.1v7.2h-2.1v-7c0-1.8-0.8-3.2-2.4-3.2c-1.3,0-2.3,1.1-2.6,2.1c-0.1,0.3-0.2,0.7-0.2,1v7h-2.1V275.5z"/>
		<path d="M472.5,266.9h2.1v7.2h0c0.3-0.6,0.9-1.1,1.5-1.5c0.6-0.4,1.4-0.6,2.2-0.6c1.6,0,4.1,1,4.1,5v6.9h-2.1v-6.7
			c0-1.9-0.7-3.5-2.7-3.5c-1.4,0-2.4,1-2.8,2.1c-0.1,0.3-0.1,0.6-0.1,1v7h-2.1V266.9z"/>
		<path d="M496.3,278.1c0,4.3-3,6.2-5.8,6.2c-3.1,0-5.6-2.3-5.6-6c0-3.9,2.5-6.2,5.8-6.2C494,272.1,496.3,274.5,496.3,278.1z
			 M487.1,278.2c0,2.5,1.5,4.5,3.5,4.5c2,0,3.5-1.9,3.5-4.5c0-2-1-4.5-3.5-4.5C488.2,273.7,487.1,276,487.1,278.2z"/>
		<path d="M499,266.9h2.1v17H499V266.9z"/>
		<path d="M515.1,278.1c0,4.3-3,6.2-5.8,6.2c-3.1,0-5.6-2.3-5.6-6c0-3.9,2.5-6.2,5.8-6.2C512.9,272.1,515.1,274.5,515.1,278.1z
			 M505.9,278.2c0,2.5,1.5,4.5,3.5,4.5c2,0,3.5-1.9,3.5-4.5c0-2-1-4.5-3.5-4.5C507,273.7,505.9,276,505.9,278.2z"/>
		<path d="M527.8,272.3c0,0.8-0.1,1.8-0.1,3.2v6.7c0,2.7-0.5,4.3-1.7,5.3c-1.1,1.1-2.8,1.4-4.2,1.4c-1.4,0-2.9-0.3-3.9-1l0.5-1.6
			c0.8,0.5,2,0.9,3.4,0.9c2.2,0,3.7-1.1,3.7-4.1V282h0c-0.6,1.1-1.9,1.9-3.7,1.9c-2.9,0-4.9-2.4-4.9-5.7c0-3.9,2.6-6.2,5.2-6.2
			c2,0,3.1,1.1,3.6,2h0l0.1-1.8H527.8z M525.6,276.9c0-0.4,0-0.7-0.1-1c-0.4-1.2-1.4-2.2-3-2.2c-2,0-3.5,1.7-3.5,4.4
			c0,2.3,1.2,4.2,3.4,4.2c1.3,0,2.5-0.8,2.9-2.2c0.1-0.4,0.2-0.8,0.2-1.1V276.9z"/>
		<path d="M531.1,276c0-1.4,0-2.5-0.1-3.6h1.8l0.1,2.3h0.1c0.5-1.6,1.8-2.5,3.2-2.5c0.2,0,0.4,0,0.6,0.1v2c-0.2,0-0.4-0.1-0.7-0.1
			c-1.5,0-2.5,1.1-2.8,2.7c0,0.3-0.1,0.6-0.1,1v6.2h-2.1V276z"/>
		<path d="M545.2,284l-0.2-1.5H545c-0.6,0.9-1.9,1.7-3.6,1.7c-2.4,0-3.6-1.7-3.6-3.3c0-2.8,2.5-4.3,7-4.3v-0.2c0-1-0.3-2.7-2.6-2.7
			c-1.1,0-2.2,0.3-3,0.9l-0.5-1.4c1-0.6,2.4-1,3.8-1c3.6,0,4.4,2.4,4.4,4.8v4.3c0,1,0,2,0.2,2.8H545.2z M544.9,278
			c-2.3,0-4.9,0.4-4.9,2.6c0,1.4,0.9,2,2,2c1.5,0,2.5-1,2.8-1.9c0.1-0.2,0.1-0.5,0.1-0.7V278z"/>
		<path d="M550.4,275.5c0-1.2,0-2.2-0.1-3.1h1.8l0.1,1.9h0.1c0.6-1.1,1.7-2.1,3.6-2.1c1.6,0,2.8,1,3.3,2.3h0
			c0.4-0.6,0.8-1.2,1.3-1.5c0.7-0.5,1.5-0.8,2.6-0.8c1.5,0,3.8,1,3.8,5v6.8h-2.1v-6.6c0-2.2-0.8-3.6-2.5-3.6c-1.2,0-2.1,0.9-2.5,1.9
			c-0.1,0.3-0.2,0.7-0.2,1.1v7.2h-2.1v-7c0-1.8-0.8-3.2-2.4-3.2c-1.3,0-2.3,1.1-2.6,2.1c-0.1,0.3-0.2,0.7-0.2,1v7h-2.1V275.5z"/>
		<path d="M570.1,281.8c0.6,0.4,1.7,0.8,2.8,0.8c1.5,0,2.3-0.8,2.3-1.7c0-1-0.6-1.6-2.2-2.1c-2.1-0.7-3.1-1.9-3.1-3.3
			c0-1.9,1.5-3.4,4-3.4c1.2,0,2.2,0.3,2.9,0.7l-0.5,1.5c-0.5-0.3-1.3-0.7-2.4-0.7c-1.2,0-1.9,0.7-1.9,1.6c0,1,0.7,1.4,2.2,2
			c2,0.8,3,1.8,3,3.5c0,2-1.6,3.5-4.3,3.5c-1.3,0-2.4-0.3-3.3-0.8L570.1,281.8z"/>
		<path d="M579.1,282.7c0-0.9,0.6-1.5,1.4-1.5s1.4,0.6,1.4,1.5c0,0.9-0.6,1.5-1.4,1.5C579.7,284.2,579.1,283.6,579.1,282.7z"/>
	</g>
	<g>
		<path d="M412.8,319.5c1.1-0.2,2.6-0.3,4-0.3c2.2,0,3.7,0.4,4.7,1.3c0.8,0.7,1.3,1.8,1.3,3.1c0,2.1-1.3,3.6-3,4.1v0.1
			c1.2,0.4,2,1.6,2.4,3.3c0.5,2.3,0.9,3.8,1.2,4.4h-2.2c-0.3-0.5-0.6-1.8-1.1-3.9c-0.5-2.2-1.3-3.1-3.2-3.1h-2v7h-2.1V319.5z
			 M414.9,326.9h2.1c2.2,0,3.6-1.2,3.6-3.1c0-2.1-1.5-3-3.7-3c-1,0-1.7,0.1-2.1,0.2V326.9z"/>
		<path d="M426.9,330.1c0,2.9,1.9,4,4,4c1.5,0,2.4-0.3,3.2-0.6l0.4,1.5c-0.7,0.3-2,0.7-3.9,0.7c-3.6,0-5.7-2.4-5.7-5.9
			s2.1-6.3,5.4-6.3c3.8,0,4.8,3.3,4.8,5.5c0,0.4,0,0.8-0.1,1H426.9z M433.1,328.6c0-1.3-0.6-3.4-2.9-3.4c-2.1,0-3.1,2-3.2,3.4H433.1
			z"/>
		<path d="M444.2,335.5L444,334H444c-0.6,0.9-1.9,1.7-3.6,1.7c-2.4,0-3.6-1.7-3.6-3.3c0-2.8,2.5-4.3,7-4.3v-0.2c0-1-0.3-2.7-2.6-2.7
			c-1.1,0-2.2,0.3-3,0.9l-0.5-1.4c1-0.6,2.4-1,3.8-1c3.6,0,4.4,2.4,4.4,4.8v4.3c0,1,0,2,0.2,2.8H444.2z M443.9,329.6
			c-2.3,0-4.9,0.4-4.9,2.6c0,1.4,0.9,2,2,2c1.5,0,2.5-1,2.8-1.9c0.1-0.2,0.1-0.5,0.1-0.7V329.6z"/>
		<path d="M449.4,318.5h2.1v17h-2.1V318.5z"/>
		<path d="M470.6,329.6c0,4.3-3,6.2-5.8,6.2c-3.1,0-5.6-2.3-5.6-6c0-3.9,2.5-6.2,5.8-6.2C468.4,323.6,470.6,326,470.6,329.6z
			 M461.4,329.7c0,2.5,1.5,4.5,3.5,4.5c2,0,3.5-1.9,3.5-4.5c0-2-1-4.5-3.5-4.5C462.5,325.2,461.4,327.5,461.4,329.7z"/>
		<path d="M473.3,327.5c0-1.4,0-2.5-0.1-3.6h1.8l0.1,2.3h0.1c0.5-1.6,1.8-2.5,3.2-2.5c0.2,0,0.4,0,0.6,0.1v2c-0.2,0-0.4-0.1-0.7-0.1
			c-1.5,0-2.5,1.1-2.8,2.7c0,0.3-0.1,0.6-0.1,1v6.2h-2.1V327.5z"/>
		<path d="M487.4,330.1c0,2.9,1.9,4,4,4c1.5,0,2.4-0.3,3.2-0.6l0.4,1.5c-0.7,0.3-2,0.7-3.9,0.7c-3.6,0-5.7-2.4-5.7-5.9
			s2.1-6.3,5.4-6.3c3.8,0,4.8,3.3,4.8,5.5c0,0.4,0,0.8-0.1,1H487.4z M493.6,328.6c0-1.3-0.6-3.4-2.9-3.4c-2.1,0-3.1,2-3.2,3.4H493.6
			z"/>
		<path d="M498.2,318.5h2.1v17h-2.1V318.5z"/>
		<path d="M505.1,330.1c0,2.9,1.9,4,4,4c1.5,0,2.4-0.3,3.2-0.6l0.4,1.5c-0.7,0.3-2,0.7-3.9,0.7c-3.6,0-5.7-2.4-5.7-5.9
			s2.1-6.3,5.4-6.3c3.8,0,4.8,3.3,4.8,5.5c0,0.4,0,0.8-0.1,1H505.1z M511.3,328.6c0-1.3-0.6-3.4-2.9-3.4c-2.1,0-3.1,2-3.2,3.4H511.3
			z"/>
		<path d="M524.2,335.1c-0.6,0.3-1.8,0.7-3.3,0.7c-3.5,0-5.8-2.4-5.8-5.9c0-3.6,2.4-6.2,6.2-6.2c1.2,0,2.4,0.3,2.9,0.6l-0.5,1.6
			c-0.5-0.3-1.3-0.6-2.4-0.6c-2.7,0-4.1,2-4.1,4.4c0,2.7,1.7,4.3,4,4.3c1.2,0,2-0.3,2.6-0.6L524.2,335.1z"/>
		<path d="M529.5,320.5v3.3h3v1.6h-3v6.3c0,1.4,0.4,2.3,1.6,2.3c0.6,0,1-0.1,1.2-0.1l0.1,1.6c-0.4,0.2-1.1,0.3-1.9,0.3
			c-1,0-1.8-0.3-2.3-0.9c-0.6-0.6-0.8-1.7-0.8-3v-6.3h-1.8v-1.6h1.8v-2.8L529.5,320.5z"/>
		<path d="M534.9,327.5c0-1.4,0-2.5-0.1-3.6h1.8l0.1,2.3h0.1c0.5-1.6,1.8-2.5,3.2-2.5c0.2,0,0.4,0,0.6,0.1v2c-0.2,0-0.4-0.1-0.7-0.1
			c-1.5,0-2.5,1.1-2.8,2.7c0,0.3-0.1,0.6-0.1,1v6.2h-2.1V327.5z"/>
		<path d="M553.1,329.6c0,4.3-3,6.2-5.8,6.2c-3.1,0-5.6-2.3-5.6-6c0-3.9,2.5-6.2,5.8-6.2C550.8,323.6,553.1,326,553.1,329.6z
			 M543.8,329.7c0,2.5,1.5,4.5,3.5,4.5c2,0,3.5-1.9,3.5-4.5c0-2-1-4.5-3.5-4.5C544.9,325.2,543.8,327.5,543.8,329.7z"/>
		<path d="M555.7,327c0-1.2,0-2.2-0.1-3.1h1.9l0.1,1.9h0c0.6-1.1,1.9-2.2,3.8-2.2c1.6,0,4.1,1,4.1,4.9v6.9h-2.1v-6.7
			c0-1.9-0.7-3.4-2.7-3.4c-1.4,0-2.5,1-2.8,2.2c-0.1,0.3-0.1,0.6-0.1,1v7h-2.1V327z"/>
		<path d="M571.4,320.6c0,0.7-0.5,1.3-1.3,1.3c-0.7,0-1.3-0.6-1.3-1.3c0-0.7,0.6-1.3,1.3-1.3C570.9,319.3,571.4,319.9,571.4,320.6z
			 M569,335.5v-11.6h2.1v11.6H569z"/>
		<path d="M582.9,335.1c-0.6,0.3-1.8,0.7-3.3,0.7c-3.5,0-5.8-2.4-5.8-5.9c0-3.6,2.4-6.2,6.2-6.2c1.2,0,2.4,0.3,2.9,0.6l-0.5,1.6
			c-0.5-0.3-1.3-0.6-2.4-0.6c-2.7,0-4.1,2-4.1,4.4c0,2.7,1.7,4.3,4,4.3c1.2,0,2-0.3,2.6-0.6L582.9,335.1z"/>
		<path d="M600.5,318.5v14c0,1,0,2.2,0.1,3h-1.9l-0.1-2h0c-0.6,1.3-2.1,2.3-4,2.3c-2.8,0-5-2.4-5-5.9c0-3.9,2.4-6.2,5.2-6.2
			c1.8,0,3,0.8,3.5,1.8h0v-6.9H600.5z M598.4,328.6c0-0.3,0-0.6-0.1-0.9c-0.3-1.3-1.5-2.4-3-2.4c-2.2,0-3.5,1.9-3.5,4.5
			c0,2.4,1.2,4.3,3.4,4.3c1.4,0,2.7-0.9,3.1-2.5c0.1-0.3,0.1-0.6,0.1-0.9V328.6z"/>
		<path d="M604,327.5c0-1.4,0-2.5-0.1-3.6h1.8l0.1,2.3h0.1c0.5-1.6,1.8-2.5,3.2-2.5c0.2,0,0.4,0,0.6,0.1v2c-0.2,0-0.4-0.1-0.7-0.1
			c-1.5,0-2.5,1.1-2.8,2.7c0,0.3-0.1,0.6-0.1,1v6.2H604V327.5z"/>
		<path d="M621.6,332.3c0,1.2,0,2.3,0.1,3.2h-1.9l-0.1-1.9h0c-0.6,0.9-1.8,2.2-3.8,2.2c-1.8,0-4-1-4-5.1v-6.8h2.1v6.4
			c0,2.2,0.7,3.7,2.6,3.7c1.4,0,2.4-1,2.8-1.9c0.1-0.3,0.2-0.7,0.2-1.1v-7.1h2.1V332.3z"/>
		<path d="M625.1,327c0-1.2,0-2.2-0.1-3.1h1.8l0.1,1.9h0.1c0.6-1.1,1.7-2.1,3.6-2.1c1.6,0,2.8,1,3.3,2.3h0c0.4-0.6,0.8-1.2,1.3-1.5
			c0.7-0.5,1.5-0.8,2.6-0.8c1.5,0,3.8,1,3.8,5v6.8h-2.1v-6.6c0-2.2-0.8-3.6-2.5-3.6c-1.2,0-2.1,0.9-2.5,1.9
			c-0.1,0.3-0.2,0.7-0.2,1.1v7.2h-2.1v-7c0-1.8-0.8-3.2-2.4-3.2c-1.3,0-2.3,1.1-2.6,2.1c-0.1,0.3-0.2,0.7-0.2,1v7h-2.1V327z"/>
		<path d="M644.8,333.3c0.6,0.4,1.7,0.8,2.8,0.8c1.5,0,2.3-0.8,2.3-1.7c0-1-0.6-1.6-2.2-2.1c-2.1-0.7-3.1-1.9-3.1-3.3
			c0-1.9,1.5-3.4,4-3.4c1.2,0,2.2,0.3,2.9,0.7l-0.5,1.5c-0.5-0.3-1.3-0.7-2.4-0.7c-1.2,0-1.9,0.7-1.9,1.6c0,1,0.7,1.4,2.2,2
			c2,0.8,3,1.8,3,3.5c0,2-1.6,3.5-4.3,3.5c-1.3,0-2.4-0.3-3.3-0.8L644.8,333.3z"/>
		<path d="M653.9,334.3c0-0.9,0.6-1.5,1.4-1.5s1.4,0.6,1.4,1.5c0,0.9-0.6,1.5-1.4,1.5C654.4,335.8,653.9,335.1,653.9,334.3z"/>
	</g>
	<g>
		<path d="M412.8,371.8c1.3-0.2,2.8-0.3,4.4-0.3c3,0,5.1,0.7,6.6,2c1.4,1.3,2.3,3.2,2.3,5.8c0,2.6-0.8,4.8-2.3,6.3
			c-1.5,1.5-4,2.3-7.2,2.3c-1.5,0-2.7-0.1-3.8-0.2V371.8z M414.9,386.1c0.5,0.1,1.3,0.1,2.1,0.1c4.5,0,6.9-2.5,6.9-6.9
			c0-3.8-2.1-6.2-6.6-6.2c-1.1,0-1.9,0.1-2.4,0.2V386.1z"/>
		<path d="M428.7,379.8c0-1.4,0-2.5-0.1-3.6h1.8l0.1,2.3h0.1c0.5-1.6,1.8-2.5,3.2-2.5c0.2,0,0.4,0,0.6,0.1v2c-0.2,0-0.4-0.1-0.7-0.1
			c-1.5,0-2.5,1.1-2.8,2.7c0,0.3-0.1,0.6-0.1,1v6.2h-2.1V379.8z"/>
		<path d="M446.3,384.6c0,1.2,0,2.3,0.1,3.2h-1.9l-0.1-1.9h0c-0.6,0.9-1.8,2.2-3.8,2.2c-1.8,0-4-1-4-5.1v-6.8h2.1v6.4
			c0,2.2,0.7,3.7,2.6,3.7c1.4,0,2.4-1,2.8-1.9c0.1-0.3,0.2-0.7,0.2-1.1v-7.1h2.1V384.6z"/>
		<path d="M449.8,379.3c0-1.2,0-2.2-0.1-3.1h1.8l0.1,1.9h0.1c0.6-1.1,1.7-2.1,3.6-2.1c1.6,0,2.8,1,3.3,2.3h0
			c0.4-0.6,0.8-1.2,1.3-1.5c0.7-0.5,1.5-0.8,2.6-0.8c1.5,0,3.8,1,3.8,5v6.8h-2.1v-6.6c0-2.2-0.8-3.6-2.5-3.6c-1.2,0-2.1,0.9-2.5,1.9
			c-0.1,0.3-0.2,0.7-0.2,1.1v7.2h-2.1v-7c0-1.8-0.8-3.2-2.4-3.2c-1.3,0-2.3,1.1-2.6,2.1c-0.1,0.3-0.2,0.7-0.2,1v7h-2.1V379.3z"/>
		<path d="M474.9,370.7h2.1v7.2h0c0.3-0.6,0.9-1.1,1.5-1.5c0.6-0.4,1.4-0.6,2.2-0.6c1.6,0,4.1,1,4.1,5v6.9h-2.1v-6.7
			c0-1.9-0.7-3.5-2.7-3.5c-1.4,0-2.4,1-2.8,2.1c-0.1,0.3-0.1,0.6-0.1,1v7h-2.1V370.7z"/>
		<path d="M490.6,372.9c0,0.7-0.5,1.3-1.3,1.3c-0.7,0-1.3-0.6-1.3-1.3c0-0.7,0.6-1.3,1.3-1.3C490.1,371.6,490.6,372.1,490.6,372.9z
			 M488.2,387.8v-11.6h2.1v11.6H488.2z"/>
		<path d="M496.4,372.8v3.3h3v1.6h-3v6.3c0,1.4,0.4,2.3,1.6,2.3c0.6,0,1-0.1,1.2-0.1l0.1,1.6c-0.4,0.2-1.1,0.3-1.9,0.3
			c-1,0-1.8-0.3-2.3-0.9c-0.6-0.6-0.8-1.7-0.8-3v-6.3h-1.8v-1.6h1.8v-2.8L496.4,372.8z"/>
		<path d="M501.5,385.6c0.6,0.4,1.7,0.8,2.8,0.8c1.5,0,2.3-0.8,2.3-1.7c0-1-0.6-1.6-2.2-2.1c-2.1-0.7-3.1-1.9-3.1-3.3
			c0-1.9,1.5-3.4,4-3.4c1.2,0,2.2,0.3,2.9,0.7l-0.5,1.5c-0.5-0.3-1.3-0.7-2.4-0.7c-1.2,0-1.9,0.7-1.9,1.6c0,1,0.7,1.4,2.2,2
			c2,0.8,3,1.8,3,3.5c0,2-1.6,3.5-4.3,3.5c-1.3,0-2.4-0.3-3.3-0.8L501.5,385.6z"/>
		<path d="M522.8,387.8l-0.2-1.5h-0.1c-0.6,0.9-1.9,1.7-3.6,1.7c-2.4,0-3.6-1.7-3.6-3.3c0-2.8,2.5-4.3,7-4.3v-0.2
			c0-1-0.3-2.7-2.6-2.7c-1.1,0-2.2,0.3-3,0.9l-0.5-1.4c1-0.6,2.4-1,3.8-1c3.6,0,4.4,2.4,4.4,4.8v4.3c0,1,0,2,0.2,2.8H522.8z
			 M522.5,381.8c-2.3,0-4.9,0.4-4.9,2.6c0,1.4,0.9,2,2,2c1.5,0,2.5-1,2.8-1.9c0.1-0.2,0.1-0.5,0.1-0.7V381.8z"/>
		<path d="M528,379.8c0-1.4,0-2.5-0.1-3.6h1.8l0.1,2.3h0.1c0.5-1.6,1.8-2.5,3.2-2.5c0.2,0,0.4,0,0.6,0.1v2c-0.2,0-0.4-0.1-0.7-0.1
			c-1.5,0-2.5,1.1-2.8,2.7c0,0.3-0.1,0.6-0.1,1v6.2H528V379.8z"/>
		<path d="M536.7,382.3c0,2.9,1.9,4,4,4c1.5,0,2.4-0.3,3.2-0.6l0.4,1.5c-0.7,0.3-2,0.7-3.9,0.7c-3.6,0-5.7-2.4-5.7-5.9
			c0-3.5,2.1-6.3,5.4-6.3c3.8,0,4.8,3.3,4.8,5.5c0,0.4,0,0.8-0.1,1H536.7z M542.9,380.8c0-1.3-0.6-3.4-2.9-3.4c-2.1,0-3.1,2-3.2,3.4
			H542.9z"/>
		<path d="M552.7,379.8c0-1.4,0-2.5-0.1-3.6h1.8l0.1,2.3h0.1c0.5-1.6,1.8-2.5,3.2-2.5c0.2,0,0.4,0,0.6,0.1v2c-0.2,0-0.4-0.1-0.7-0.1
			c-1.5,0-2.5,1.1-2.8,2.7c0,0.3-0.1,0.6-0.1,1v6.2h-2.1V379.8z"/>
		<path d="M561.5,382.3c0,2.9,1.9,4,4,4c1.5,0,2.4-0.3,3.2-0.6l0.4,1.5c-0.7,0.3-2,0.7-3.9,0.7c-3.6,0-5.7-2.4-5.7-5.9
			c0-3.5,2.1-6.3,5.4-6.3c3.8,0,4.8,3.3,4.8,5.5c0,0.4,0,0.8-0.1,1H561.5z M567.6,380.8c0-1.3-0.6-3.4-2.9-3.4c-2.1,0-3.1,2-3.2,3.4
			H567.6z"/>
		<path d="M580.6,387.3c-0.6,0.3-1.8,0.7-3.3,0.7c-3.5,0-5.8-2.4-5.8-5.9c0-3.6,2.4-6.2,6.2-6.2c1.2,0,2.4,0.3,2.9,0.6l-0.5,1.6
			c-0.5-0.3-1.3-0.6-2.4-0.6c-2.7,0-4.1,2-4.1,4.4c0,2.7,1.7,4.3,4,4.3c1.2,0,2-0.3,2.6-0.6L580.6,387.3z"/>
		<path d="M593.4,381.9c0,4.3-3,6.2-5.8,6.2c-3.1,0-5.6-2.3-5.6-6c0-3.9,2.5-6.2,5.8-6.2C591.2,375.9,593.4,378.3,593.4,381.9z
			 M584.2,382c0,2.5,1.5,4.5,3.5,4.5c2,0,3.5-1.9,3.5-4.5c0-2-1-4.5-3.5-4.5C585.3,377.5,584.2,379.8,584.2,382z"/>
		<path d="M606.1,376.1c0,0.8-0.1,1.8-0.1,3.2v6.7c0,2.7-0.5,4.3-1.7,5.3c-1.1,1.1-2.8,1.4-4.2,1.4c-1.4,0-2.9-0.3-3.9-1l0.5-1.6
			c0.8,0.5,2,0.9,3.4,0.9c2.2,0,3.7-1.1,3.7-4.1v-1.3h0c-0.6,1.1-1.9,1.9-3.7,1.9c-2.9,0-4.9-2.4-4.9-5.7c0-3.9,2.6-6.2,5.2-6.2
			c2,0,3.1,1.1,3.6,2h0l0.1-1.8H606.1z M603.9,380.7c0-0.4,0-0.7-0.1-1c-0.4-1.2-1.4-2.2-3-2.2c-2,0-3.5,1.7-3.5,4.4
			c0,2.3,1.2,4.2,3.4,4.2c1.3,0,2.5-0.8,2.9-2.2c0.1-0.4,0.2-0.8,0.2-1.1V380.7z"/>
		<path d="M609.4,379.3c0-1.2,0-2.2-0.1-3.1h1.9l0.1,1.9h0c0.6-1.1,1.9-2.2,3.8-2.2c1.6,0,4.1,1,4.1,4.9v6.9h-2.1v-6.7
			c0-1.9-0.7-3.4-2.7-3.4c-1.4,0-2.5,1-2.8,2.2c-0.1,0.3-0.1,0.6-0.1,1v7h-2.1V379.3z"/>
		<path d="M625,372.9c0,0.7-0.5,1.3-1.3,1.3c-0.7,0-1.3-0.6-1.3-1.3c0-0.7,0.6-1.3,1.3-1.3C624.5,371.6,625,372.1,625,372.9z
			 M622.7,387.8v-11.6h2.1v11.6H622.7z"/>
		<path d="M627,386.5l5.3-6.8c0.5-0.6,1-1.2,1.5-1.8v0h-6.3v-1.7h8.9l0,1.3l-5.2,6.7c-0.5,0.6-1,1.2-1.5,1.8v0h6.8v1.7H627V386.5z"
			/>
		<path d="M639.6,382.3c0,2.9,1.9,4,4,4c1.5,0,2.4-0.3,3.2-0.6l0.4,1.5c-0.7,0.3-2,0.7-3.9,0.7c-3.6,0-5.7-2.4-5.7-5.9
			c0-3.5,2.1-6.3,5.4-6.3c3.8,0,4.8,3.3,4.8,5.5c0,0.4,0,0.8-0.1,1H639.6z M645.8,380.8c0-1.3-0.6-3.4-2.9-3.4c-2.1,0-3.1,2-3.2,3.4
			H645.8z"/>
		<path d="M660.5,370.7v14c0,1,0,2.2,0.1,3h-1.9l-0.1-2h0c-0.6,1.3-2.1,2.3-4,2.3c-2.8,0-5-2.4-5-5.9c0-3.9,2.4-6.2,5.2-6.2
			c1.8,0,3,0.8,3.5,1.8h0v-6.9H660.5z M658.3,380.9c0-0.3,0-0.6-0.1-0.9c-0.3-1.3-1.5-2.4-3-2.4c-2.2,0-3.5,1.9-3.5,4.5
			c0,2.4,1.2,4.3,3.4,4.3c1.4,0,2.7-0.9,3.1-2.5c0.1-0.3,0.1-0.6,0.1-0.9V380.9z"/>
		<path d="M669.9,376.1l1.5,5.9c0.3,1.3,0.6,2.5,0.9,3.7h0.1c0.3-1.2,0.6-2.4,1-3.7l1.9-5.9h1.8l1.8,5.8c0.4,1.4,0.8,2.6,1,3.8h0.1
			c0.2-1.2,0.5-2.4,0.9-3.8l1.7-5.8h2.1l-3.7,11.6h-1.9l-1.8-5.5c-0.4-1.3-0.7-2.4-1-3.8h0c-0.3,1.4-0.6,2.6-1.1,3.8l-1.9,5.5h-1.9
			l-3.5-11.6H669.9z"/>
		<path d="M689.1,372.9c0,0.7-0.5,1.3-1.3,1.3c-0.7,0-1.3-0.6-1.3-1.3c0-0.7,0.6-1.3,1.3-1.3C688.6,371.6,689.1,372.1,689.1,372.9z
			 M686.7,387.8v-11.6h2.1v11.6H686.7z"/>
		<path d="M694.9,372.8v3.3h3v1.6h-3v6.3c0,1.4,0.4,2.3,1.6,2.3c0.6,0,1-0.1,1.2-0.1l0.1,1.6c-0.4,0.2-1.1,0.3-1.9,0.3
			c-1,0-1.8-0.3-2.3-0.9c-0.6-0.6-0.8-1.7-0.8-3v-6.3H691v-1.6h1.8v-2.8L694.9,372.8z"/>
		<path d="M700.3,370.7h2.1v7.2h0c0.3-0.6,0.9-1.1,1.5-1.5c0.6-0.4,1.4-0.6,2.2-0.6c1.6,0,4.1,1,4.1,5v6.9H708v-6.7
			c0-1.9-0.7-3.5-2.7-3.5c-1.4,0-2.4,1-2.8,2.1c-0.1,0.3-0.1,0.6-0.1,1v7h-2.1V370.7z"/>
		<path d="M725.1,387.8l-0.2-1.5h-0.1c-0.6,0.9-1.9,1.7-3.6,1.7c-2.4,0-3.6-1.7-3.6-3.3c0-2.8,2.5-4.3,7-4.3v-0.2
			c0-1-0.3-2.7-2.6-2.7c-1.1,0-2.2,0.3-3,0.9l-0.5-1.4c1-0.6,2.4-1,3.8-1c3.6,0,4.4,2.4,4.4,4.8v4.3c0,1,0,2,0.2,2.8H725.1z
			 M724.8,381.8c-2.3,0-4.9,0.4-4.9,2.6c0,1.4,0.9,2,2,2c1.5,0,2.5-1,2.8-1.9c0.1-0.2,0.1-0.5,0.1-0.7V381.8z"/>
		<path d="M735.3,379.9c0-1.5,0-2.7-0.1-3.8h1.9l0.1,2h0c0.9-1.4,2.2-2.3,4.1-2.3c2.8,0,4.9,2.4,4.9,5.9c0,4.2-2.5,6.2-5.3,6.2
			c-1.5,0-2.9-0.7-3.6-1.8h0v6.3h-2.1V379.9z M737.4,383c0,0.3,0,0.6,0.1,0.9c0.4,1.5,1.7,2.5,3.2,2.5c2.2,0,3.5-1.8,3.5-4.5
			c0-2.3-1.2-4.3-3.5-4.3c-1.4,0-2.8,1-3.2,2.6c-0.1,0.3-0.1,0.6-0.1,0.9V383z"/>
		<path d="M751.3,372.9c0,0.7-0.5,1.3-1.3,1.3c-0.7,0-1.3-0.6-1.3-1.3c0-0.7,0.6-1.3,1.3-1.3C750.8,371.6,751.3,372.1,751.3,372.9z
			 M749,387.8v-11.6h2.1v11.6H749z"/>
		<path d="M755.8,382.3c0,2.9,1.9,4,4,4c1.5,0,2.4-0.3,3.2-0.6l0.4,1.5c-0.7,0.3-2,0.7-3.9,0.7c-3.6,0-5.7-2.4-5.7-5.9
			c0-3.5,2.1-6.3,5.4-6.3c3.8,0,4.8,3.3,4.8,5.5c0,0.4,0,0.8-0.1,1H755.8z M762,380.8c0-1.3-0.6-3.4-2.9-3.4c-2.1,0-3.1,2-3.2,3.4
			H762z"/>
		<path d="M765.3,386.5l5.3-6.8c0.5-0.6,1-1.2,1.5-1.8v0h-6.3v-1.7h8.9l0,1.3l-5.2,6.7c-0.5,0.6-1,1.2-1.5,1.8v0h6.8v1.7h-9.4V386.5
			z"/>
		<path d="M787.2,381.9c0,4.3-3,6.2-5.8,6.2c-3.1,0-5.6-2.3-5.6-6c0-3.9,2.5-6.2,5.8-6.2C785,375.9,787.2,378.3,787.2,381.9z
			 M778,382c0,2.5,1.5,4.5,3.5,4.5c2,0,3.5-1.9,3.5-4.5c0-2-1-4.5-3.5-4.5C779.1,377.5,778,379.8,778,382z"/>
		<path d="M412.5,414.4c0.6,0.4,1.7,0.8,2.8,0.8c1.5,0,2.3-0.8,2.3-1.7c0-1-0.6-1.6-2.2-2.1c-2.1-0.7-3.1-1.9-3.1-3.3
			c0-1.9,1.5-3.4,4-3.4c1.2,0,2.2,0.3,2.9,0.7l-0.5,1.5c-0.5-0.3-1.3-0.7-2.4-0.7c-1.2,0-1.9,0.7-1.9,1.6c0,1,0.7,1.4,2.2,2
			c2,0.8,3,1.8,3,3.5c0,2-1.6,3.5-4.3,3.5c-1.3,0-2.4-0.3-3.3-0.8L412.5,414.4z"/>
		<path d="M423.4,411.1c0,2.9,1.9,4,4,4c1.5,0,2.4-0.3,3.2-0.6l0.4,1.5c-0.7,0.3-2,0.7-3.9,0.7c-3.6,0-5.7-2.4-5.7-5.9
			s2.1-6.3,5.4-6.3c3.8,0,4.8,3.3,4.8,5.5c0,0.4,0,0.8-0.1,1H423.4z M429.6,409.6c0-1.3-0.6-3.4-2.9-3.4c-2.1,0-3.1,2-3.2,3.4H429.6
			z"/>
		<path d="M434.3,408.1c0-1.2,0-2.2-0.1-3.1h1.9l0.1,1.9h0c0.6-1.1,1.9-2.2,3.8-2.2c1.6,0,4.1,1,4.1,4.9v6.9h-2.1v-6.7
			c0-1.9-0.7-3.4-2.7-3.4c-1.4,0-2.5,1-2.8,2.2c-0.1,0.3-0.1,0.6-0.1,1v7h-2.1V408.1z"/>
		<path d="M447.3,414.4c0.6,0.4,1.7,0.8,2.8,0.8c1.5,0,2.3-0.8,2.3-1.7c0-1-0.6-1.6-2.2-2.1c-2.1-0.7-3.1-1.9-3.1-3.3
			c0-1.9,1.5-3.4,4-3.4c1.2,0,2.2,0.3,2.9,0.7l-0.5,1.5c-0.5-0.3-1.3-0.7-2.4-0.7c-1.2,0-1.9,0.7-1.9,1.6c0,1,0.7,1.4,2.2,2
			c2,0.8,3,1.8,3,3.5c0,2-1.6,3.5-4.3,3.5c-1.3,0-2.4-0.3-3.3-0.8L447.3,414.4z"/>
		<path d="M467.6,410.7c0,4.3-3,6.2-5.8,6.2c-3.1,0-5.6-2.3-5.6-6c0-3.9,2.5-6.2,5.8-6.2C465.4,404.7,467.6,407.1,467.6,410.7z
			 M458.4,410.8c0,2.5,1.5,4.5,3.5,4.5c2,0,3.5-1.9,3.5-4.5c0-2-1-4.5-3.5-4.5C459.5,406.3,458.4,408.6,458.4,410.8z"/>
		<path d="M470.3,408.6c0-1.4,0-2.5-0.1-3.6h1.8l0.1,2.3h0.1c0.5-1.6,1.8-2.5,3.2-2.5c0.2,0,0.4,0,0.6,0.1v2c-0.2,0-0.4-0.1-0.7-0.1
			c-1.5,0-2.5,1.1-2.8,2.7c0,0.3-0.1,0.6-0.1,1v6.2h-2.1V408.6z"/>
		<path d="M476.4,415.3c0-0.9,0.6-1.5,1.4-1.5s1.4,0.6,1.4,1.5c0,0.9-0.6,1.5-1.4,1.5C476.9,416.8,476.4,416.2,476.4,415.3z"/>
		<path d="M415.9,459.8H411V458h12v1.8H418v14.4h-2.1V459.8z"/>
		<path d="M424.5,457.1h2.1v7.2h0c0.3-0.6,0.9-1.1,1.5-1.5c0.6-0.4,1.4-0.6,2.2-0.6c1.6,0,4.1,1,4.1,5v6.9h-2.1v-6.7
			c0-1.9-0.7-3.5-2.7-3.5c-1.4,0-2.4,1-2.8,2.1c-0.1,0.3-0.1,0.6-0.1,1v7h-2.1V457.1z"/>
		<path d="M439,468.7c0,2.9,1.9,4,4,4c1.5,0,2.4-0.3,3.2-0.6l0.4,1.5c-0.7,0.3-2,0.7-3.9,0.7c-3.6,0-5.7-2.4-5.7-5.9
			c0-3.5,2.1-6.3,5.4-6.3c3.8,0,4.8,3.3,4.8,5.5c0,0.4,0,0.8-0.1,1H439z M445.2,467.2c0-1.3-0.6-3.4-2.9-3.4c-2.1,0-3.1,2-3.2,3.4
			H445.2z"/>
		<path d="M454.7,472c0.6,0.4,1.7,0.8,2.8,0.8c1.5,0,2.3-0.8,2.3-1.7c0-1-0.6-1.6-2.2-2.1c-2.1-0.7-3.1-1.9-3.1-3.3
			c0-1.9,1.5-3.4,4-3.4c1.2,0,2.2,0.3,2.9,0.7l-0.5,1.5c-0.5-0.3-1.3-0.7-2.4-0.7c-1.2,0-1.9,0.7-1.9,1.6c0,1,0.7,1.4,2.2,2
			c2,0.8,3,1.8,3,3.5c0,2-1.6,3.5-4.3,3.5c-1.3,0-2.4-0.3-3.3-0.8L454.7,472z"/>
		<path d="M466.8,459.3c0,0.7-0.5,1.3-1.3,1.3c-0.7,0-1.3-0.6-1.3-1.3c0-0.7,0.6-1.3,1.3-1.3C466.3,458,466.8,458.5,466.8,459.3z
			 M464.4,474.2v-11.6h2.1v11.6H464.4z"/>
		<path d="M480.1,462.5c0,0.8-0.1,1.8-0.1,3.2v6.7c0,2.7-0.5,4.3-1.7,5.3c-1.1,1.1-2.8,1.4-4.2,1.4c-1.4,0-2.9-0.3-3.9-1l0.5-1.6
			c0.8,0.5,2,0.9,3.4,0.9c2.2,0,3.7-1.1,3.7-4.1v-1.3h0c-0.6,1.1-1.9,1.9-3.7,1.9c-2.9,0-4.9-2.4-4.9-5.7c0-3.9,2.6-6.2,5.2-6.2
			c2,0,3.1,1.1,3.6,2h0l0.1-1.8H480.1z M477.9,467.1c0-0.4,0-0.7-0.1-1c-0.4-1.2-1.4-2.2-3-2.2c-2,0-3.5,1.7-3.5,4.4
			c0,2.3,1.2,4.2,3.4,4.2c1.3,0,2.5-0.8,2.9-2.2c0.1-0.4,0.2-0.8,0.2-1.1V467.1z"/>
		<path d="M483.3,465.7c0-1.2,0-2.2-0.1-3.1h1.9l0.1,1.9h0c0.6-1.1,1.9-2.2,3.8-2.2c1.6,0,4.1,1,4.1,4.9v6.9h-2.1v-6.7
			c0-1.9-0.7-3.4-2.7-3.4c-1.4,0-2.5,1-2.8,2.2c-0.1,0.3-0.1,0.6-0.1,1v7h-2.1V465.7z"/>
		<path d="M503.1,474.2l-0.2-1.5h-0.1c-0.6,0.9-1.9,1.7-3.6,1.7c-2.4,0-3.6-1.7-3.6-3.3c0-2.8,2.5-4.3,7-4.3v-0.2
			c0-1-0.3-2.7-2.6-2.7c-1.1,0-2.2,0.3-3,0.9l-0.5-1.4c1-0.6,2.4-1,3.8-1c3.6,0,4.4,2.4,4.4,4.8v4.3c0,1,0,2,0.2,2.8H503.1z
			 M502.8,468.2c-2.3,0-4.9,0.4-4.9,2.6c0,1.4,0.9,2,2,2c1.5,0,2.5-1,2.8-1.9c0.1-0.2,0.1-0.5,0.1-0.7V468.2z"/>
		<path d="M508.2,457.1h2.1v17h-2.1V457.1z"/>
		<path d="M521.3,459.3c0,0.7-0.5,1.3-1.3,1.3c-0.7,0-1.3-0.6-1.3-1.3c0-0.7,0.6-1.3,1.3-1.3C520.8,458,521.3,458.5,521.3,459.3z
			 M519,474.2v-11.6h2.1v11.6H519z"/>
		<path d="M524.3,472c0.6,0.4,1.7,0.8,2.8,0.8c1.5,0,2.3-0.8,2.3-1.7c0-1-0.6-1.6-2.2-2.1c-2.1-0.7-3.1-1.9-3.1-3.3
			c0-1.9,1.5-3.4,4-3.4c1.2,0,2.2,0.3,2.9,0.7l-0.5,1.5c-0.5-0.3-1.3-0.7-2.4-0.7c-1.2,0-1.9,0.7-1.9,1.6c0,1,0.7,1.4,2.2,2
			c2,0.8,3,1.8,3,3.5c0,2-1.6,3.5-4.3,3.5c-1.3,0-2.4-0.3-3.3-0.8L524.3,472z"/>
		<path d="M538.9,472c0.6,0.4,1.7,0.8,2.8,0.8c1.5,0,2.3-0.8,2.3-1.7c0-1-0.6-1.6-2.2-2.1c-2.1-0.7-3.1-1.9-3.1-3.3
			c0-1.9,1.5-3.4,4-3.4c1.2,0,2.2,0.3,2.9,0.7l-0.5,1.5c-0.5-0.3-1.3-0.7-2.4-0.7c-1.2,0-1.9,0.7-1.9,1.6c0,1,0.7,1.4,2.2,2
			c2,0.8,3,1.8,3,3.5c0,2-1.6,3.5-4.3,3.5c-1.3,0-2.4-0.3-3.3-0.8L538.9,472z"/>
		<path d="M549.9,468.7c0,2.9,1.9,4,4,4c1.5,0,2.4-0.3,3.2-0.6l0.4,1.5c-0.7,0.3-2,0.7-3.9,0.7c-3.6,0-5.7-2.4-5.7-5.9
			c0-3.5,2.1-6.3,5.4-6.3c3.8,0,4.8,3.3,4.8,5.5c0,0.4,0,0.8-0.1,1H549.9z M556.1,467.2c0-1.3-0.6-3.4-2.9-3.4c-2.1,0-3.1,2-3.2,3.4
			H556.1z"/>
		<path d="M560.7,465.7c0-1.2,0-2.2-0.1-3.1h1.9l0.1,1.9h0c0.6-1.1,1.9-2.2,3.8-2.2c1.6,0,4.1,1,4.1,4.9v6.9h-2.1v-6.7
			c0-1.9-0.7-3.4-2.7-3.4c-1.4,0-2.5,1-2.8,2.2c-0.1,0.3-0.1,0.6-0.1,1v7h-2.1V465.7z"/>
		<path d="M576.5,459.2v3.3h3v1.6h-3v6.3c0,1.4,0.4,2.3,1.6,2.3c0.6,0,1-0.1,1.2-0.1l0.1,1.6c-0.4,0.2-1.1,0.3-1.9,0.3
			c-1,0-1.8-0.3-2.3-0.9c-0.6-0.6-0.8-1.7-0.8-3v-6.3h-1.8v-1.6h1.8v-2.8L576.5,459.2z"/>
		<path d="M587.8,462.5l1.5,5.9c0.3,1.3,0.6,2.5,0.9,3.7h0.1c0.3-1.2,0.6-2.4,1-3.7l1.9-5.9h1.8l1.8,5.8c0.4,1.4,0.8,2.6,1,3.8h0.1
			c0.2-1.2,0.5-2.4,0.9-3.8l1.7-5.8h2.1l-3.7,11.6h-1.9l-1.8-5.5c-0.4-1.3-0.7-2.4-1-3.8h0c-0.3,1.4-0.6,2.6-1.1,3.8l-1.9,5.5h-1.9
			l-3.5-11.6H587.8z"/>
		<path d="M607,459.3c0,0.7-0.5,1.3-1.3,1.3c-0.7,0-1.3-0.6-1.3-1.3c0-0.7,0.6-1.3,1.3-1.3C606.5,458,607,458.5,607,459.3z
			 M604.6,474.2v-11.6h2.1v11.6H604.6z"/>
		<path d="M610.2,466.2c0-1.4,0-2.5-0.1-3.6h1.8l0.1,2.3h0.1c0.5-1.6,1.8-2.5,3.2-2.5c0.2,0,0.4,0,0.6,0.1v2c-0.2,0-0.4-0.1-0.7-0.1
			c-1.5,0-2.5,1.1-2.8,2.7c0,0.3-0.1,0.6-0.1,1v6.2h-2.1V466.2z"/>
		<path d="M619,468.7c0,2.9,1.9,4,4,4c1.5,0,2.4-0.3,3.2-0.6l0.4,1.5c-0.7,0.3-2,0.7-3.9,0.7c-3.6,0-5.7-2.4-5.7-5.9
			c0-3.5,2.1-6.3,5.4-6.3c3.8,0,4.8,3.3,4.8,5.5c0,0.4,0,0.8-0.1,1H619z M625.2,467.2c0-1.3-0.6-3.4-2.9-3.4c-2.1,0-3.1,2-3.2,3.4
			H625.2z"/>
		<path d="M629.9,457.1h2.1v17h-2.1V457.1z"/>
		<path d="M636.7,468.7c0,2.9,1.9,4,4,4c1.5,0,2.4-0.3,3.2-0.6l0.4,1.5c-0.7,0.3-2,0.7-3.9,0.7c-3.6,0-5.7-2.4-5.7-5.9
			c0-3.5,2.1-6.3,5.4-6.3c3.8,0,4.8,3.3,4.8,5.5c0,0.4,0,0.8-0.1,1H636.7z M642.9,467.2c0-1.3-0.6-3.4-2.9-3.4c-2.1,0-3.1,2-3.2,3.4
			H642.9z"/>
		<path d="M647.3,472c0.6,0.4,1.7,0.8,2.8,0.8c1.5,0,2.3-0.8,2.3-1.7c0-1-0.6-1.6-2.2-2.1c-2.1-0.7-3.1-1.9-3.1-3.3
			c0-1.9,1.5-3.4,4-3.4c1.2,0,2.2,0.3,2.9,0.7l-0.5,1.5c-0.5-0.3-1.3-0.7-2.4-0.7c-1.2,0-1.9,0.7-1.9,1.6c0,1,0.7,1.4,2.2,2
			c2,0.8,3,1.8,3,3.5c0,2-1.6,3.5-4.3,3.5c-1.3,0-2.4-0.3-3.3-0.8L647.3,472z"/>
		<path d="M656.8,472c0.6,0.4,1.7,0.8,2.8,0.8c1.5,0,2.3-0.8,2.3-1.7c0-1-0.6-1.6-2.2-2.1c-2.1-0.7-3.1-1.9-3.1-3.3
			c0-1.9,1.5-3.4,4-3.4c1.2,0,2.2,0.3,2.9,0.7l-0.5,1.5c-0.5-0.3-1.3-0.7-2.4-0.7c-1.2,0-1.9,0.7-1.9,1.6c0,1,0.7,1.4,2.2,2
			c2,0.8,3,1.8,3,3.5c0,2-1.6,3.5-4.3,3.5c-1.3,0-2.4-0.3-3.3-0.8L656.8,472z"/>
		<path d="M666.6,457.1h2.1v17h-2.1V457.1z"/>
		<path d="M673,462.5l2.5,6.9c0.3,0.8,0.6,1.7,0.7,2.4h0c0.2-0.7,0.5-1.6,0.7-2.4l2.3-6.8h2.2l-3.2,8.3c-1.5,4-2.5,6-4,7.3
			c-1,0.9-2.1,1.3-2.6,1.4l-0.5-1.8c0.5-0.2,1.2-0.5,1.8-1c0.6-0.5,1.3-1.3,1.8-2.4c0.1-0.2,0.2-0.4,0.2-0.5s0-0.3-0.1-0.6
			l-4.3-10.7H673z"/>
		<path d="M691.2,459.2v3.3h3v1.6h-3v6.3c0,1.4,0.4,2.3,1.6,2.3c0.6,0,1-0.1,1.2-0.1l0.1,1.6c-0.4,0.2-1.1,0.3-1.9,0.3
			c-1,0-1.8-0.3-2.3-0.9c-0.6-0.6-0.8-1.7-0.8-3v-6.3h-1.8v-1.6h1.8v-2.8L691.2,459.2z"/>
		<path d="M696.6,457.1h2.1v7.2h0c0.3-0.6,0.9-1.1,1.5-1.5c0.6-0.4,1.4-0.6,2.2-0.6c1.6,0,4.1,1,4.1,5v6.9h-2.1v-6.7
			c0-1.9-0.7-3.5-2.7-3.5c-1.4,0-2.4,1-2.8,2.1c-0.1,0.3-0.1,0.6-0.1,1v7h-2.1V457.1z"/>
		<path d="M709.9,466.2c0-1.4,0-2.5-0.1-3.6h1.8l0.1,2.3h0.1c0.5-1.6,1.8-2.5,3.2-2.5c0.2,0,0.4,0,0.6,0.1v2c-0.2,0-0.4-0.1-0.7-0.1
			c-1.5,0-2.5,1.1-2.8,2.7c0,0.3-0.1,0.6-0.1,1v6.2h-2.1V466.2z"/>
		<path d="M728,468.3c0,4.3-3,6.2-5.8,6.2c-3.1,0-5.6-2.3-5.6-6c0-3.9,2.5-6.2,5.8-6.2C725.8,462.3,728,464.7,728,468.3z
			 M718.8,468.4c0,2.5,1.5,4.5,3.5,4.5c2,0,3.5-1.9,3.5-4.5c0-2-1-4.5-3.5-4.5C719.9,463.9,718.8,466.2,718.8,468.4z"/>
		<path d="M740.4,471c0,1.2,0,2.3,0.1,3.2h-1.9l-0.1-1.9h0c-0.6,0.9-1.8,2.2-3.8,2.2c-1.8,0-4-1-4-5.1v-6.8h2.1v6.4
			c0,2.2,0.7,3.7,2.6,3.7c1.4,0,2.4-1,2.8-1.9c0.1-0.3,0.2-0.7,0.2-1.1v-7.1h2.1V471z"/>
		<path d="M753.9,462.5c0,0.8-0.1,1.8-0.1,3.2v6.7c0,2.7-0.5,4.3-1.7,5.3c-1.1,1.1-2.8,1.4-4.2,1.4c-1.4,0-2.9-0.3-3.9-1l0.5-1.6
			c0.8,0.5,2,0.9,3.4,0.9c2.2,0,3.7-1.1,3.7-4.1v-1.3h0c-0.6,1.1-1.9,1.9-3.7,1.9c-2.9,0-4.9-2.4-4.9-5.7c0-3.9,2.6-6.2,5.2-6.2
			c2,0,3.1,1.1,3.6,2h0l0.1-1.8H753.9z M751.7,467.1c0-0.4,0-0.7-0.1-1c-0.4-1.2-1.4-2.2-3-2.2c-2,0-3.5,1.7-3.5,4.4
			c0,2.3,1.2,4.2,3.4,4.2c1.3,0,2.5-0.8,2.9-2.2c0.1-0.4,0.2-0.8,0.2-1.1V467.1z"/>
		<path d="M757.3,457.1h2.1v7.2h0c0.3-0.6,0.9-1.1,1.5-1.5c0.6-0.4,1.4-0.6,2.2-0.6c1.6,0,4.1,1,4.1,5v6.9h-2.1v-6.7
			c0-1.9-0.7-3.5-2.7-3.5c-1.4,0-2.4,1-2.8,2.1c-0.1,0.3-0.1,0.6-0.1,1v7h-2.1V457.1z"/>
		<path d="M782.2,474.2l-0.2-1.5h-0.1c-0.6,0.9-1.9,1.7-3.6,1.7c-2.4,0-3.6-1.7-3.6-3.3c0-2.8,2.5-4.3,7-4.3v-0.2
			c0-1-0.3-2.7-2.6-2.7c-1.1,0-2.2,0.3-3,0.9l-0.5-1.4c1-0.6,2.4-1,3.8-1c3.6,0,4.4,2.4,4.4,4.8v4.3c0,1,0,2,0.2,2.8H782.2z
			 M781.8,468.2c-2.3,0-4.9,0.4-4.9,2.6c0,1.4,0.9,2,2,2c1.5,0,2.5-1,2.8-1.9c0.1-0.2,0.1-0.5,0.1-0.7V468.2z"/>
		<path d="M787.3,465.7c0-1.2,0-2.2-0.1-3.1h1.9l0.1,1.9h0c0.6-1.1,1.9-2.2,3.8-2.2c1.6,0,4.1,1,4.1,4.9v6.9h-2.1v-6.7
			c0-1.9-0.7-3.4-2.7-3.4c-1.4,0-2.5,1-2.8,2.2c-0.1,0.3-0.1,0.6-0.1,1v7h-2.1V465.7z"/>
		<path d="M412.8,487c1.1-0.2,2.6-0.3,4-0.3c2.2,0,3.7,0.4,4.7,1.3c0.8,0.7,1.3,1.8,1.3,3.1c0,2.1-1.3,3.6-3,4.1v0.1
			c1.2,0.4,2,1.6,2.4,3.3c0.5,2.3,0.9,3.8,1.2,4.4h-2.2c-0.3-0.5-0.6-1.8-1.1-3.9c-0.5-2.2-1.3-3.1-3.2-3.1h-2v7h-2.1V487z
			 M414.9,494.4h2.1c2.2,0,3.6-1.2,3.6-3.1c0-2.1-1.5-3-3.7-3c-1,0-1.7,0.1-2.1,0.2V494.4z"/>
		<path d="M425.7,486.8h8.7v1.8h-6.6v5.4h6.1v1.7h-6.1v7.3h-2.1V486.8z"/>
		<path d="M446.6,485.9v14c0,1,0,2.2,0.1,3h-1.9l-0.1-2h0c-0.6,1.3-2.1,2.3-4,2.3c-2.8,0-5-2.4-5-5.9c0-3.9,2.4-6.2,5.2-6.2
			c1.8,0,3,0.8,3.5,1.8h0v-6.9H446.6z M444.5,496.1c0-0.3,0-0.6-0.1-0.9c-0.3-1.3-1.5-2.4-3-2.4c-2.2,0-3.5,1.9-3.5,4.5
			c0,2.4,1.2,4.3,3.4,4.3c1.4,0,2.7-0.9,3.1-2.5c0.1-0.3,0.1-0.6,0.1-0.9V496.1z"/>
		<path d="M459.9,499.8c0,1.2,0,2.3,0.1,3.2h-1.9l-0.1-1.9h0c-0.6,0.9-1.8,2.2-3.8,2.2c-1.8,0-4-1-4-5.1v-6.8h2.1v6.4
			c0,2.2,0.7,3.7,2.6,3.7c1.4,0,2.4-1,2.8-1.9c0.1-0.3,0.2-0.7,0.2-1.1v-7.1h2.1V499.8z"/>
		<path d="M465.7,488.1c0,0.7-0.5,1.3-1.3,1.3c-0.7,0-1.3-0.6-1.3-1.3c0-0.7,0.6-1.3,1.3-1.3C465.2,486.8,465.7,487.3,465.7,488.1z
			 M463.4,503v-11.6h2.1V503H463.4z"/>
		<path d="M469,494.5c0-1.2,0-2.2-0.1-3.1h1.9l0.1,1.9h0c0.6-1.1,1.9-2.2,3.8-2.2c1.6,0,4.1,1,4.1,4.9v6.9h-2.1v-6.7
			c0-1.9-0.7-3.4-2.7-3.4c-1.4,0-2.5,1-2.8,2.2c-0.1,0.3-0.1,0.6-0.1,1v7H469V494.5z"/>
		<path d="M492.8,497.1c0,4.3-3,6.2-5.8,6.2c-3.1,0-5.6-2.3-5.6-6c0-3.9,2.5-6.2,5.8-6.2C490.6,491.1,492.8,493.5,492.8,497.1z
			 M483.6,497.2c0,2.5,1.5,4.5,3.5,4.5c2,0,3.5-1.9,3.5-4.5c0-2-1-4.5-3.5-4.5C484.7,492.7,483.6,495,483.6,497.2z"/>
		<path d="M503.1,488v3.3h3v1.6h-3v6.3c0,1.4,0.4,2.3,1.6,2.3c0.6,0,1-0.1,1.2-0.1l0.1,1.6c-0.4,0.2-1.1,0.3-1.9,0.3
			c-1,0-1.8-0.3-2.3-0.9c-0.6-0.6-0.8-1.7-0.8-3v-6.3h-1.8v-1.6h1.8v-2.8L503.1,488z"/>
		<path d="M518.9,497.1c0,4.3-3,6.2-5.8,6.2c-3.1,0-5.6-2.3-5.6-6c0-3.9,2.5-6.2,5.8-6.2C516.6,491.1,518.9,493.5,518.9,497.1z
			 M509.7,497.2c0,2.5,1.5,4.5,3.5,4.5c2,0,3.5-1.9,3.5-4.5c0-2-1-4.5-3.5-4.5C510.7,492.7,509.7,495,509.7,497.2z"/>
		<path d="M529.2,488v3.3h3v1.6h-3v6.3c0,1.4,0.4,2.3,1.6,2.3c0.6,0,1-0.1,1.2-0.1l0.1,1.6c-0.4,0.2-1.1,0.3-1.9,0.3
			c-1,0-1.8-0.3-2.3-0.9c-0.6-0.6-0.8-1.7-0.8-3v-6.3h-1.8v-1.6h1.8v-2.8L529.2,488z"/>
		<path d="M534.6,485.9h2.1v7.2h0c0.3-0.6,0.9-1.1,1.5-1.5c0.6-0.4,1.4-0.6,2.2-0.6c1.6,0,4.1,1,4.1,5v6.9h-2.1v-6.7
			c0-1.9-0.7-3.5-2.7-3.5c-1.4,0-2.4,1-2.8,2.1c-0.1,0.3-0.1,0.6-0.1,1v7h-2.1V485.9z"/>
		<path d="M549.1,497.5c0,2.9,1.9,4,4,4c1.5,0,2.4-0.3,3.2-0.6l0.4,1.5c-0.7,0.3-2,0.7-3.9,0.7c-3.6,0-5.7-2.4-5.7-5.9
			c0-3.5,2.1-6.3,5.4-6.3c3.8,0,4.8,3.3,4.8,5.5c0,0.4,0,0.8-0.1,1H549.1z M555.3,496c0-1.3-0.6-3.4-2.9-3.4c-2.1,0-3.1,2-3.2,3.4
			H555.3z"/>
		<path d="M571.4,503l-0.2-1.5h-0.1c-0.6,0.9-1.9,1.7-3.6,1.7c-2.4,0-3.6-1.7-3.6-3.3c0-2.8,2.5-4.3,7-4.3v-0.2c0-1-0.3-2.7-2.6-2.7
			c-1.1,0-2.2,0.3-3,0.9l-0.5-1.4c1-0.6,2.4-1,3.8-1c3.6,0,4.4,2.4,4.4,4.8v4.3c0,1,0,2,0.2,2.8H571.4z M571.1,497
			c-2.3,0-4.9,0.4-4.9,2.6c0,1.4,0.9,2,2,2c1.5,0,2.5-1,2.8-1.9c0.1-0.2,0.1-0.5,0.1-0.7V497z"/>
		<path d="M576.6,495.1c0-1.5,0-2.7-0.1-3.8h1.9l0.1,2h0c0.9-1.4,2.2-2.3,4.1-2.3c2.8,0,4.9,2.4,4.9,5.9c0,4.2-2.5,6.2-5.3,6.2
			c-1.5,0-2.9-0.7-3.6-1.8h0v6.3h-2.1V495.1z M578.7,498.2c0,0.3,0,0.6,0.1,0.9c0.4,1.5,1.7,2.5,3.2,2.5c2.2,0,3.5-1.8,3.5-4.5
			c0-2.3-1.2-4.3-3.5-4.3c-1.4,0-2.8,1-3.2,2.6c-0.1,0.3-0.1,0.6-0.1,0.9V498.2z"/>
		<path d="M590.2,495.1c0-1.5,0-2.7-0.1-3.8h1.9l0.1,2h0c0.9-1.4,2.2-2.3,4.1-2.3c2.8,0,4.9,2.4,4.9,5.9c0,4.2-2.5,6.2-5.3,6.2
			c-1.5,0-2.9-0.7-3.6-1.8h0v6.3h-2.1V495.1z M592.3,498.2c0,0.3,0,0.6,0.1,0.9c0.4,1.5,1.7,2.5,3.2,2.5c2.2,0,3.5-1.8,3.5-4.5
			c0-2.3-1.2-4.3-3.5-4.3c-1.4,0-2.8,1-3.2,2.6c-0.1,0.3-0.1,0.6-0.1,0.9V498.2z"/>
		<path d="M608.7,500.8c0.6,0.4,1.7,0.8,2.8,0.8c1.5,0,2.3-0.8,2.3-1.7c0-1-0.6-1.6-2.2-2.1c-2.1-0.7-3.1-1.9-3.1-3.3
			c0-1.9,1.5-3.4,4-3.4c1.2,0,2.2,0.3,2.9,0.7l-0.5,1.5c-0.5-0.3-1.3-0.7-2.4-0.7c-1.2,0-1.9,0.7-1.9,1.6c0,1,0.7,1.4,2.2,2
			c2,0.8,3,1.8,3,3.5c0,2-1.6,3.5-4.3,3.5c-1.3,0-2.4-0.3-3.3-0.8L608.7,500.8z"/>
		<path d="M629,497.1c0,4.3-3,6.2-5.8,6.2c-3.1,0-5.6-2.3-5.6-6c0-3.9,2.5-6.2,5.8-6.2C626.7,491.1,629,493.5,629,497.1z
			 M619.8,497.2c0,2.5,1.5,4.5,3.5,4.5c2,0,3.5-1.9,3.5-4.5c0-2-1-4.5-3.5-4.5C620.9,492.7,619.8,495,619.8,497.2z"/>
		<path d="M639.3,488v3.3h3v1.6h-3v6.3c0,1.4,0.4,2.3,1.6,2.3c0.6,0,1-0.1,1.2-0.1l0.1,1.6c-0.4,0.2-1.1,0.3-1.9,0.3
			c-1,0-1.8-0.3-2.3-0.9c-0.6-0.6-0.8-1.7-0.8-3v-6.3h-1.8v-1.6h1.8v-2.8L639.3,488z"/>
		<path d="M644.7,485.9h2.1v7.2h0c0.3-0.6,0.9-1.1,1.5-1.5c0.6-0.4,1.4-0.6,2.2-0.6c1.6,0,4.1,1,4.1,5v6.9h-2.1v-6.7
			c0-1.9-0.7-3.5-2.7-3.5c-1.4,0-2.4,1-2.8,2.1c-0.1,0.3-0.1,0.6-0.1,1v7h-2.1V485.9z"/>
		<path d="M664.4,503l-0.2-1.5h-0.1c-0.6,0.9-1.9,1.7-3.6,1.7c-2.4,0-3.6-1.7-3.6-3.3c0-2.8,2.5-4.3,7-4.3v-0.2c0-1-0.3-2.7-2.6-2.7
			c-1.1,0-2.2,0.3-3,0.9l-0.5-1.4c1-0.6,2.4-1,3.8-1c3.6,0,4.4,2.4,4.4,4.8v4.3c0,1,0,2,0.2,2.8H664.4z M664.1,497
			c-2.3,0-4.9,0.4-4.9,2.6c0,1.4,0.9,2,2,2c1.5,0,2.5-1,2.8-1.9c0.1-0.2,0.1-0.5,0.1-0.7V497z"/>
		<path d="M672,488v3.3h3v1.6h-3v6.3c0,1.4,0.4,2.3,1.6,2.3c0.6,0,1-0.1,1.2-0.1l0.1,1.6c-0.4,0.2-1.1,0.3-1.9,0.3
			c-1,0-1.8-0.3-2.3-0.9c-0.6-0.6-0.8-1.7-0.8-3v-6.3h-1.8v-1.6h1.8v-2.8L672,488z"/>
		<path d="M683.3,491.3l2.3,6.5c0.4,1.1,0.7,2,0.9,3h0.1c0.3-1,0.6-1.9,1-3l2.3-6.5h2.2l-4.6,11.6h-2l-4.4-11.6H683.3z"/>
		<path d="M696.4,488.1c0,0.7-0.5,1.3-1.3,1.3c-0.7,0-1.3-0.6-1.3-1.3c0-0.7,0.6-1.3,1.3-1.3C695.9,486.8,696.4,487.3,696.4,488.1z
			 M694.1,503v-11.6h2.1V503H694.1z"/>
		<path d="M699.4,500.8c0.6,0.4,1.7,0.8,2.8,0.8c1.5,0,2.3-0.8,2.3-1.7c0-1-0.6-1.6-2.2-2.1c-2.1-0.7-3.1-1.9-3.1-3.3
			c0-1.9,1.5-3.4,4-3.4c1.2,0,2.2,0.3,2.9,0.7l-0.5,1.5c-0.5-0.3-1.3-0.7-2.4-0.7c-1.2,0-1.9,0.7-1.9,1.6c0,1,0.7,1.4,2.2,2
			c2,0.8,3,1.8,3,3.5c0,2-1.6,3.5-4.3,3.5c-1.3,0-2.4-0.3-3.3-0.8L699.4,500.8z"/>
		<path d="M718.9,499.8c0,1.2,0,2.3,0.1,3.2h-1.9l-0.1-1.9h0c-0.6,0.9-1.8,2.2-3.8,2.2c-1.8,0-4-1-4-5.1v-6.8h2.1v6.4
			c0,2.2,0.7,3.7,2.6,3.7c1.4,0,2.4-1,2.8-1.9c0.1-0.3,0.2-0.7,0.2-1.1v-7.1h2.1V499.8z"/>
		<path d="M728.8,503l-0.2-1.5h-0.1c-0.6,0.9-1.9,1.7-3.6,1.7c-2.4,0-3.6-1.7-3.6-3.3c0-2.8,2.5-4.3,7-4.3v-0.2c0-1-0.3-2.7-2.6-2.7
			c-1.1,0-2.2,0.3-3,0.9l-0.5-1.4c1-0.6,2.4-1,3.8-1c3.6,0,4.4,2.4,4.4,4.8v4.3c0,1,0,2,0.2,2.8H728.8z M728.5,497
			c-2.3,0-4.9,0.4-4.9,2.6c0,1.4,0.9,2,2,2c1.5,0,2.5-1,2.8-1.9c0.1-0.2,0.1-0.5,0.1-0.7V497z"/>
		<path d="M734,485.9h2.1v17H734V485.9z"/>
		<path d="M744.9,503v-10h-1.6v-1.6h1.6v-0.6c0-1.6,0.4-3.1,1.3-4.1c0.8-0.8,1.8-1.1,2.8-1.1c0.7,0,1.4,0.2,1.8,0.3l-0.3,1.6
			c-0.3-0.1-0.7-0.3-1.3-0.3c-1.8,0-2.3,1.6-2.3,3.4v0.6h2.8v1.6H747v10H744.9z"/>
		<path d="M752.6,497.5c0,2.9,1.9,4,4,4c1.5,0,2.4-0.3,3.2-0.6l0.4,1.5c-0.7,0.3-2,0.7-3.9,0.7c-3.6,0-5.7-2.4-5.7-5.9
			c0-3.5,2.1-6.3,5.4-6.3c3.8,0,4.8,3.3,4.8,5.5c0,0.4,0,0.8-0.1,1H752.6z M758.8,496c0-1.3-0.6-3.4-2.9-3.4c-2.1,0-3.1,2-3.2,3.4
			H758.8z"/>
		<path d="M764.6,497.5c0,2.9,1.9,4,4,4c1.5,0,2.4-0.3,3.2-0.6l0.4,1.5c-0.7,0.3-2,0.7-3.9,0.7c-3.6,0-5.7-2.4-5.7-5.9
			c0-3.5,2.1-6.3,5.4-6.3c3.8,0,4.8,3.3,4.8,5.5c0,0.4,0,0.8-0.1,1H764.6z M770.8,496c0-1.3-0.6-3.4-2.9-3.4c-2.1,0-3.1,2-3.2,3.4
			H770.8z"/>
		<path d="M785.5,485.9v14c0,1,0,2.2,0.1,3h-1.9l-0.1-2h0c-0.6,1.3-2.1,2.3-4,2.3c-2.8,0-5-2.4-5-5.9c0-3.9,2.4-6.2,5.2-6.2
			c1.8,0,3,0.8,3.5,1.8h0v-6.9H785.5z M783.4,496.1c0-0.3,0-0.6-0.1-0.9c-0.3-1.3-1.5-2.4-3-2.4c-2.2,0-3.5,1.9-3.5,4.5
			c0,2.4,1.2,4.3,3.4,4.3c1.4,0,2.7-0.9,3.1-2.5c0.1-0.3,0.1-0.6,0.1-0.9V496.1z"/>
		<path d="M788.9,503c0-0.8,0.1-2,0.1-3v-14h2.1v7.3h0c0.7-1.3,2.1-2.1,4-2.1c2.9,0,4.9,2.4,4.9,5.9c0,4.2-2.6,6.2-5.2,6.2
			c-1.7,0-3-0.6-3.9-2.2h-0.1l-0.1,1.9H788.9z M791.1,498.3c0,0.3,0,0.5,0.1,0.8c0.4,1.5,1.6,2.5,3.2,2.5c2.2,0,3.5-1.8,3.5-4.5
			c0-2.3-1.2-4.3-3.5-4.3c-1.4,0-2.8,1-3.2,2.6c0,0.2-0.1,0.5-0.1,0.9V498.3z"/>
		<path d="M809.1,503l-0.2-1.5h-0.1c-0.6,0.9-1.9,1.7-3.6,1.7c-2.4,0-3.6-1.7-3.6-3.3c0-2.8,2.5-4.3,7-4.3v-0.2c0-1-0.3-2.7-2.6-2.7
			c-1.1,0-2.2,0.3-3,0.9l-0.5-1.4c1-0.6,2.4-1,3.8-1c3.6,0,4.4,2.4,4.4,4.8v4.3c0,1,0,2,0.2,2.8H809.1z M808.8,497
			c-2.3,0-4.9,0.4-4.9,2.6c0,1.4,0.9,2,2,2c1.5,0,2.5-1,2.8-1.9c0.1-0.2,0.1-0.5,0.1-0.7V497z"/>
		<path d="M816.3,496.7L816.3,496.7c0.3-0.4,0.7-0.9,1.1-1.3l3.4-4h2.5l-4.5,4.8l5.1,6.8h-2.6l-4-5.6l-1.1,1.2v4.4h-2.1v-17h2.1
			V496.7z"/>
		<path d="M423.3,525.9c0,4.3-3,6.2-5.8,6.2c-3.1,0-5.6-2.3-5.6-6c0-3.9,2.5-6.2,5.8-6.2C421,519.9,423.3,522.3,423.3,525.9z
			 M414,526c0,2.5,1.5,4.5,3.5,4.5c2,0,3.5-1.9,3.5-4.5c0-2-1-4.5-3.5-4.5C415.1,521.5,414,523.8,414,526z"/>
		<path d="M425.9,523.3c0-1.2,0-2.2-0.1-3.1h1.9l0.1,1.9h0c0.6-1.1,1.9-2.2,3.8-2.2c1.6,0,4.1,1,4.1,4.9v6.9h-2.1v-6.7
			c0-1.9-0.7-3.4-2.7-3.4c-1.4,0-2.5,1-2.8,2.2c-0.1,0.3-0.1,0.6-0.1,1v7h-2.1V523.3z"/>
		<path d="M446.9,516.8v3.3h3v1.6h-3v6.3c0,1.4,0.4,2.3,1.6,2.3c0.6,0,1-0.1,1.2-0.1l0.1,1.6c-0.4,0.2-1.1,0.3-1.9,0.3
			c-1,0-1.8-0.3-2.3-0.9c-0.6-0.6-0.8-1.7-0.8-3v-6.3H443v-1.6h1.8v-2.8L446.9,516.8z"/>
		<path d="M452.3,514.7h2.1v7.2h0c0.3-0.6,0.9-1.1,1.5-1.5c0.6-0.4,1.4-0.6,2.2-0.6c1.6,0,4.1,1,4.1,5v6.9h-2.1v-6.7
			c0-1.9-0.7-3.5-2.7-3.5c-1.4,0-2.4,1-2.8,2.1c-0.1,0.3-0.1,0.6-0.1,1v7h-2.1V514.7z"/>
		<path d="M466.8,526.3c0,2.9,1.9,4,4,4c1.5,0,2.4-0.3,3.2-0.6l0.4,1.5c-0.7,0.3-2,0.7-3.9,0.7c-3.6,0-5.7-2.4-5.7-5.9
			c0-3.5,2.1-6.3,5.4-6.3c3.8,0,4.8,3.3,4.8,5.5c0,0.4,0,0.8-0.1,1H466.8z M473,524.8c0-1.3-0.6-3.4-2.9-3.4c-2.1,0-3.1,2-3.2,3.4
			H473z"/>
		<path d="M489.1,531.8l-0.2-1.5h-0.1c-0.6,0.9-1.9,1.7-3.6,1.7c-2.4,0-3.6-1.7-3.6-3.3c0-2.8,2.5-4.3,7-4.3v-0.2
			c0-1-0.3-2.7-2.6-2.7c-1.1,0-2.2,0.3-3,0.9l-0.5-1.4c1-0.6,2.4-1,3.8-1c3.6,0,4.4,2.4,4.4,4.8v4.3c0,1,0,2,0.2,2.8H489.1z
			 M488.8,525.8c-2.3,0-4.9,0.4-4.9,2.6c0,1.4,0.9,2,2,2c1.5,0,2.5-1,2.8-1.9c0.1-0.2,0.1-0.5,0.1-0.7V525.8z"/>
		<path d="M502.6,531.3c-0.6,0.3-1.8,0.7-3.3,0.7c-3.5,0-5.8-2.4-5.8-5.9c0-3.6,2.4-6.2,6.2-6.2c1.2,0,2.4,0.3,2.9,0.6l-0.5,1.6
			c-0.5-0.3-1.3-0.6-2.4-0.6c-2.7,0-4.1,2-4.1,4.4c0,2.7,1.7,4.3,4,4.3c1.2,0,2-0.3,2.6-0.6L502.6,531.3z"/>
		<path d="M513.2,531.3c-0.6,0.3-1.8,0.7-3.3,0.7c-3.5,0-5.8-2.4-5.8-5.9c0-3.6,2.4-6.2,6.2-6.2c1.2,0,2.4,0.3,2.9,0.6l-0.5,1.6
			c-0.5-0.3-1.3-0.6-2.4-0.6c-2.7,0-4.1,2-4.1,4.4c0,2.7,1.7,4.3,4,4.3c1.2,0,2-0.3,2.6-0.6L513.2,531.3z"/>
		<path d="M525.4,528.6c0,1.2,0,2.3,0.1,3.2h-1.9l-0.1-1.9h0c-0.6,0.9-1.8,2.2-3.8,2.2c-1.8,0-4-1-4-5.1v-6.8h2.1v6.4
			c0,2.2,0.7,3.7,2.6,3.7c1.4,0,2.4-1,2.8-1.9c0.1-0.3,0.2-0.7,0.2-1.1v-7.1h2.1V528.6z"/>
		<path d="M528.9,523.8c0-1.4,0-2.5-0.1-3.6h1.8l0.1,2.3h0.1c0.5-1.6,1.8-2.5,3.2-2.5c0.2,0,0.4,0,0.6,0.1v2c-0.2,0-0.4-0.1-0.7-0.1
			c-1.5,0-2.5,1.1-2.8,2.7c0,0.3-0.1,0.6-0.1,1v6.2h-2.1V523.8z"/>
		<path d="M543,531.8l-0.2-1.5h-0.1c-0.6,0.9-1.9,1.7-3.6,1.7c-2.4,0-3.6-1.7-3.6-3.3c0-2.8,2.5-4.3,7-4.3v-0.2c0-1-0.3-2.7-2.6-2.7
			c-1.1,0-2.2,0.3-3,0.9l-0.5-1.4c1-0.6,2.4-1,3.8-1c3.6,0,4.4,2.4,4.4,4.8v4.3c0,1,0,2,0.2,2.8H543z M542.7,525.8
			c-2.3,0-4.9,0.4-4.9,2.6c0,1.4,0.9,2,2,2c1.5,0,2.5-1,2.8-1.9c0.1-0.2,0.1-0.5,0.1-0.7V525.8z"/>
		<path d="M556.4,531.3c-0.6,0.3-1.8,0.7-3.3,0.7c-3.5,0-5.8-2.4-5.8-5.9c0-3.6,2.4-6.2,6.2-6.2c1.2,0,2.4,0.3,2.9,0.6l-0.5,1.6
			c-0.5-0.3-1.3-0.6-2.4-0.6c-2.7,0-4.1,2-4.1,4.4c0,2.7,1.7,4.3,4,4.3c1.2,0,2-0.3,2.6-0.6L556.4,531.3z"/>
		<path d="M560.1,520.1l2.5,6.9c0.3,0.8,0.6,1.7,0.7,2.4h0c0.2-0.7,0.5-1.6,0.7-2.4l2.3-6.8h2.2l-3.2,8.3c-1.5,4-2.5,6-4,7.3
			c-1,0.9-2.1,1.3-2.6,1.4l-0.5-1.8c0.5-0.2,1.2-0.5,1.8-1c0.6-0.5,1.3-1.3,1.8-2.4c0.1-0.2,0.2-0.4,0.2-0.5s0-0.3-0.1-0.6
			l-4.3-10.7H560.1z"/>
		<path d="M586.2,525.9c0,4.3-3,6.2-5.8,6.2c-3.1,0-5.6-2.3-5.6-6c0-3.9,2.5-6.2,5.8-6.2C584,519.9,586.2,522.3,586.2,525.9z
			 M577,526c0,2.5,1.5,4.5,3.5,4.5c2,0,3.5-1.9,3.5-4.5c0-2-1-4.5-3.5-4.5C578.1,521.5,577,523.8,577,526z"/>
		<path d="M589.1,531.8v-10h-1.6v-1.6h1.6v-0.6c0-1.6,0.4-3.1,1.3-4.1c0.8-0.8,1.8-1.1,2.8-1.1c0.7,0,1.4,0.2,1.8,0.3l-0.3,1.6
			c-0.3-0.1-0.7-0.3-1.3-0.3c-1.8,0-2.3,1.6-2.3,3.4v0.6h2.8v1.6h-2.8v10H589.1z"/>
		<path d="M603.5,516.8v3.3h3v1.6h-3v6.3c0,1.4,0.4,2.3,1.6,2.3c0.6,0,1-0.1,1.2-0.1l0.1,1.6c-0.4,0.2-1.1,0.3-1.9,0.3
			c-1,0-1.8-0.3-2.3-0.9c-0.6-0.6-0.8-1.7-0.8-3v-6.3h-1.8v-1.6h1.8v-2.8L603.5,516.8z"/>
		<path d="M608.9,514.7h2.1v7.2h0c0.3-0.6,0.9-1.1,1.5-1.5c0.6-0.4,1.4-0.6,2.2-0.6c1.6,0,4.1,1,4.1,5v6.9h-2.1v-6.7
			c0-1.9-0.7-3.5-2.7-3.5c-1.4,0-2.4,1-2.8,2.1c-0.1,0.3-0.1,0.6-0.1,1v7h-2.1V514.7z"/>
		<path d="M623.4,526.3c0,2.9,1.9,4,4,4c1.5,0,2.4-0.3,3.2-0.6l0.4,1.5c-0.7,0.3-2,0.7-3.9,0.7c-3.6,0-5.7-2.4-5.7-5.9
			c0-3.5,2.1-6.3,5.4-6.3c3.8,0,4.8,3.3,4.8,5.5c0,0.4,0,0.8-0.1,1H623.4z M629.6,524.8c0-1.3-0.6-3.4-2.9-3.4c-2.1,0-3.1,2-3.2,3.4
			H629.6z"/>
		<path d="M639.4,514.7h2.1v7.2h0c0.3-0.6,0.9-1.1,1.5-1.5c0.6-0.4,1.4-0.6,2.2-0.6c1.6,0,4.1,1,4.1,5v6.9h-2.1v-6.7
			c0-1.9-0.7-3.5-2.7-3.5c-1.4,0-2.4,1-2.8,2.1c-0.1,0.3-0.1,0.6-0.1,1v7h-2.1V514.7z"/>
		<path d="M655.1,516.9c0,0.7-0.5,1.3-1.3,1.3c-0.7,0-1.3-0.6-1.3-1.3c0-0.7,0.6-1.3,1.3-1.3C654.5,515.6,655.1,516.1,655.1,516.9z
			 M652.7,531.8v-11.6h2.1v11.6H652.7z"/>
		<path d="M660.9,516.8v3.3h3v1.6h-3v6.3c0,1.4,0.4,2.3,1.6,2.3c0.6,0,1-0.1,1.2-0.1l0.1,1.6c-0.4,0.2-1.1,0.3-1.9,0.3
			c-1,0-1.8-0.3-2.3-0.9c-0.6-0.6-0.8-1.7-0.8-3v-6.3H657v-1.6h1.8v-2.8L660.9,516.8z"/>
		<path d="M679.6,531.3c-0.6,0.3-1.8,0.7-3.3,0.7c-3.5,0-5.8-2.4-5.8-5.9c0-3.6,2.4-6.2,6.2-6.2c1.2,0,2.4,0.3,2.9,0.6l-0.5,1.6
			c-0.5-0.3-1.3-0.6-2.4-0.6c-2.7,0-4.1,2-4.1,4.4c0,2.7,1.7,4.3,4,4.3c1.2,0,2-0.3,2.6-0.6L679.6,531.3z"/>
		<path d="M688.5,531.8l-0.2-1.5h-0.1c-0.6,0.9-1.9,1.7-3.6,1.7c-2.4,0-3.6-1.7-3.6-3.3c0-2.8,2.5-4.3,7-4.3v-0.2
			c0-1-0.3-2.7-2.6-2.7c-1.1,0-2.2,0.3-3,0.9l-0.5-1.4c1-0.6,2.4-1,3.8-1c3.6,0,4.4,2.4,4.4,4.8v4.3c0,1,0,2,0.2,2.8H688.5z
			 M688.2,525.8c-2.3,0-4.9,0.4-4.9,2.6c0,1.4,0.9,2,2,2c1.5,0,2.5-1,2.8-1.9c0.1-0.2,0.1-0.5,0.1-0.7V525.8z"/>
		<path d="M693.7,523.3c0-1.2,0-2.2-0.1-3.1h1.9l0.1,1.9h0c0.6-1.1,1.9-2.2,3.8-2.2c1.6,0,4.1,1,4.1,4.9v6.9h-2.1v-6.7
			c0-1.9-0.7-3.4-2.7-3.4c-1.4,0-2.5,1-2.8,2.2c-0.1,0.3-0.1,0.6-0.1,1v7h-2.1V523.3z"/>
		<path d="M712,531.8c0-0.8,0.1-2,0.1-3v-14h2.1v7.3h0c0.7-1.3,2.1-2.1,4-2.1c2.9,0,4.9,2.4,4.9,5.9c0,4.2-2.6,6.2-5.2,6.2
			c-1.7,0-3-0.6-3.9-2.2h-0.1l-0.1,1.9H712z M714.2,527.1c0,0.3,0,0.5,0.1,0.8c0.4,1.5,1.6,2.5,3.2,2.5c2.2,0,3.5-1.8,3.5-4.5
			c0-2.3-1.2-4.3-3.5-4.3c-1.4,0-2.8,1-3.2,2.6c0,0.2-0.1,0.5-0.1,0.9V527.1z"/>
		<path d="M726.9,526.3c0,2.9,1.9,4,4,4c1.5,0,2.4-0.3,3.2-0.6l0.4,1.5c-0.7,0.3-2,0.7-3.9,0.7c-3.6,0-5.7-2.4-5.7-5.9
			c0-3.5,2.1-6.3,5.4-6.3c3.8,0,4.8,3.3,4.8,5.5c0,0.4,0,0.8-0.1,1H726.9z M733.1,524.8c0-1.3-0.6-3.4-2.9-3.4c-2.1,0-3.1,2-3.2,3.4
			H733.1z"/>
		<path d="M742.8,523.9c0-1.5,0-2.7-0.1-3.8h1.9l0.1,2h0c0.9-1.4,2.2-2.3,4.1-2.3c2.8,0,4.9,2.4,4.9,5.9c0,4.2-2.5,6.2-5.3,6.2
			c-1.5,0-2.9-0.7-3.6-1.8h0v6.3h-2.1V523.9z M744.9,527c0,0.3,0,0.6,0.1,0.9c0.4,1.5,1.7,2.5,3.2,2.5c2.2,0,3.5-1.8,3.5-4.5
			c0-2.3-1.2-4.3-3.5-4.3c-1.4,0-2.8,1-3.2,2.6c-0.1,0.3-0.1,0.6-0.1,0.9V527z"/>
		<path d="M756.5,523.8c0-1.4,0-2.5-0.1-3.6h1.8l0.1,2.3h0.1c0.5-1.6,1.8-2.5,3.2-2.5c0.2,0,0.4,0,0.6,0.1v2c-0.2,0-0.4-0.1-0.7-0.1
			c-1.5,0-2.5,1.1-2.8,2.7c0,0.3-0.1,0.6-0.1,1v6.2h-2.1V523.8z"/>
		<path d="M774.6,525.9c0,4.3-3,6.2-5.8,6.2c-3.1,0-5.6-2.3-5.6-6c0-3.9,2.5-6.2,5.8-6.2C772.4,519.9,774.6,522.3,774.6,525.9z
			 M765.4,526c0,2.5,1.5,4.5,3.5,4.5c2,0,3.5-1.9,3.5-4.5c0-2-1-4.5-3.5-4.5C766.5,521.5,765.4,523.8,765.4,526z"/>
		<path d="M777.9,520.1l2.3,6.5c0.4,1.1,0.7,2,0.9,3h0.1c0.3-1,0.6-1.9,1-3l2.3-6.5h2.2l-4.6,11.6h-2l-4.4-11.6H777.9z"/>
		<path d="M791,516.9c0,0.7-0.5,1.3-1.3,1.3c-0.7,0-1.3-0.6-1.3-1.3c0-0.7,0.6-1.3,1.3-1.3C790.5,515.6,791,516.1,791,516.9z
			 M788.7,531.8v-11.6h2.1v11.6H788.7z"/>
		<path d="M804.3,514.7v14c0,1,0,2.2,0.1,3h-1.9l-0.1-2h0c-0.6,1.3-2.1,2.3-4,2.3c-2.8,0-5-2.4-5-5.9c0-3.9,2.4-6.2,5.2-6.2
			c1.8,0,3,0.8,3.5,1.8h0v-6.9H804.3z M802.2,524.9c0-0.3,0-0.6-0.1-0.9c-0.3-1.3-1.5-2.4-3-2.4c-2.2,0-3.5,1.9-3.5,4.5
			c0,2.4,1.2,4.3,3.4,4.3c1.4,0,2.7-0.9,3.1-2.5c0.1-0.3,0.1-0.6,0.1-0.9V524.9z"/>
		<path d="M809,526.3c0,2.9,1.9,4,4,4c1.5,0,2.4-0.3,3.2-0.6l0.4,1.5c-0.7,0.3-2,0.7-3.9,0.7c-3.6,0-5.7-2.4-5.7-5.9
			c0-3.5,2.1-6.3,5.4-6.3c3.8,0,4.8,3.3,4.8,5.5c0,0.4,0,0.8-0.1,1H809z M815.2,524.8c0-1.3-0.6-3.4-2.9-3.4c-2.1,0-3.1,2-3.2,3.4
			H815.2z"/>
		<path d="M829.9,514.7v14c0,1,0,2.2,0.1,3h-1.9l-0.1-2h0c-0.6,1.3-2.1,2.3-4,2.3c-2.8,0-5-2.4-5-5.9c0-3.9,2.4-6.2,5.2-6.2
			c1.8,0,3,0.8,3.5,1.8h0v-6.9H829.9z M827.8,524.9c0-0.3,0-0.6-0.1-0.9c-0.3-1.3-1.5-2.4-3-2.4c-2.2,0-3.5,1.9-3.5,4.5
			c0,2.4,1.2,4.3,3.4,4.3c1.4,0,2.7-0.9,3.1-2.5c0.1-0.3,0.1-0.6,0.1-0.9V524.9z"/>
		<path d="M413,560.6v-10h-1.6v-1.6h1.6v-0.6c0-1.6,0.4-3.1,1.3-4.1c0.8-0.8,1.8-1.1,2.8-1.1c0.7,0,1.4,0.2,1.8,0.3l-0.3,1.6
			c-0.3-0.1-0.7-0.3-1.3-0.3c-1.8,0-2.3,1.6-2.3,3.4v0.6h2.8v1.6h-2.8v10H413z"/>
		<path d="M430,554.7c0,4.3-3,6.2-5.8,6.2c-3.1,0-5.6-2.3-5.6-6c0-3.9,2.5-6.2,5.8-6.2C427.7,548.7,430,551.1,430,554.7z
			 M420.7,554.8c0,2.5,1.5,4.5,3.5,4.5c2,0,3.5-1.9,3.5-4.5c0-2-1-4.5-3.5-4.5C421.8,550.3,420.7,552.6,420.7,554.8z"/>
		<path d="M432.6,552.6c0-1.4,0-2.5-0.1-3.6h1.8l0.1,2.3h0.1c0.5-1.6,1.8-2.5,3.2-2.5c0.2,0,0.4,0,0.6,0.1v2c-0.2,0-0.4-0.1-0.7-0.1
			c-1.5,0-2.5,1.1-2.8,2.7c0,0.3-0.1,0.6-0.1,1v6.2h-2.1V552.6z"/>
		<path d="M448.1,545.6v3.3h3v1.6h-3v6.3c0,1.4,0.4,2.3,1.6,2.3c0.6,0,1-0.1,1.2-0.1l0.1,1.6c-0.4,0.2-1.1,0.3-1.9,0.3
			c-1,0-1.8-0.3-2.3-0.9c-0.6-0.6-0.8-1.7-0.8-3v-6.3h-1.8v-1.6h1.8v-2.8L448.1,545.6z"/>
		<path d="M453.5,543.5h2.1v7.2h0c0.3-0.6,0.9-1.1,1.5-1.5c0.6-0.4,1.4-0.6,2.2-0.6c1.6,0,4.1,1,4.1,5v6.9h-2.1v-6.7
			c0-1.9-0.7-3.5-2.7-3.5c-1.4,0-2.4,1-2.8,2.1c-0.1,0.3-0.1,0.6-0.1,1v7h-2.1V543.5z"/>
		<path d="M468,555.1c0,2.9,1.9,4,4,4c1.5,0,2.4-0.3,3.2-0.6l0.4,1.5c-0.7,0.3-2,0.7-3.9,0.7c-3.6,0-5.7-2.4-5.7-5.9
			c0-3.5,2.1-6.3,5.4-6.3c3.8,0,4.8,3.3,4.8,5.5c0,0.4,0,0.8-0.1,1H468z M474.2,553.6c0-1.3-0.6-3.4-2.9-3.4c-2.1,0-3.1,2-3.2,3.4
			H474.2z"/>
		<path d="M483.9,552.7c0-1.5,0-2.7-0.1-3.8h1.9l0.1,2h0c0.9-1.4,2.2-2.3,4.1-2.3c2.8,0,4.9,2.4,4.9,5.9c0,4.2-2.5,6.2-5.3,6.2
			c-1.5,0-2.9-0.7-3.6-1.8h0v6.3h-2.1V552.7z M486,555.8c0,0.3,0,0.6,0.1,0.9c0.4,1.5,1.7,2.5,3.2,2.5c2.2,0,3.5-1.8,3.5-4.5
			c0-2.3-1.2-4.3-3.5-4.3c-1.4,0-2.8,1-3.2,2.6c-0.1,0.3-0.1,0.6-0.1,0.9V555.8z"/>
		<path d="M497.6,543.5h2.1v17h-2.1V543.5z"/>
		<path d="M509.7,560.6l-0.2-1.5h-0.1c-0.6,0.9-1.9,1.7-3.6,1.7c-2.4,0-3.6-1.7-3.6-3.3c0-2.8,2.5-4.3,7-4.3v-0.2
			c0-1-0.3-2.7-2.6-2.7c-1.1,0-2.2,0.3-3,0.9l-0.5-1.4c1-0.6,2.4-1,3.8-1c3.6,0,4.4,2.4,4.4,4.8v4.3c0,1,0,2,0.2,2.8H509.7z
			 M509.4,554.6c-2.3,0-4.9,0.4-4.9,2.6c0,1.4,0.9,2,2,2c1.5,0,2.5-1,2.8-1.9c0.1-0.2,0.1-0.5,0.1-0.7V554.6z"/>
		<path d="M515.4,548.9l2.5,6.9c0.3,0.8,0.6,1.7,0.7,2.4h0c0.2-0.7,0.5-1.6,0.7-2.4l2.3-6.8h2.2l-3.2,8.3c-1.5,4-2.5,6-4,7.3
			c-1,0.9-2.1,1.3-2.6,1.4l-0.5-1.8c0.5-0.2,1.2-0.5,1.8-1c0.6-0.5,1.3-1.3,1.8-2.4c0.1-0.2,0.2-0.4,0.2-0.5s0-0.3-0.1-0.6
			l-4.3-10.7H515.4z"/>
		<path d="M526.9,555.1c0,2.9,1.9,4,4,4c1.5,0,2.4-0.3,3.2-0.6l0.4,1.5c-0.7,0.3-2,0.7-3.9,0.7c-3.6,0-5.7-2.4-5.7-5.9
			c0-3.5,2.1-6.3,5.4-6.3c3.8,0,4.8,3.3,4.8,5.5c0,0.4,0,0.8-0.1,1H526.9z M533.1,553.6c0-1.3-0.6-3.4-2.9-3.4c-2.1,0-3.1,2-3.2,3.4
			H533.1z"/>
		<path d="M537.7,552.6c0-1.4,0-2.5-0.1-3.6h1.8l0.1,2.3h0.1c0.5-1.6,1.8-2.5,3.2-2.5c0.2,0,0.4,0,0.6,0.1v2c-0.2,0-0.4-0.1-0.7-0.1
			c-1.5,0-2.5,1.1-2.8,2.7c0,0.3-0.1,0.6-0.1,1v6.2h-2.1V552.6z"/>
		<path d="M543.8,559.3c0-0.9,0.6-1.5,1.4-1.5s1.4,0.6,1.4,1.5c0,0.9-0.6,1.5-1.4,1.5C544.4,560.8,543.8,560.2,543.8,559.3z"/>
	</g>
</g>
<g id="Layer_3">
	<g>
		<path class="st5" d="M97.7,90.7l4.5-2.8c0,0,31.2-0.9,35.3-13.4L141,73l7.3,2.3l3.4-0.9l14.9,5.2v1.2V106l-0.9,2l-43.1,21.7h-3.2
			l-21.7-10.3V90.7z"/>
		<polygon class="st14" points="162.5,87.1 161.2,85.9 155.2,88.3 154.1,90.4 154.1,108.5 155.6,109.4 161.2,107 162.5,105 		"/>
		<polygon class="st14" points="120.1,99 121.8,99 122.7,100.3 122.7,127.8 120.1,127.8 		"/>
		<path class="st14" d="M97.7,96.3c0,0-21.6-3.8-21.3-12.8c0.3-8-2.2,5-2.2,11c0,4.6,2.3,7.8,2.3,7.8s5.3,8.2,21.2,9V96.3z"/>
	</g>
</g>
</svg>
